# Blender v2.81 (sub 16) OBJ File: ''
# www.blender.org
mtllib D.mtl
o D
v -0.007525 0.000000 -0.000006
v -0.007462 0.000000 -0.008181
v -0.007550 0.000000 -0.008181
v -0.007217 0.000000 -0.008181
v -0.006847 0.000000 -0.008181
v -0.006382 0.000000 -0.008181
v -0.005855 0.000000 -0.008181
v -0.005297 0.000000 -0.008181
v -0.004739 0.000000 -0.008181
v -0.004213 0.000000 -0.008181
v -0.003749 0.000000 -0.008181
v -0.003378 0.000000 -0.008181
v -0.003134 0.000000 -0.008181
v -0.003045 0.000000 -0.008181
v -0.001898 0.000000 -0.008179
v -0.000909 0.000000 -0.008172
v -0.000063 0.000000 -0.008159
v 0.000658 0.000000 -0.008138
v 0.001270 0.000000 -0.008107
v -0.002448 0.000000 -0.004473
v 0.001790 0.000000 -0.008064
v 0.002234 0.000000 -0.008008
v 0.002619 0.000000 -0.007938
v 0.002961 0.000000 -0.007850
v 0.003278 0.000000 -0.007745
v 0.003585 0.000000 -0.007619
v 0.003900 0.000000 -0.007472
v 0.004267 0.000000 -0.007273
v 0.004626 0.000000 -0.007033
v 0.004974 0.000000 -0.006757
v 0.005308 0.000000 -0.006446
v 0.005626 0.000000 -0.006104
v 0.005927 0.000000 -0.005736
v 0.006207 0.000000 -0.005343
v 0.006462 0.000000 -0.004931
v 0.006691 0.000000 -0.004501
v -0.001104 0.000000 -0.004423
v -0.000848 0.000000 -0.004413
v 0.006892 0.000000 -0.004057
v -0.002448 0.000000 -0.000056
v -0.000619 0.000000 -0.004402
v -0.000414 0.000000 -0.004388
v -0.000230 0.000000 -0.004372
v -0.000064 0.000000 -0.004353
v 0.000086 0.000000 -0.004330
v 0.000225 0.000000 -0.004303
v 0.000354 0.000000 -0.004271
v 0.000477 0.000000 -0.004234
v 0.000596 0.000000 -0.004192
v 0.000716 0.000000 -0.004143
v 0.000838 0.000000 -0.004087
v 0.001024 0.000000 -0.003984
v 0.007062 0.000000 -0.003603
v 0.001199 0.000000 -0.003866
v 0.001361 0.000000 -0.003734
v 0.001511 0.000000 -0.003587
v 0.007198 0.000000 -0.003142
v 0.001649 0.000000 -0.003425
v 0.001776 0.000000 -0.003247
v 0.001891 0.000000 -0.003054
v 0.007311 0.000000 -0.002643
v 0.001994 0.000000 -0.002846
v 0.002086 0.000000 -0.002621
v 0.007403 0.000000 -0.002104
v 0.002166 0.000000 -0.002380
v 0.002236 0.000000 -0.002122
v 0.002294 0.000000 -0.001847
v 0.007471 0.000000 -0.001534
v 0.002337 0.000000 -0.001533
v 0.007520 0.000000 -0.000942
v 0.002368 0.000000 -0.001158
v 0.002387 0.000000 -0.000738
v 0.007546 0.000000 -0.000336
v 0.002395 0.000000 -0.000286
v 0.007550 -0.000000 0.000274
v 0.002392 -0.000000 0.000184
v -0.002448 -0.000000 0.004361
v -0.007488 -0.000000 0.008181
v 0.002379 -0.000000 0.000657
v 0.007532 -0.000000 0.000880
v 0.002357 -0.000000 0.001119
v 0.007494 -0.000000 0.001473
v 0.002325 -0.000000 0.001555
v 0.007435 -0.000000 0.002045
v 0.002285 -0.000000 0.001953
v 0.002237 -0.000000 0.002297
v 0.007357 -0.000000 0.002586
v 0.002182 -0.000000 0.002574
v 0.002120 -0.000000 0.002769
v 0.007256 -0.000000 0.003087
v 0.002049 -0.000000 0.002919
v 0.001974 -0.000000 0.003063
v 0.001892 -0.000000 0.003201
v 0.007136 -0.000000 0.003540
v 0.001808 -0.000000 0.003332
v 0.001719 -0.000000 0.003456
v 0.001626 -0.000000 0.003573
v 0.006997 -0.000000 0.003932
v 0.001531 -0.000000 0.003682
v 0.001432 -0.000000 0.003782
v 0.001330 -0.000000 0.003873
v 0.001226 -0.000000 0.003955
v 0.006822 -0.000000 0.004326
v 0.001120 -0.000000 0.004026
v 0.001012 -0.000000 0.004088
v 0.000872 -0.000000 0.004144
v 0.000676 -0.000000 0.004198
v 0.000436 -0.000000 0.004251
v 0.000161 -0.000000 0.004300
v -0.000139 -0.000000 0.004344
v 0.006613 -0.000000 0.004719
v -0.000452 -0.000000 0.004383
v -0.002440 -0.000000 0.004363
v -0.002417 -0.000000 0.004367
v -0.002384 -0.000000 0.004373
v -0.002341 -0.000000 0.004381
v -0.002293 -0.000000 0.004390
v -0.000768 -0.000000 0.004415
v -0.002243 -0.000000 0.004399
v -0.002192 -0.000000 0.004408
v -0.002144 -0.000000 0.004417
v -0.001078 -0.000000 0.004440
v -0.002101 -0.000000 0.004424
v -0.002068 -0.000000 0.004431
v -0.002045 -0.000000 0.004435
v -0.002037 -0.000000 0.004436
v -0.001860 -0.000000 0.004454
v -0.001370 -0.000000 0.004455
v -0.001634 -0.000000 0.004460
v 0.006376 -0.000000 0.005106
v 0.006111 -0.000000 0.005482
v 0.005826 -0.000000 0.005842
v 0.005521 -0.000000 0.006183
v 0.005203 -0.000000 0.006500
v 0.004874 -0.000000 0.006788
v 0.004538 -0.000000 0.007043
v 0.004200 -0.000000 0.007260
v 0.003862 -0.000000 0.007435
v 0.003514 -0.000000 0.007588
v 0.003175 -0.000000 0.007719
v 0.002830 -0.000000 0.007830
v 0.002464 -0.000000 0.007922
v 0.002059 -0.000000 0.007996
v 0.001602 -0.000000 0.008055
v 0.001075 -0.000000 0.008101
v 0.000465 -0.000000 0.008134
v -0.000246 -0.000000 0.008158
v -0.001072 -0.000000 0.008172
v -0.002029 -0.000000 0.008179
v -0.003132 -0.000000 0.008181
vn 0.0000 1.0000 0.0000
usemtl SVGMat.040
s off
f 1//1 2//1 3//1
f 1//1 4//1 2//1
f 1//1 5//1 4//1
f 1//1 6//1 5//1
f 1//1 7//1 6//1
f 1//1 8//1 7//1
f 1//1 9//1 8//1
f 1//1 10//1 9//1
f 1//1 11//1 10//1
f 1//1 12//1 11//1
f 1//1 13//1 12//1
f 1//1 14//1 13//1
f 1//1 15//1 14//1
f 1//1 16//1 15//1
f 1//1 17//1 16//1
f 1//1 18//1 17//1
f 1//1 19//1 18//1
f 1//1 20//1 19//1
f 20//1 21//1 19//1
f 20//1 22//1 21//1
f 20//1 23//1 22//1
f 20//1 24//1 23//1
f 20//1 25//1 24//1
f 20//1 26//1 25//1
f 20//1 27//1 26//1
f 20//1 28//1 27//1
f 20//1 29//1 28//1
f 20//1 30//1 29//1
f 20//1 31//1 30//1
f 20//1 32//1 31//1
f 20//1 33//1 32//1
f 20//1 34//1 33//1
f 20//1 35//1 34//1
f 20//1 36//1 35//1
f 20//1 37//1 36//1
f 37//1 38//1 36//1
f 38//1 39//1 36//1
f 1//1 40//1 20//1
f 41//1 39//1 38//1
f 42//1 39//1 41//1
f 43//1 39//1 42//1
f 44//1 39//1 43//1
f 45//1 39//1 44//1
f 46//1 39//1 45//1
f 47//1 39//1 46//1
f 48//1 39//1 47//1
f 49//1 39//1 48//1
f 50//1 39//1 49//1
f 51//1 39//1 50//1
f 52//1 39//1 51//1
f 52//1 53//1 39//1
f 54//1 53//1 52//1
f 55//1 53//1 54//1
f 56//1 53//1 55//1
f 56//1 57//1 53//1
f 58//1 57//1 56//1
f 59//1 57//1 58//1
f 60//1 57//1 59//1
f 60//1 61//1 57//1
f 62//1 61//1 60//1
f 63//1 61//1 62//1
f 63//1 64//1 61//1
f 65//1 64//1 63//1
f 66//1 64//1 65//1
f 67//1 64//1 66//1
f 67//1 68//1 64//1
f 69//1 68//1 67//1
f 69//1 70//1 68//1
f 71//1 70//1 69//1
f 72//1 70//1 71//1
f 72//1 73//1 70//1
f 74//1 73//1 72//1
f 74//1 75//1 73//1
f 76//1 75//1 74//1
f 1//1 77//1 40//1
f 78//1 77//1 1//1
f 79//1 75//1 76//1
f 79//1 80//1 75//1
f 81//1 80//1 79//1
f 81//1 82//1 80//1
f 83//1 82//1 81//1
f 83//1 84//1 82//1
f 85//1 84//1 83//1
f 86//1 84//1 85//1
f 86//1 87//1 84//1
f 88//1 87//1 86//1
f 89//1 87//1 88//1
f 89//1 90//1 87//1
f 91//1 90//1 89//1
f 92//1 90//1 91//1
f 93//1 90//1 92//1
f 93//1 94//1 90//1
f 95//1 94//1 93//1
f 96//1 94//1 95//1
f 97//1 94//1 96//1
f 97//1 98//1 94//1
f 99//1 98//1 97//1
f 100//1 98//1 99//1
f 101//1 98//1 100//1
f 102//1 98//1 101//1
f 102//1 103//1 98//1
f 104//1 103//1 102//1
f 105//1 103//1 104//1
f 106//1 103//1 105//1
f 107//1 103//1 106//1
f 108//1 103//1 107//1
f 109//1 103//1 108//1
f 110//1 103//1 109//1
f 110//1 111//1 103//1
f 112//1 111//1 110//1
f 78//1 113//1 77//1
f 78//1 114//1 113//1
f 78//1 115//1 114//1
f 78//1 116//1 115//1
f 78//1 117//1 116//1
f 118//1 111//1 112//1
f 78//1 119//1 117//1
f 78//1 120//1 119//1
f 78//1 121//1 120//1
f 122//1 111//1 118//1
f 78//1 123//1 121//1
f 78//1 124//1 123//1
f 78//1 125//1 124//1
f 78//1 126//1 125//1
f 78//1 127//1 126//1
f 128//1 111//1 122//1
f 78//1 129//1 127//1
f 129//1 111//1 128//1
f 78//1 111//1 129//1
f 78//1 130//1 111//1
f 78//1 131//1 130//1
f 78//1 132//1 131//1
f 78//1 133//1 132//1
f 78//1 134//1 133//1
f 78//1 135//1 134//1
f 78//1 136//1 135//1
f 78//1 137//1 136//1
f 78//1 138//1 137//1
f 78//1 139//1 138//1
f 78//1 140//1 139//1
f 78//1 141//1 140//1
f 78//1 142//1 141//1
f 78//1 143//1 142//1
f 78//1 144//1 143//1
f 78//1 145//1 144//1
f 78//1 146//1 145//1
f 78//1 147//1 146//1
f 78//1 148//1 147//1
f 78//1 149//1 148//1
f 78//1 150//1 149//1
