# Blender v2.81 (sub 16) OBJ File: ''
# www.blender.org
mtllib F.mtl
o F
v -0.006323 0.000000 -0.000006
v -0.000001 0.000000 -0.008181
v -0.006347 0.000000 -0.008181
v -0.001121 0.000000 -0.004697
v 0.006347 0.000000 -0.008181
v 0.006347 0.000000 -0.006439
v 0.006347 0.000000 -0.004697
v -0.001121 0.000000 -0.003266
v 0.002613 0.000000 -0.004697
v -0.001121 0.000000 -0.001835
v 0.002054 0.000000 -0.001835
v 0.005227 0.000000 -0.001835
v 0.005227 0.000000 -0.000155
v 0.005227 -0.000000 0.001525
v -0.006284 -0.000000 0.008181
v -0.001121 -0.000000 0.001525
v -0.001144 -0.000000 0.004847
v 0.002054 -0.000000 0.001525
v -0.001183 -0.000000 0.008181
v -0.003734 -0.000000 0.008181
vn 0.0000 1.0000 0.0000
vn 0.0000 0.0000 1.0000
usemtl SVGMat.043
s 1
f 1//1 2//1 3//1
f 1//1 4//1 2//1
f 4//1 5//1 2//1
f 4//1 6//1 5//1
f 4//1 7//1 6//1
f 1//1 8//1 4//1
f 9//2 7//2 4//2
f 1//1 10//1 8//1
f 1//1 11//1 10//1
f 1//1 12//1 11//1
f 1//1 13//1 12//1
f 1//1 14//1 13//1
f 15//1 16//1 1//1
f 16//1 14//1 1//1
f 15//1 17//1 16//1
f 18//2 14//2 16//2
f 15//1 19//1 17//1
f 20//2 19//2 15//2
