# Blender v2.81 (sub 16) OBJ File: ''
# www.blender.org
mtllib X.mtl
o X
v 0.001573 0.000000 -0.005712
v 0.003021 0.000000 -0.008213
v 0.002966 0.000000 -0.008213
v 0.003170 0.000000 -0.008213
v 0.003396 0.000000 -0.008213
v 0.003680 0.000000 -0.008213
v 0.004000 0.000000 -0.008213
v 0.004342 0.000000 -0.008213
v 0.004682 0.000000 -0.008213
v 0.005004 0.000000 -0.008213
v 0.005287 0.000000 -0.008213
v 0.005513 0.000000 -0.008213
v 0.005662 0.000000 -0.008213
v 0.005717 0.000000 -0.008213
v 0.006249 0.000000 -0.008212
v 0.006708 0.000000 -0.008210
v 0.007103 0.000000 -0.008206
v 0.007434 0.000000 -0.008201
v 0.007707 0.000000 -0.008191
v 0.007927 0.000000 -0.008181
v -0.006640 0.000000 -0.008190
v -0.005906 0.000000 -0.008190
v -0.006289 0.000000 -0.008190
v -0.005497 0.000000 -0.008187
v -0.006963 0.000000 -0.008186
v -0.002746 0.000000 -0.008150
v -0.007251 0.000000 -0.008183
v -0.007506 0.000000 -0.008176
v 0.008098 0.000000 -0.008167
v -0.007727 0.000000 -0.008168
v -0.007910 0.000000 -0.008159
v 0.008227 0.000000 -0.008150
v -0.008056 0.000000 -0.008147
v -0.002719 0.000000 -0.008104
v 0.008315 0.000000 -0.008128
v -0.008162 0.000000 -0.008133
v -0.008226 0.000000 -0.008117
v 0.008369 0.000000 -0.008102
v -0.008248 0.000000 -0.008101
v -0.002645 0.000000 -0.007974
v 0.008394 0.000000 -0.008073
v -0.008225 0.000000 -0.008050
v 0.008392 0.000000 -0.008038
v -0.008158 0.000000 -0.007934
v 0.008361 0.000000 -0.007982
v 0.008289 0.000000 -0.007862
v -0.002532 0.000000 -0.007781
v -0.008050 0.000000 -0.007756
v 0.008178 0.000000 -0.007682
v -0.002391 0.000000 -0.007537
v -0.007907 0.000000 -0.007521
v 0.008031 0.000000 -0.007447
v -0.002231 0.000000 -0.007260
v -0.007727 0.000000 -0.007235
v 0.007852 0.000000 -0.007161
v -0.002061 0.000000 -0.006967
v -0.007517 0.000000 -0.006901
v 0.007643 0.000000 -0.006830
v -0.001892 0.000000 -0.006675
v -0.007276 0.000000 -0.006526
v 0.007407 0.000000 -0.006458
v -0.001732 0.000000 -0.006398
v -0.007012 0.000000 -0.006111
v 0.007149 0.000000 -0.006049
v -0.001591 0.000000 -0.006156
v -0.001478 0.000000 -0.005960
v -0.006724 0.000000 -0.005666
v 0.006870 0.000000 -0.005610
v -0.001404 0.000000 -0.005832
v -0.001377 0.000000 -0.005786
v -0.001193 0.000000 -0.005466
v 0.001385 0.000000 -0.005375
v -0.006418 0.000000 -0.005193
v 0.006574 0.000000 -0.005145
v -0.001014 0.000000 -0.005158
v 0.001203 0.000000 -0.005054
v -0.006094 0.000000 -0.004696
v -0.000843 0.000000 -0.004864
v 0.006263 0.000000 -0.004659
v 0.001028 0.000000 -0.004752
v -0.000681 0.000000 -0.004585
v 0.000862 0.000000 -0.004469
v -0.005758 0.000000 -0.004180
v 0.005941 0.000000 -0.004155
v -0.000531 0.000000 -0.004328
v 0.000707 0.000000 -0.004211
v -0.000392 0.000000 -0.004091
v 0.000564 0.000000 -0.003980
v -0.005421 0.000000 -0.003666
v 0.005616 0.000000 -0.003649
v -0.000268 0.000000 -0.003883
v 0.000437 0.000000 -0.003779
v -0.000160 0.000000 -0.003701
v 0.000325 0.000000 -0.003610
v -0.000070 0.000000 -0.003552
v -0.005098 0.000000 -0.003171
v 0.005304 0.000000 -0.003162
v 0.000232 0.000000 -0.003477
v 0.000002 0.000000 -0.003436
v 0.000159 0.000000 -0.003383
v 0.000052 0.000000 -0.003359
v 0.000107 0.000000 -0.003330
v 0.000079 0.000000 -0.003322
v -0.004792 0.000000 -0.002699
v 0.005007 0.000000 -0.002697
v -0.004504 0.000000 -0.002257
v 0.004727 0.000000 -0.002260
v 0.004469 0.000000 -0.001855
v -0.004240 0.000000 -0.001847
v 0.004233 0.000000 -0.001486
v -0.004000 0.000000 -0.001476
v 0.004027 0.000000 -0.001158
v -0.003789 0.000000 -0.001148
v 0.003848 0.000000 -0.000876
v -0.003610 0.000000 -0.000867
v 0.003703 0.000000 -0.000644
v -0.003465 0.000000 -0.000638
v 0.003592 0.000000 -0.000468
v -0.003358 0.000000 -0.000466
v 0.003520 0.000000 -0.000351
v -0.003292 0.000000 -0.000355
v -0.003269 0.000000 -0.000311
v 0.003489 0.000000 -0.000299
v -0.003294 0.000000 -0.000263
v 0.003507 0.000000 -0.000244
v -0.003369 0.000000 -0.000142
v 0.003572 0.000000 -0.000119
v -0.003489 -0.000000 0.000048
v 0.003681 -0.000000 0.000071
v -0.003652 -0.000000 0.000301
v 0.003829 -0.000000 0.000320
v -0.003853 -0.000000 0.000612
v 0.004016 -0.000000 0.000624
v -0.004091 -0.000000 0.000977
v 0.004236 -0.000000 0.000979
v -0.004360 -0.000000 0.001388
v 0.004487 -0.000000 0.001378
v 0.004767 -0.000000 0.001815
v -0.004657 -0.000000 0.001843
v 0.005071 -0.000000 0.002289
v -0.004980 -0.000000 0.002334
v 0.005397 -0.000000 0.002793
v -0.005326 -0.000000 0.002858
v 0.005742 -0.000000 0.003322
v -0.005690 -0.000000 0.003410
v 0.000054 -0.000000 0.003174
v 0.000025 -0.000000 0.003197
v 0.000081 -0.000000 0.003197
v 0.000134 -0.000000 0.003264
v -0.000031 -0.000000 0.003264
v 0.000213 -0.000000 0.003371
v -0.000112 -0.000000 0.003371
v 0.006103 -0.000000 0.003870
v 0.000314 -0.000000 0.003518
v -0.000215 -0.000000 0.003518
v -0.006069 -0.000000 0.003981
v 0.000436 -0.000000 0.003699
v -0.000339 -0.000000 0.003699
v 0.000577 -0.000000 0.003913
v -0.000481 -0.000000 0.003913
v 0.006462 -0.000000 0.004416
v 0.000734 -0.000000 0.004157
v -0.000640 -0.000000 0.004157
v -0.006124 -0.000000 0.004066
v -0.006275 -0.000000 0.004295
v 0.000906 -0.000000 0.004424
v -0.000813 -0.000000 0.004424
v -0.006506 -0.000000 0.004643
v 0.006808 -0.000000 0.004943
v 0.001090 -0.000000 0.004717
v -0.000999 -0.000000 0.004717
v -0.006792 -0.000000 0.005079
v 0.001285 -0.000000 0.005028
v -0.001196 -0.000000 0.005028
v 0.007138 -0.000000 0.005447
v 0.001488 -0.000000 0.005356
v -0.001401 -0.000000 0.005356
v -0.007118 -0.000000 0.005573
v 0.001697 -0.000000 0.005699
v -0.001613 -0.000000 0.005699
v 0.007449 -0.000000 0.005921
v -0.007463 -0.000000 0.006097
v -0.003169 -0.000000 0.008213
v 0.001727 -0.000000 0.005749
v 0.001811 -0.000000 0.005885
v 0.001938 -0.000000 0.006092
v 0.007738 -0.000000 0.006361
v 0.002097 -0.000000 0.006351
v -0.007808 -0.000000 0.006622
v 0.002278 -0.000000 0.006644
v 0.008001 -0.000000 0.006762
v -0.008134 -0.000000 0.007116
v 0.002469 -0.000000 0.006955
v 0.008235 -0.000000 0.007120
v 0.002660 -0.000000 0.007267
v -0.008421 -0.000000 0.007552
v 0.008436 -0.000000 0.007426
v 0.002840 -0.000000 0.007560
v 0.008601 -0.000000 0.007678
v -0.008651 -0.000000 0.007899
v 0.002999 -0.000000 0.007819
v 0.008729 -0.000000 0.007869
v 0.003126 -0.000000 0.008027
v 0.008814 -0.000000 0.007996
v -0.008802 -0.000000 0.008129
v 0.008853 -0.000000 0.008051
v 0.003210 -0.000000 0.008163
v 0.008857 -0.000000 0.008081
v 0.008831 -0.000000 0.008105
v 0.008770 -0.000000 0.008128
v 0.008670 -0.000000 0.008147
v -0.008857 -0.000000 0.008213
v 0.008530 -0.000000 0.008164
v 0.003240 -0.000000 0.008213
v 0.008344 -0.000000 0.008178
v 0.008110 -0.000000 0.008190
v 0.007824 -0.000000 0.008198
v 0.007483 -0.000000 0.008205
v 0.007082 -0.000000 0.008209
v 0.006619 -0.000000 0.008212
v 0.006090 -0.000000 0.008213
v -0.006007 -0.000000 0.008213
vn 0.0000 1.0000 0.0000
vn 0.0000 0.0000 1.0000
usemtl SVGMat.079
s off
f 1//1 2//1 3//1
f 1//1 4//1 2//1
f 1//1 5//1 4//1
f 1//1 6//1 5//1
f 1//1 7//1 6//1
f 1//1 8//1 7//1
f 1//1 9//1 8//1
f 1//1 10//1 9//1
f 1//1 11//1 10//1
f 1//1 12//1 11//1
f 1//1 13//1 12//1
f 1//1 14//1 13//1
f 1//1 15//1 14//1
f 1//1 16//1 15//1
f 1//1 17//1 16//1
f 1//1 18//1 17//1
f 1//1 19//1 18//1
f 1//1 20//1 19//1
f 21//1 22//1 23//1
f 21//1 24//1 22//1
f 25//1 24//1 21//1
f 25//1 26//1 24//1
f 27//1 26//1 25//1
f 28//1 26//1 27//1
f 1//1 29//1 20//1
f 30//1 26//1 28//1
f 31//1 26//1 30//1
f 1//1 32//1 29//1
f 33//1 26//1 31//1
f 33//1 34//1 26//1
f 1//1 35//1 32//1
f 36//1 34//1 33//1
f 37//1 34//1 36//1
f 1//1 38//1 35//1
f 39//1 34//1 37//1
f 39//1 40//1 34//1
f 1//1 41//1 38//1
f 42//1 40//1 39//1
f 1//1 43//1 41//1
f 44//1 40//1 42//1
f 1//1 45//1 43//1
f 1//1 46//1 45//1
f 44//1 47//1 40//1
f 48//1 47//1 44//1
f 1//1 49//1 46//1
f 48//1 50//1 47//1
f 51//1 50//1 48//1
f 1//1 52//1 49//1
f 51//1 53//1 50//1
f 54//1 53//1 51//1
f 1//1 55//1 52//1
f 54//1 56//1 53//1
f 57//1 56//1 54//1
f 1//1 58//1 55//1
f 57//1 59//1 56//1
f 60//1 59//1 57//1
f 1//1 61//1 58//1
f 60//1 62//1 59//1
f 63//1 62//1 60//1
f 1//1 64//1 61//1
f 63//1 65//1 62//1
f 63//1 66//1 65//1
f 67//1 66//1 63//1
f 1//1 68//1 64//1
f 67//1 69//1 66//1
f 67//1 70//1 69//1
f 67//1 71//1 70//1
f 72//1 68//1 1//1
f 73//1 71//1 67//1
f 72//1 74//1 68//1
f 73//1 75//1 71//1
f 76//1 74//1 72//1
f 77//1 75//1 73//1
f 77//1 78//1 75//1
f 76//1 79//1 74//1
f 80//1 79//1 76//1
f 77//1 81//1 78//1
f 82//1 79//1 80//1
f 83//1 81//1 77//1
f 82//1 84//1 79//1
f 83//1 85//1 81//1
f 86//1 84//1 82//1
f 83//1 87//1 85//1
f 88//1 84//1 86//1
f 89//1 87//1 83//1
f 88//1 90//1 84//1
f 89//1 91//1 87//1
f 92//1 90//1 88//1
f 89//1 93//1 91//1
f 94//1 90//1 92//1
f 89//1 95//1 93//1
f 96//1 95//1 89//1
f 94//1 97//1 90//1
f 98//1 97//1 94//1
f 96//1 99//1 95//1
f 100//1 97//1 98//1
f 96//1 101//1 99//1
f 102//1 97//1 100//1
f 96//1 103//1 101//1
f 103//1 97//1 102//1
f 96//1 97//1 103//1
f 104//1 97//1 96//1
f 104//1 105//1 97//1
f 106//1 105//1 104//1
f 106//1 107//1 105//1
f 106//1 108//1 107//1
f 109//1 108//1 106//1
f 109//1 110//1 108//1
f 111//1 110//1 109//1
f 111//1 112//1 110//1
f 113//1 112//1 111//1
f 113//1 114//1 112//1
f 115//1 114//1 113//1
f 115//1 116//1 114//1
f 117//1 116//1 115//1
f 117//1 118//1 116//1
f 119//1 118//1 117//1
f 119//1 120//1 118//1
f 121//1 120//1 119//1
f 122//1 120//1 121//1
f 122//1 123//1 120//1
f 124//1 123//1 122//1
f 124//1 125//1 123//1
f 126//1 125//1 124//1
f 126//1 127//1 125//1
f 128//1 127//1 126//1
f 128//1 129//1 127//1
f 130//1 129//1 128//1
f 130//1 131//1 129//1
f 132//1 131//1 130//1
f 132//1 133//1 131//1
f 134//1 133//1 132//1
f 134//1 135//1 133//1
f 136//1 135//1 134//1
f 136//1 137//1 135//1
f 136//1 138//1 137//1
f 139//1 138//1 136//1
f 139//1 140//1 138//1
f 141//1 140//1 139//1
f 141//1 142//1 140//1
f 143//1 142//1 141//1
f 143//1 144//1 142//1
f 145//1 146//1 143//1
f 146//1 144//1 143//1
f 145//1 147//1 146//1
f 148//1 144//1 146//1
f 149//1 144//1 148//1
f 145//1 150//1 147//1
f 151//1 144//1 149//1
f 145//1 152//1 150//1
f 151//1 153//1 144//1
f 154//1 153//1 151//1
f 145//1 155//1 152//1
f 156//1 155//1 145//1
f 157//1 153//1 154//1
f 156//1 158//1 155//1
f 159//1 153//1 157//1
f 156//1 160//1 158//1
f 159//1 161//1 153//1
f 162//1 161//1 159//1
f 156//1 163//1 160//1
f 164//1 163//1 156//1
f 165//1 163//1 164//1
f 166//1 161//1 162//1
f 165//1 167//1 163//1
f 168//1 167//1 165//1
f 166//1 169//1 161//1
f 170//1 169//1 166//1
f 168//1 171//1 167//1
f 172//1 171//1 168//1
f 173//1 169//1 170//1
f 172//1 174//1 171//1
f 173//1 175//1 169//1
f 176//1 175//1 173//1
f 172//1 177//1 174//1
f 178//1 177//1 172//1
f 179//1 175//1 176//1
f 178//1 180//1 177//1
f 179//1 181//1 175//1
f 182//1 180//1 178//1
f 182//1 183//1 180//1
f 184//1 181//1 179//1
f 185//1 181//1 184//1
f 186//1 181//1 185//1
f 186//1 187//1 181//1
f 188//1 187//1 186//1
f 189//1 183//1 182//1
f 190//1 187//1 188//1
f 190//1 191//1 187//1
f 192//1 183//1 189//1
f 193//1 191//1 190//1
f 193//1 194//1 191//1
f 195//1 194//1 193//1
f 196//1 183//1 192//1
f 195//1 197//1 194//1
f 198//1 197//1 195//1
f 198//1 199//1 197//1
f 200//1 183//1 196//1
f 201//1 199//1 198//1
f 201//1 202//1 199//1
f 203//1 202//1 201//1
f 203//1 204//1 202//1
f 205//1 183//1 200//1
f 203//1 206//1 204//1
f 207//1 206//1 203//1
f 207//1 208//1 206//1
f 207//1 209//1 208//1
f 207//1 210//1 209//1
f 207//1 211//1 210//1
f 212//1 183//1 205//1
f 207//1 213//1 211//1
f 214//1 213//1 207//1
f 214//1 215//1 213//1
f 214//1 216//1 215//1
f 214//1 217//1 216//1
f 214//1 218//1 217//1
f 214//1 219//1 218//1
f 214//1 220//1 219//1
f 214//1 221//1 220//1
f 222//2 183//2 212//2
