# Blender v2.81 (sub 16) OBJ File: ''
# www.blender.org
mtllib Z.mtl
o Z
v -0.006845 0.000000 -0.006471
v 0.000312 0.000000 -0.008212
v -0.006845 0.000000 -0.008212
v 0.007467 0.000000 -0.008212
v 0.007467 0.000000 -0.006544
v 0.007467 0.000000 -0.004889
v -0.006845 0.000000 -0.004728
v -0.002775 0.000000 -0.004703
v 0.001307 0.000000 -0.004666
v 0.002938 0.000000 -0.000174
v -0.003273 -0.000000 0.000088
v -0.001580 -0.000000 0.004542
v -0.007854 -0.000000 0.004853
v 0.003099 -0.000000 0.004604
v 0.007779 -0.000000 0.004667
v 0.007815 -0.000000 0.006446
v -0.007815 -0.000000 0.006495
v 0.007854 -0.000000 0.008212
v -0.007779 -0.000000 0.008150
v 0.000038 -0.000000 0.008188
vn 0.0000 1.0000 0.0000
usemtl SVGMat.083
s off
f 1//1 2//1 3//1
f 1//1 4//1 2//1
f 1//1 5//1 4//1
f 1//1 6//1 5//1
f 7//1 6//1 1//1
f 7//1 8//1 6//1
f 8//1 9//1 6//1
f 9//1 10//1 6//1
f 11//1 10//1 9//1
f 11//1 12//1 10//1
f 13//1 12//1 11//1
f 13//1 14//1 12//1
f 13//1 15//1 14//1
f 13//1 16//1 15//1
f 17//1 16//1 13//1
f 17//1 18//1 16//1
f 19//1 18//1 17//1
f 20//1 18//1 19//1
