# Blender v2.81 (sub 16) OBJ File: ''
# www.blender.org
mtllib Circle.mtl
o Circle
v -0.001828 0.000000 -0.013312
v 0.000883 0.000000 -0.013405
v -0.000004 0.000000 -0.013434
v 0.001762 0.000000 -0.013318
v 0.002630 0.000000 -0.013174
v -0.003577 0.000000 -0.012954
v 0.003484 0.000000 -0.012974
v 0.004321 0.000000 -0.012719
v -0.005236 0.000000 -0.012378
v 0.005139 0.000000 -0.012411
v 0.005936 0.000000 -0.012051
v -0.006788 0.000000 -0.011600
v 0.006708 0.000000 -0.011639
v 0.007453 0.000000 -0.011177
v -0.008218 0.000000 -0.010634
v 0.008168 0.000000 -0.010665
v 0.008852 0.000000 -0.010105
v -0.009509 0.000000 -0.009498
v 0.009500 0.000000 -0.009498
v 0.010107 0.000000 -0.008850
v -0.010645 0.000000 -0.008208
v 0.010667 0.000000 -0.008167
v -0.011610 0.000000 -0.006779
v 0.011179 0.000000 -0.007452
v 0.011641 0.000000 -0.006707
v -0.012389 0.000000 -0.005227
v 0.012053 0.000000 -0.005935
v 0.012414 0.000000 -0.005139
v -0.012965 0.000000 -0.003568
v 0.012722 0.000000 -0.004321
v 0.012976 0.000000 -0.003484
v -0.013323 0.000000 -0.001820
v 0.013176 0.000000 -0.002630
v 0.013320 0.000000 -0.001762
v -0.013445 -0.000000 0.000004
v 0.013408 0.000000 -0.000884
v 0.013437 -0.000000 0.000004
v -0.013323 -0.000000 0.001827
v 0.013314 -0.000000 0.001827
v -0.012965 -0.000000 0.003576
v 0.012957 -0.000000 0.003576
v -0.012389 -0.000000 0.005235
v 0.012381 -0.000000 0.005235
v -0.011610 -0.000000 0.006786
v 0.011602 -0.000000 0.006786
v -0.010645 -0.000000 0.008216
v 0.010636 -0.000000 0.008216
v -0.009509 -0.000000 0.009506
v 0.009500 -0.000000 0.009506
v -0.008218 -0.000000 0.010642
v 0.008209 -0.000000 0.010642
v -0.006788 -0.000000 0.011607
v 0.006780 -0.000000 0.011607
v -0.005236 -0.000000 0.012386
v 0.005228 -0.000000 0.012386
v -0.003577 -0.000000 0.012962
v 0.003569 -0.000000 0.012962
v -0.001828 -0.000000 0.013320
v 0.001820 -0.000000 0.013320
v -0.000004 -0.000000 0.013442
vn -0.0000 1.0000 0.0000
usemtl SVGMat.007
s 1
f 1//1 2//1 3//1
f 1//1 4//1 2//1
f 1//1 5//1 4//1
f 6//1 5//1 1//1
f 6//1 7//1 5//1
f 6//1 8//1 7//1
f 9//1 8//1 6//1
f 9//1 10//1 8//1
f 9//1 11//1 10//1
f 12//1 11//1 9//1
f 12//1 13//1 11//1
f 12//1 14//1 13//1
f 15//1 14//1 12//1
f 15//1 16//1 14//1
f 15//1 17//1 16//1
f 18//1 17//1 15//1
f 18//1 19//1 17//1
f 18//1 20//1 19//1
f 21//1 20//1 18//1
f 21//1 22//1 20//1
f 23//1 22//1 21//1
f 23//1 24//1 22//1
f 23//1 25//1 24//1
f 26//1 25//1 23//1
f 26//1 27//1 25//1
f 26//1 28//1 27//1
f 29//1 28//1 26//1
f 29//1 30//1 28//1
f 29//1 31//1 30//1
f 32//1 31//1 29//1
f 32//1 33//1 31//1
f 32//1 34//1 33//1
f 35//1 34//1 32//1
f 35//1 36//1 34//1
f 35//1 37//1 36//1
f 38//1 37//1 35//1
f 38//1 39//1 37//1
f 40//1 39//1 38//1
f 40//1 41//1 39//1
f 42//1 41//1 40//1
f 42//1 43//1 41//1
f 44//1 43//1 42//1
f 44//1 45//1 43//1
f 46//1 45//1 44//1
f 46//1 47//1 45//1
f 48//1 47//1 46//1
f 48//1 49//1 47//1
f 50//1 49//1 48//1
f 50//1 51//1 49//1
f 52//1 51//1 50//1
f 52//1 53//1 51//1
f 54//1 53//1 52//1
f 54//1 55//1 53//1
f 56//1 55//1 54//1
f 56//1 57//1 55//1
f 58//1 57//1 56//1
f 58//1 59//1 57//1
f 60//1 59//1 58//1
