# Blender v2.81 (sub 16) OBJ File: ''
# www.blender.org
mtllib Half_Circle.mtl
o Half_Circle
v -0.001822 0.000000 -0.006587
v 0.001822 0.000000 -0.006587
v 0.000000 0.000000 -0.006710
v -0.003570 0.000000 -0.006231
v 0.003570 0.000000 -0.006231
v -0.005227 0.000000 -0.005656
v 0.005227 0.000000 -0.005656
v -0.006778 0.000000 -0.004879
v 0.006778 0.000000 -0.004879
v -0.008207 0.000000 -0.003914
v 0.008207 0.000000 -0.003914
v -0.009497 0.000000 -0.002781
v 0.009498 0.000000 -0.002781
v -0.010634 0.000000 -0.001492
v 0.010634 0.000000 -0.001492
v -0.011600 0.000000 -0.000065
v 0.011600 0.000000 -0.000065
v -0.012379 -0.000000 0.001484
v 0.012379 -0.000000 0.001485
v -0.012957 -0.000000 0.003141
v 0.012957 -0.000000 0.003141
v -0.013316 -0.000000 0.004889
v 0.013316 -0.000000 0.004889
v -0.013441 -0.000000 0.006710
v 0.013441 -0.000000 0.006710
v -0.012912 -0.000000 0.006710
v -0.011450 -0.000000 0.006710
v -0.009241 -0.000000 0.006710
v -0.006472 -0.000000 0.006710
v -0.003329 -0.000000 0.006710
v 0.000000 -0.000000 0.006710
v 0.003329 -0.000000 0.006710
v 0.006472 -0.000000 0.006710
v 0.009241 -0.000000 0.006710
v 0.011450 -0.000000 0.006710
v 0.012912 -0.000000 0.006710
vn 0.0000 1.0000 0.0000
vn 0.0000 1.0000 -0.0001
vn 0.0000 0.0000 -1.0000
vn 0.0000 0.0000 1.0000
usemtl SVGMat.001
s 1
f 1//1 2//1 3//1
f 4//1 2//1 1//1
f 4//1 5//1 2//1
f 6//1 5//1 4//1
f 6//1 7//1 5//1
f 8//1 7//1 6//1
f 8//1 9//1 7//1
f 10//1 9//1 8//1
f 10//1 11//1 9//1
f 12//1 11//1 10//1
f 12//1 13//1 11//1
f 14//1 13//1 12//1
f 14//1 15//1 13//1
f 16//1 15//1 14//1
f 16//1 17//1 15//1
f 18//1 17//1 16//1
f 18//1 19//1 17//1
f 20//1 19//1 18//1
f 20//1 21//1 19//1
f 22//1 21//1 20//1
f 22//1 23//1 21//1
f 24//1 23//1 22//1
f 24//1 25//2 23//1
f 26//1 25//2 24//1
f 27//3 25//4 26//3
f 28//4 25//4 27//3
f 29//3 25//4 28//4
f 30//4 25//4 29//3
f 31//4 25//4 30//4
f 32//4 25//4 31//4
f 33//4 25//4 32//4
f 34//4 25//4 33//4
f 35//4 25//4 34//4
f 36//4 25//4 35//4
