# Blender v2.81 (sub 16) OBJ File: ''
# www.blender.org
mtllib Heart.mtl
o Heart
v 0.003850 0.000000 -0.012279
v 0.008587 0.000000 -0.013150
v 0.006222 0.000000 -0.013228
v -0.008587 0.000000 -0.013150
v -0.003850 0.000000 -0.012279
v -0.006222 0.000000 -0.013228
v 0.010720 0.000000 -0.012140
v -0.010720 0.000000 -0.012140
v 0.001701 0.000000 -0.010211
v -0.001701 0.000000 -0.010211
v 0.012391 0.000000 -0.010289
v -0.012391 0.000000 -0.010289
v 0.013374 0.000000 -0.007691
v -0.013374 0.000000 -0.007691
v 0.000000 0.000000 -0.006929
v 0.013441 0.000000 -0.004440
v -0.013441 0.000000 -0.004440
v 0.012365 0.000000 -0.000630
v -0.012365 0.000000 -0.000630
v -0.009917 -0.000000 0.003647
v 0.009917 -0.000000 0.003647
v -0.005872 -0.000000 0.008298
v 0.005872 -0.000000 0.008298
v 0.000000 -0.000000 0.013228
vn 0.0000 1.0000 0.0000
usemtl SVGMat.012
s 1
f 1//1 2//1 3//1
f 4//1 5//1 6//1
f 1//1 7//1 2//1
f 8//1 5//1 4//1
f 9//1 7//1 1//1
f 8//1 10//1 5//1
f 9//1 11//1 7//1
f 12//1 10//1 8//1
f 9//1 13//1 11//1
f 14//1 10//1 12//1
f 15//1 13//1 9//1
f 14//1 15//1 10//1
f 15//1 16//1 13//1
f 17//1 15//1 14//1
f 17//1 16//1 15//1
f 17//1 18//1 16//1
f 19//1 18//1 17//1
f 20//1 18//1 19//1
f 20//1 21//1 18//1
f 22//1 21//1 20//1
f 22//1 23//1 21//1
f 24//1 23//1 22//1
