# Blender v2.81 (sub 16) OBJ File: ''
# www.blender.org
mtllib 1.mtl
o Curve.002
v 0.001865 0.000000 -0.008329
v 0.003208 0.000000 -0.008324
v 0.001869 0.000000 -0.008336
v 0.001856 0.000000 -0.008310
v 0.004541 0.000000 -0.008305
v 0.001842 0.000000 -0.008281
v 0.004559 -0.000000 0.000012
v 0.001824 0.000000 -0.008244
v 0.001804 0.000000 -0.008203
v 0.001782 0.000000 -0.008159
v 0.001761 0.000000 -0.008115
v 0.001740 0.000000 -0.008074
v 0.001722 0.000000 -0.008038
v 0.001708 0.000000 -0.008009
v 0.001699 0.000000 -0.007989
v 0.001695 0.000000 -0.007982
v 0.001591 0.000000 -0.007781
v 0.001478 0.000000 -0.007590
v 0.001356 0.000000 -0.007410
v 0.001224 0.000000 -0.007239
v 0.001081 0.000000 -0.007077
v 0.000926 0.000000 -0.006923
v 0.000759 0.000000 -0.006777
v 0.000578 0.000000 -0.006638
v 0.000384 0.000000 -0.006504
v 0.000174 0.000000 -0.006375
v -0.000052 0.000000 -0.006251
v -0.000294 0.000000 -0.006129
v -0.000527 0.000000 -0.006025
v -0.000767 0.000000 -0.005929
v -0.001016 0.000000 -0.005842
v -0.001275 0.000000 -0.005761
v -0.001545 0.000000 -0.005689
v -0.001828 0.000000 -0.005623
v -0.002124 0.000000 -0.005566
v -0.002436 0.000000 -0.005514
v -0.002764 0.000000 -0.005470
v 0.000400 0.000000 -0.003192
v -0.003110 0.000000 -0.005432
v -0.003474 0.000000 -0.005399
v -0.003859 0.000000 -0.005373
v -0.003873 0.000000 -0.005372
v -0.003911 0.000000 -0.005370
v -0.003970 0.000000 -0.005366
v -0.004043 0.000000 -0.005362
v -0.004127 0.000000 -0.005357
v -0.004215 0.000000 -0.005351
v -0.004303 0.000000 -0.005346
v -0.004387 0.000000 -0.005341
v -0.004460 0.000000 -0.005337
v -0.004519 0.000000 -0.005333
v -0.004558 0.000000 -0.005331
v -0.004572 0.000000 -0.005330
v -0.004572 0.000000 -0.004307
v -0.004572 0.000000 -0.003285
v -0.004293 0.000000 -0.003242
v -0.004235 0.000000 -0.003237
v -0.004139 0.000000 -0.003232
v -0.004010 0.000000 -0.003227
v -0.003849 0.000000 -0.003222
v -0.003661 0.000000 -0.003217
v -0.003447 0.000000 -0.003213
v -0.003212 0.000000 -0.003209
v -0.002957 0.000000 -0.003205
v -0.002686 0.000000 -0.003202
v -0.002402 0.000000 -0.003200
v -0.002108 0.000000 -0.003199
v -0.001807 0.000000 -0.003198
v -0.001764 0.000000 -0.003198
v -0.001644 0.000000 -0.003198
v -0.001235 0.000000 -0.003196
v -0.001462 0.000000 -0.003197
v -0.000977 0.000000 -0.003196
v -0.000704 0.000000 -0.003195
v -0.000430 0.000000 -0.003194
v -0.000172 0.000000 -0.003193
v 0.000055 0.000000 -0.003193
v 0.000237 0.000000 -0.003192
v 0.000357 0.000000 -0.003192
v 0.000443 0.000000 -0.002963
v 0.000448 0.000000 -0.002880
v 0.000452 0.000000 -0.002703
v 0.000457 0.000000 -0.002437
v 0.000461 0.000000 -0.002090
v 0.000465 0.000000 -0.001670
v 0.000469 0.000000 -0.001182
v 0.000472 0.000000 -0.000634
v 0.000475 0.000000 -0.000033
v 0.000477 -0.000000 0.000614
v 0.004572 -0.000000 0.008336
v 0.000479 -0.000000 0.001301
v 0.000480 -0.000000 0.002020
v 0.000481 -0.000000 0.002764
v 0.000481 -0.000000 0.002872
v 0.000481 -0.000000 0.003171
v 0.000481 -0.000000 0.003622
v 0.000481 -0.000000 0.004188
v 0.000481 -0.000000 0.004829
v 0.000481 -0.000000 0.005510
v 0.000481 -0.000000 0.006190
v 0.000481 -0.000000 0.006832
v 0.000481 -0.000000 0.007397
v 0.000481 -0.000000 0.007848
v 0.000481 -0.000000 0.008147
v 0.000481 -0.000000 0.008255
v 0.000672 -0.000000 0.008299
v 0.000716 -0.000000 0.008303
v 0.000790 -0.000000 0.008308
v 0.000894 -0.000000 0.008312
v 0.001024 -0.000000 0.008317
v 0.001178 -0.000000 0.008321
v 0.001354 -0.000000 0.008324
v 0.001549 -0.000000 0.008328
v 0.001759 -0.000000 0.008331
v 0.001984 -0.000000 0.008333
v 0.002221 -0.000000 0.008335
v 0.002467 -0.000000 0.008336
v 0.002718 -0.000000 0.008336
v 0.002755 -0.000000 0.008336
v 0.002856 -0.000000 0.008336
v 0.003008 -0.000000 0.008336
v 0.003199 -0.000000 0.008336
v 0.003415 -0.000000 0.008336
v 0.003645 -0.000000 0.008336
v 0.003875 -0.000000 0.008336
v 0.004091 -0.000000 0.008336
v 0.004282 -0.000000 0.008336
v 0.004434 -0.000000 0.008336
v 0.004535 -0.000000 0.008336
vn -0.0000 1.0000 0.0000
vn -0.0000 1.0000 0.0003
vn 0.0000 0.0000 1.0000
vn 0.0000 -1.0000 0.0000
usemtl SVGMat.021
s 1
f 1//1 2//1 3//1
f 4//1 2//1 1//1
f 4//1 5//1 2//1
f 6//1 5//1 4//1
f 6//1 7//1 5//1
f 8//1 7//1 6//1
f 9//1 7//1 8//1
f 10//1 7//1 9//1
f 11//1 7//1 10//1
f 12//1 7//1 11//1
f 13//1 7//1 12//1
f 14//1 7//1 13//1
f 15//1 7//1 14//1
f 16//1 7//1 15//1
f 17//1 7//1 16//1
f 18//1 7//1 17//1
f 19//1 7//1 18//1
f 20//1 7//1 19//1
f 21//1 7//1 20//1
f 22//1 7//1 21//1
f 23//1 7//1 22//1
f 24//1 7//1 23//1
f 25//1 7//1 24//1
f 26//1 7//1 25//1
f 27//1 7//1 26//1
f 28//1 7//1 27//1
f 29//1 7//1 28//1
f 30//1 7//1 29//1
f 31//1 7//1 30//1
f 32//1 7//1 31//1
f 33//1 7//1 32//1
f 34//1 7//1 33//1
f 35//1 7//1 34//1
f 36//1 7//1 35//1
f 37//1 38//1 36//1
f 38//1 7//1 36//1
f 39//1 38//1 37//1
f 40//1 38//1 39//1
f 41//1 38//1 40//1
f 42//1 38//1 41//1
f 43//1 38//1 42//1
f 44//1 38//1 43//1
f 45//1 38//1 44//1
f 46//1 38//1 45//1
f 47//1 38//1 46//1
f 48//1 38//1 47//1
f 49//1 38//1 48//1
f 50//1 38//1 49//1
f 51//1 38//1 50//1
f 52//1 38//1 51//1
f 53//1 38//1 52//1
f 54//1 38//1 53//1
f 55//1 38//1 54//1
f 56//1 38//1 55//1
f 57//1 38//1 56//1
f 58//1 38//1 57//1
f 59//1 38//1 58//1
f 60//1 38//1 59//1
f 61//1 38//1 60//1
f 62//1 38//1 61//1
f 63//1 38//1 62//1
f 64//1 38//1 63//1
f 65//1 38//1 64//1
f 66//1 38//1 65//1
f 67//1 68//2 66//1
f 68//2 38//1 66//1
f 69//1 38//1 68//2
f 70//1 71//1 69//1
f 71//1 38//1 69//1
f 72//1 71//1 70//1
f 73//2 38//1 71//1
f 74//1 38//1 73//2
f 75//1 38//1 74//1
f 76//1 38//1 75//1
f 77//2 38//1 76//1
f 78//1 38//1 77//2
f 79//1 38//1 78//1
f 80//1 7//1 38//1
f 81//1 7//1 80//1
f 82//1 7//1 81//1
f 83//1 7//1 82//1
f 84//1 7//1 83//1
f 85//1 7//1 84//1
f 86//1 7//1 85//1
f 87//1 7//1 86//1
f 88//1 7//1 87//1
f 89//1 7//1 88//1
f 89//1 90//1 7//1
f 91//1 90//1 89//1
f 92//1 90//1 91//1
f 93//1 90//1 92//1
f 94//1 90//1 93//1
f 95//1 90//1 94//1
f 96//1 90//1 95//1
f 97//1 90//1 96//1
f 98//1 90//1 97//1
f 99//1 90//1 98//1
f 100//1 90//1 99//1
f 101//1 90//1 100//1
f 102//1 90//1 101//1
f 103//1 90//1 102//1
f 104//1 90//1 103//1
f 105//1 90//1 104//1
f 106//1 90//1 105//1
f 107//1 90//1 106//1
f 108//1 90//1 107//1
f 109//1 90//1 108//1
f 110//1 90//1 109//1
f 111//1 90//1 110//1
f 112//1 90//1 111//1
f 113//1 90//1 112//1
f 114//1 90//1 113//1
f 115//1 90//1 114//1
f 116//1 90//1 115//1
f 117//1 90//1 116//1
f 118//1 90//1 117//1
f 119//3 90//4 118//3
f 120//3 90//4 119//3
f 121//3 90//4 120//3
f 122//3 90//4 121//3
f 123//3 90//4 122//3
f 124//3 90//4 123//3
f 125//3 90//4 124//3
f 126//3 90//4 125//3
f 127//3 90//4 126//3
f 128//3 90//4 127//3
f 129//3 90//3 128//3
