<?xml version="1.0" standalone="no"?>
<!DOCTYPE svg PUBLIC "-//W3C//DTD SVG 20010904//EN"
 "http://www.w3.org/TR/2001/REC-SVG-20010904/DTD/svg10.dtd">
<svg version="1.0" xmlns="http://www.w3.org/2000/svg"
 width="1280.000000pt" height="911.000000pt" viewBox="0 0 1280.000000 911.000000"
 preserveAspectRatio="xMidYMid meet">
<metadata>
Created by potrace 1.15, written by Peter Selinger 2001-2017
</metadata>
<g transform="translate(0.000000,911.000000) scale(0.100000,-0.100000)"
fill="#000000" stroke="none">
<path d="M4525 8699 c-221 -21 -393 -128 -485 -300 -88 -165 -104 -466 -36
-655 73 -200 216 -332 412 -381 88 -21 343 -24 424 -4 156 38 279 138 349 283
35 73 61 158 49 158 -3 0 -78 22 -169 50 -90 27 -168 50 -174 50 -5 0 -18 -27
-27 -59 -35 -118 -111 -182 -224 -189 -156 -10 -239 70 -265 254 -13 93 -6
238 15 309 52 174 267 241 399 124 25 -21 52 -57 61 -79 9 -23 23 -40 32 -40
21 0 337 69 342 75 10 10 -53 139 -93 194 -77 104 -172 165 -305 195 -85 18
-206 25 -305 15z"/>
<path d="M11890 8700 c-291 -28 -489 -189 -562 -457 -31 -114 -31 -327 0 -436
50 -177 163 -326 295 -390 113 -55 195 -70 377 -71 263 -1 375 34 628 195 l22
14 -2 280 -3 280 -312 3 -313 2 0 -140 0 -140 135 0 136 0 -3 -62 -3 -63 -65
-32 c-162 -79 -338 -62 -426 41 -92 108 -110 387 -33 543 47 98 126 143 248
143 95 0 160 -32 197 -97 15 -26 28 -49 29 -51 2 -3 387 67 392 72 7 7 -44
124 -75 168 -67 98 -160 157 -289 182 -86 17 -275 25 -373 16z"/>
<path d="M552 8438 c-50 -134 -161 -429 -246 -657 -86 -227 -156 -415 -156
-417 0 -2 94 -4 208 -4 l209 0 12 43 c7 23 22 72 33 110 l20 67 231 -2 231 -3
34 -108 33 -107 212 2 c134 2 211 7 210 13 -2 14 -481 1284 -488 1295 -4 6
-97 10 -229 10 l-223 0 -91 -242z m388 -347 l67 -221 -143 0 -143 0 9 28 c5
15 34 110 65 212 69 229 64 214 71 207 3 -3 36 -105 74 -226z"/>
<path d="M2180 8019 l0 -661 413 5 c526 6 583 15 688 114 61 57 95 120 107
199 18 111 -11 220 -76 288 -36 37 -141 96 -172 96 -8 0 5 12 30 26 59 33 107
79 133 129 18 33 22 56 22 140 0 85 -3 106 -22 140 -45 81 -109 134 -200 164
-59 20 -83 21 -493 21 l-430 0 0 -661z m721 353 c23 -26 29 -41 29 -80 0 -97
-45 -122 -220 -122 l-120 0 0 121 0 121 141 -4 141 -3 29 -33z m8 -478 c52
-20 71 -51 71 -113 0 -39 -6 -56 -26 -80 -35 -42 -77 -51 -231 -51 l-133 0 0
130 0 130 140 0 c104 0 150 -4 179 -16z"/>
<path d="M5852 8023 l3 -658 350 0 c380 0 447 7 562 60 108 49 225 188 263
313 42 137 45 384 5 537 -38 149 -146 291 -265 348 -104 51 -162 57 -558 57
l-362 0 2 -657z m672 328 c62 -31 100 -89 117 -180 16 -90 7 -323 -14 -371
-22 -49 -54 -88 -89 -106 -35 -18 -197 -36 -245 -28 l-33 6 0 355 0 355 108
-4 c87 -3 116 -8 156 -27z"/>
<path d="M7910 8020 l0 -660 555 0 555 0 0 150 0 150 -334 0 c-184 0 -341 3
-350 6 -13 5 -16 26 -16 130 l0 124 315 0 315 0 0 135 0 135 -315 0 -315 0 0
105 0 105 340 0 340 0 0 140 0 140 -545 0 -545 0 0 -660z"/>
<path d="M9752 8023 l3 -658 205 0 205 0 3 268 2 267 255 0 255 0 0 135 0 135
-255 0 -255 0 0 115 0 115 300 0 300 0 0 140 0 140 -510 0 -510 0 2 -657z"/>
<path d="M5312 5768 l3 -663 203 -3 202 -2 0 162 1 163 104 110 c57 60 106
108 108 105 3 -3 66 -125 142 -272 l137 -268 249 0 c137 0 249 2 249 5 0 4
-443 733 -487 801 -12 19 2 36 222 265 129 134 235 247 235 252 0 4 -120 6
-267 5 l-267 -3 -211 -245 -210 -245 -3 248 -2 247 -205 0 -205 0 2 -662z"/>
<path d="M220 5760 l0 -660 205 0 205 0 0 265 0 265 220 0 220 0 0 -265 0
-265 210 0 210 0 -2 658 -3 657 -205 0 -205 0 -3 -227 -2 -228 -220 0 -220 0
0 230 0 230 -205 0 -205 0 0 -660z"/>
<path d="M2287 6413 c-4 -3 -7 -300 -7 -659 l0 -652 23 -6 c12 -3 104 -6 205
-6 l182 0 0 665 0 665 -198 0 c-109 0 -202 -3 -205 -7z"/>
<path d="M8910 5760 l0 -660 23 -5 c12 -3 87 -4 167 -3 l145 3 5 479 5 479
120 -468 c65 -257 125 -474 133 -482 11 -10 45 -13 155 -11 l142 3 125 488
125 488 3 -485 2 -485 33 -6 c17 -3 93 -5 167 -3 l135 3 0 660 0 660 -267 3
-266 2 -16 -52 c-8 -29 -54 -208 -102 -397 -61 -237 -90 -338 -96 -325 -4 10
-49 179 -99 374 -50 195 -95 365 -100 377 l-9 23 -265 0 -265 0 0 -660z"/>
<path d="M11327 6414 c-4 -4 -7 -301 -7 -660 l0 -653 33 -6 c17 -3 104 -5 192
-3 l160 3 5 354 c4 262 8 350 16 340 6 -8 114 -165 239 -349 126 -184 233
-338 239 -342 6 -5 94 -7 196 -5 l185 2 0 660 0 660 -190 0 -190 0 -5 -360 -5
-359 -245 359 -245 360 -186 3 c-102 1 -188 -1 -192 -4z"/>
<path d="M7270 5750 l0 -660 525 0 525 0 0 160 0 160 -304 0 c-167 0 -311 3
-320 6 -14 5 -16 59 -16 500 l0 494 -205 0 -205 0 0 -660z"/>
<path d="M4157 5948 c-2 -313 -7 -464 -16 -490 -36 -112 -182 -119 -227 -12
-8 19 -14 50 -14 71 0 68 4 67 -205 39 -103 -14 -189 -27 -191 -29 -7 -7 18
-130 36 -180 74 -198 229 -287 501 -287 109 0 188 15 264 49 78 36 167 118
200 184 53 109 57 154 62 650 l5 457 -205 0 -205 0 -5 -452z"/>
<path d="M4745 4179 c-280 -33 -477 -201 -541 -464 -25 -98 -25 -336 -1 -425
31 -118 83 -208 166 -290 91 -90 174 -134 306 -161 149 -31 381 -19 486 25 33
14 35 13 80 -20 75 -55 221 -144 236 -144 12 0 113 194 113 217 0 4 -28 23
-63 41 -34 19 -75 44 -91 57 l-29 23 20 28 c37 53 74 135 95 212 17 62 21 106
21 227 0 171 -18 260 -75 368 -45 86 -155 194 -240 235 -130 63 -314 90 -483
71z m240 -333 c28 -13 60 -34 72 -47 57 -62 90 -206 79 -349 -5 -84 -29 -184
-45 -194 -4 -3 -38 15 -75 40 -137 92 -164 94 -199 17 -14 -32 -27 -64 -29
-71 -2 -6 28 -29 66 -50 93 -51 95 -62 9 -62 -129 0 -212 63 -250 189 -25 81
-25 297 0 368 44 124 124 183 252 183 53 0 82 -6 120 -24z"/>
<path d="M823 4150 c-260 -38 -451 -204 -513 -445 -27 -106 -35 -241 -21 -350
36 -268 183 -453 416 -524 135 -42 386 -44 515 -6 293 88 444 335 427 700 -7
138 -23 212 -72 310 -85 174 -250 284 -468 314 -87 12 -205 12 -284 1z m265
-329 c54 -28 106 -89 128 -152 26 -73 26 -298 1 -380 -34 -112 -104 -171 -220
-185 -131 -15 -245 59 -282 187 -27 87 -27 278 -1 366 28 95 93 161 181 184
47 13 150 2 193 -20z"/>
<path d="M8835 4141 c-185 -31 -302 -107 -363 -239 -22 -46 -26 -72 -27 -137
0 -71 4 -88 33 -147 64 -131 197 -206 489 -277 119 -29 179 -58 203 -96 30
-48 26 -97 -10 -139 -39 -44 -85 -59 -163 -54 -113 8 -171 55 -203 167 l-16
53 -77 -6 c-42 -3 -127 -9 -189 -12 -62 -4 -114 -10 -116 -13 -8 -15 26 -141
54 -197 64 -131 172 -209 333 -239 102 -19 330 -19 422 0 159 33 284 128 348
262 29 62 32 76 32 168 0 87 -4 107 -26 155 -68 145 -171 206 -486 286 -95 24
-187 51 -203 59 -63 32 -62 100 0 143 45 30 136 31 197 1 36 -17 48 -31 74
-85 23 -49 35 -64 47 -60 9 2 87 7 172 11 85 3 162 8 171 11 39 11 -29 192
-100 263 -47 47 -113 83 -197 106 -67 19 -319 29 -399 16z"/>
<path d="M2370 3480 l0 -660 210 0 210 0 0 245 0 245 163 0 c184 0 258 13 349
62 144 77 217 245 189 434 -21 143 -83 236 -192 286 -93 44 -137 48 -544 48
l-385 0 0 -660z m624 379 c49 -14 81 -46 97 -97 10 -35 9 -48 -5 -86 -27 -70
-67 -90 -193 -94 l-103 -4 0 146 0 146 83 0 c45 0 99 -5 121 -11z"/>
<path d="M6370 3480 l0 -660 205 0 205 0 2 268 3 267 44 -3 c53 -3 93 -23 119
-59 11 -16 73 -126 138 -246 64 -121 122 -221 128 -223 7 -2 111 -3 233 -2
l222 3 -110 211 c-119 229 -177 307 -256 348 l-45 22 44 13 c96 28 189 108
231 199 32 68 32 246 1 313 -30 64 -88 126 -148 156 -90 46 -166 52 -608 53
l-408 0 0 -660z m709 374 c74 -29 94 -134 37 -193 -35 -36 -102 -51 -232 -51
l-104 0 0 130 0 130 130 0 c95 0 140 -4 169 -16z"/>
<path d="M10700 3965 l0 -165 210 0 210 0 0 -495 0 -495 205 0 205 0 0 495 0
495 205 0 205 0 0 165 0 165 -620 0 -620 0 0 -165z"/>
<path d="M4150 1858 c0 -7 65 -303 144 -658 l143 -645 201 -3 201 -2 14 47 c8
27 59 209 113 405 61 221 102 352 106 343 5 -8 57 -188 117 -402 l109 -388
200 -3 c185 -2 201 -1 206 15 6 20 212 958 252 1143 13 63 26 125 29 138 l5
22 -193 0 -193 0 -37 -197 c-21 -109 -52 -271 -69 -361 -17 -90 -32 -161 -35
-159 -2 3 -48 164 -102 358 l-97 354 -195 3 -194 2 -79 -287 c-44 -159 -89
-322 -101 -363 -22 -74 -23 -74 -30 -40 -4 19 -35 181 -68 360 l-62 325 -193
3 c-150 2 -192 0 -192 -10z"/>
<path d="M183 1418 c3 -387 6 -451 22 -508 27 -99 71 -178 134 -241 106 -106
203 -137 446 -146 181 -6 287 8 382 52 74 33 190 151 226 227 54 114 57 146
57 621 l0 437 -205 0 -205 0 0 -437 c0 -404 -2 -441 -19 -478 -36 -78 -102
-115 -203 -115 -72 0 -129 23 -170 66 -52 56 -52 58 -56 527 l-3 437 -205 0
-206 0 5 -442z"/>
<path d="M2229 1783 c27 -75 72 -195 344 -913 l123 -325 221 -3 221 -2 10 27
c5 16 112 301 236 636 124 334 228 618 232 632 l6 25 -205 0 -206 0 -25 -82
c-173 -565 -262 -846 -267 -840 -6 6 -289 905 -289 917 0 3 -97 5 -215 5
l-215 0 29 -77z"/>
<path d="M9050 1856 c0 -2 115 -175 255 -384 l255 -380 0 -276 0 -276 205 0
205 0 0 276 0 276 245 365 c135 201 250 374 256 384 9 18 2 19 -215 19 l-225
0 -132 -220 c-73 -121 -134 -218 -137 -215 -3 3 -62 100 -132 217 l-127 213
-227 3 c-124 1 -226 0 -226 -2z"/>
<path d="M11090 1720 l0 -140 327 -2 328 -3 -368 -382 -368 -383 3 -132 3
-133 628 -3 628 -2 -3 142 -3 143 -376 5 -376 5 363 379 364 379 0 133 0 134
-575 0 -575 0 0 -140z"/>
<path d="M6910 1841 c0 -5 90 -147 200 -315 110 -168 200 -308 200 -311 0 -3
-101 -158 -225 -345 l-224 -340 229 0 228 0 125 202 c69 112 129 203 134 203
4 0 64 -91 132 -203 l124 -202 229 0 c181 0 228 3 222 13 -5 6 -104 158 -221
336 -118 179 -212 329 -210 335 3 6 91 145 197 310 105 164 194 305 197 312 4
12 -32 14 -215 14 l-221 0 -112 -201 c-61 -110 -115 -197 -120 -192 -5 5 -57
94 -117 198 l-110 190 -221 3 c-136 1 -221 -1 -221 -7z"/>
</g>
</svg>
