# Blender v2.81 (sub 16) OBJ File: ''
# www.blender.org
mtllib 2.mtl
o Curve.001_Curve.011
v -0.000902 0.000000 -0.008312
v -0.000208 0.000000 -0.008312
v -0.000567 0.000000 -0.008314
v 0.000163 0.000000 -0.008305
v -0.001202 0.000000 -0.008304
v 0.000534 0.000000 -0.008293
v -0.001455 0.000000 -0.008291
v 0.000893 0.000000 -0.008278
v -0.001648 0.000000 -0.008272
v 0.001228 0.000000 -0.008259
v -0.002163 0.000000 -0.008188
v 0.001527 0.000000 -0.008236
v 0.001779 0.000000 -0.008210
v 0.001970 0.000000 -0.008182
v -0.002654 0.000000 -0.008081
v 0.002547 0.000000 -0.008055
v -0.003118 0.000000 -0.007950
v 0.003096 0.000000 -0.007898
v -0.003558 0.000000 -0.007797
v 0.003616 0.000000 -0.007709
v -0.003973 0.000000 -0.007621
v 0.004104 0.000000 -0.007490
v -0.004361 0.000000 -0.007421
v 0.004560 0.000000 -0.007243
v -0.004723 0.000000 -0.007199
v 0.004981 0.000000 -0.006969
v -0.005060 0.000000 -0.006955
v 0.005365 0.000000 -0.006670
v -0.005370 0.000000 -0.006687
v -0.005655 0.000000 -0.006397
v 0.005712 0.000000 -0.006346
v -0.005912 0.000000 -0.006085
v 0.006018 0.000000 -0.005999
v -0.006143 0.000000 -0.005749
v -0.000088 0.000000 -0.005770
v 0.006282 0.000000 -0.005630
v -0.000417 0.000000 -0.005753
v 0.000242 0.000000 -0.005762
v 0.000571 0.000000 -0.005725
v -0.000740 0.000000 -0.005709
v -0.006252 0.000000 -0.005560
v 0.000892 0.000000 -0.005662
v -0.001052 0.000000 -0.005639
v 0.001202 0.000000 -0.005571
v -0.001348 0.000000 -0.005545
v 0.006502 0.000000 -0.005240
v 0.001496 0.000000 -0.005451
v -0.006355 0.000000 -0.005352
v -0.001624 0.000000 -0.005424
v 0.001640 0.000000 -0.005378
v -0.001876 0.000000 -0.005280
v 0.001777 0.000000 -0.005298
v -0.006451 0.000000 -0.005128
v 0.001908 0.000000 -0.005211
v -0.002098 0.000000 -0.005111
v 0.006678 0.000000 -0.004831
v 0.002033 0.000000 -0.005119
v -0.006539 0.000000 -0.004891
v 0.002150 0.000000 -0.005022
v -0.002232 0.000000 -0.004985
v 0.002260 0.000000 -0.004920
v -0.002354 0.000000 -0.004853
v 0.002362 0.000000 -0.004814
v -0.006617 0.000000 -0.004644
v -0.002463 0.000000 -0.004714
v 0.006778 0.000000 -0.004521
v 0.002456 0.000000 -0.004703
v -0.002562 0.000000 -0.004568
v 0.002541 0.000000 -0.004588
v -0.006687 0.000000 -0.004389
v 0.002616 0.000000 -0.004471
v -0.002649 0.000000 -0.004414
v 0.006855 0.000000 -0.004199
v 0.002681 0.000000 -0.004351
v -0.002725 0.000000 -0.004251
v -0.006746 0.000000 -0.004130
v 0.002737 0.000000 -0.004229
v -0.002790 0.000000 -0.004078
v 0.002766 0.000000 -0.004152
v 0.006911 0.000000 -0.003868
v 0.002792 0.000000 -0.004080
v -0.006795 0.000000 -0.003869
v 0.002813 0.000000 -0.004010
v -0.002845 0.000000 -0.003894
v 0.002831 0.000000 -0.003939
v 0.002846 0.000000 -0.003866
v -0.002890 0.000000 -0.003700
v -0.006832 0.000000 -0.003609
v 0.006944 0.000000 -0.003531
v 0.002858 0.000000 -0.003786
v 0.002867 0.000000 -0.003698
v -0.002926 0.000000 -0.003494
v 0.002873 0.000000 -0.003599
v -0.006857 0.000000 -0.003352
v 0.002878 0.000000 -0.003486
v 0.006956 0.000000 -0.003192
v -0.002951 0.000000 -0.003275
v 0.002881 0.000000 -0.003356
v 0.002882 0.000000 -0.003208
v -0.006868 0.000000 -0.003102
v -0.002968 0.000000 -0.003044
v 0.002883 0.000000 -0.003037
v 0.006947 0.000000 -0.002854
v -0.006867 0.000000 -0.002861
v -0.002973 0.000000 -0.002955
v 0.002883 0.000000 -0.003021
v 0.002883 0.000000 -0.002977
v 0.002883 0.000000 -0.002909
v -0.002980 0.000000 -0.002870
v 0.002883 0.000000 -0.002825
v -0.002987 0.000000 -0.002789
v -0.006866 0.000000 -0.002852
v 0.006917 0.000000 -0.002521
v -0.006865 0.000000 -0.002827
v -0.006864 0.000000 -0.002790
v 0.002883 0.000000 -0.002728
v -0.006862 0.000000 -0.002743
v -0.002995 0.000000 -0.002713
v -0.006860 0.000000 -0.002689
v 0.002883 0.000000 -0.002627
v -0.003003 0.000000 -0.002642
v -0.006857 0.000000 -0.002633
v -0.003013 0.000000 -0.002577
v -0.006855 0.000000 -0.002576
v 0.002883 0.000000 -0.002525
v -0.003023 0.000000 -0.002520
v -0.006853 0.000000 -0.002523
v 0.002883 0.000000 -0.002429
v -0.006851 0.000000 -0.002476
v 0.006866 0.000000 -0.002195
v -0.003032 0.000000 -0.002470
v -0.006849 0.000000 -0.002439
v -0.003043 0.000000 -0.002429
v -0.006848 0.000000 -0.002414
v 0.002883 0.000000 -0.002345
v -0.003052 0.000000 -0.002397
v -0.006848 0.000000 -0.002405
v -0.006544 0.000000 -0.002362
v -0.003062 0.000000 -0.002374
v -0.003071 0.000000 -0.002362
v -0.006389 0.000000 -0.002350
v -0.003150 0.000000 -0.002350
v -0.006147 0.000000 -0.002339
v -0.003329 0.000000 -0.002339
v 0.002883 0.000000 -0.002277
v -0.005836 0.000000 -0.002332
v -0.003591 0.000000 -0.002332
v -0.005476 0.000000 -0.002326
v -0.003916 0.000000 -0.002326
v -0.005085 0.000000 -0.002322
v -0.004286 0.000000 -0.002322
v -0.004682 0.000000 -0.002321
v 0.002883 0.000000 -0.002232
v 0.002883 0.000000 -0.002216
v 0.002652 0.000000 -0.001754
v 0.006794 0.000000 -0.001880
v 0.006702 0.000000 -0.001580
v 0.002520 0.000000 -0.001513
v 0.006590 0.000000 -0.001298
v 0.002363 0.000000 -0.001278
v 0.006459 0.000000 -0.001037
v 0.002174 0.000000 -0.001045
v 0.001947 0.000000 -0.000808
v 0.006341 0.000000 -0.000846
v 0.006207 0.000000 -0.000653
v 0.001674 0.000000 -0.000561
v 0.006056 0.000000 -0.000458
v 0.001349 0.000000 -0.000302
v 0.005889 0.000000 -0.000263
v 0.000966 0.000000 -0.000022
v 0.005706 0.000000 -0.000066
v 0.005507 -0.000000 0.000131
v 0.000516 -0.000000 0.000281
v 0.005292 -0.000000 0.000330
v -0.000005 -0.000000 0.000613
v 0.005062 -0.000000 0.000528
v 0.004817 -0.000000 0.000727
v -0.000607 -0.000000 0.000981
v 0.004556 -0.000000 0.000926
v 0.004280 -0.000000 0.001124
v -0.001294 -0.000000 0.001388
v 0.003990 -0.000000 0.001322
v 0.003891 -0.000000 0.001388
v -0.002074 -0.000000 0.001839
v 0.003768 -0.000000 0.001469
v 0.003622 -0.000000 0.001561
v 0.003457 -0.000000 0.001665
v 0.003275 -0.000000 0.001779
v 0.003079 -0.000000 0.001901
v -0.002464 -0.000000 0.002065
v 0.002872 -0.000000 0.002029
v 0.002656 -0.000000 0.002161
v -0.002815 -0.000000 0.002269
v 0.002433 -0.000000 0.002296
v -0.003129 -0.000000 0.002456
v 0.002208 -0.000000 0.002433
v 0.001982 -0.000000 0.002569
v -0.003411 -0.000000 0.002626
v 0.001758 -0.000000 0.002703
v -0.003664 -0.000000 0.002783
v 0.001334 -0.000000 0.002955
v -0.003894 -0.000000 0.002930
v -0.004103 -0.000000 0.003069
v 0.000965 -0.000000 0.003175
v -0.004297 -0.000000 0.003203
v 0.000645 -0.000000 0.003369
v -0.004479 -0.000000 0.003335
v -0.004653 -0.000000 0.003467
v 0.000368 -0.000000 0.003537
v -0.004823 -0.000000 0.003602
v 0.000129 -0.000000 0.003686
v -0.004993 -0.000000 0.003743
v -0.000079 -0.000000 0.003818
v -0.005292 -0.000000 0.004007
v -0.000261 -0.000000 0.003937
v -0.000423 -0.000000 0.004047
v -0.005566 -0.000000 0.004279
v -0.000570 -0.000000 0.004152
v -0.000710 -0.000000 0.004255
v -0.000846 -0.000000 0.004361
v -0.005814 -0.000000 0.004559
v -0.000985 -0.000000 0.004472
v -0.001090 -0.000000 0.004559
v -0.006039 -0.000000 0.004849
v -0.001195 -0.000000 0.004654
v -0.001298 -0.000000 0.004753
v -0.001398 -0.000000 0.004856
v -0.006241 -0.000000 0.005150
v -0.001492 -0.000000 0.004959
v -0.001577 -0.000000 0.005058
v -0.001653 -0.000000 0.005153
v -0.006421 -0.000000 0.005465
v -0.001716 -0.000000 0.005240
v -0.001765 -0.000000 0.005316
v -0.001796 -0.000000 0.005380
v -0.001809 -0.000000 0.005428
v -0.001800 -0.000000 0.005457
v -0.001756 -0.000000 0.005464
v -0.001638 -0.000000 0.005469
v -0.006579 -0.000000 0.005794
v -0.001449 -0.000000 0.005475
v -0.001196 -0.000000 0.005481
v -0.000883 -0.000000 0.005487
v -0.000517 -0.000000 0.005492
v -0.000102 -0.000000 0.005498
v 0.000356 -0.000000 0.005503
v 0.000853 -0.000000 0.005507
v 0.001382 -0.000000 0.005511
v 0.001939 -0.000000 0.005515
v 0.002518 -0.000000 0.005518
v 0.006800 -0.000000 0.005536
v 0.006800 -0.000000 0.005541
v 0.006803 -0.000000 0.005555
v 0.006805 -0.000000 0.005576
v 0.006809 -0.000000 0.005603
v 0.006813 -0.000000 0.005633
v 0.006818 -0.000000 0.005664
v 0.006823 -0.000000 0.005696
v 0.006826 -0.000000 0.005725
v 0.006830 -0.000000 0.005752
v 0.006833 -0.000000 0.005773
v 0.006835 -0.000000 0.005787
v 0.006836 -0.000000 0.005792
v 0.006841 -0.000000 0.005837
v -0.006716 -0.000000 0.006139
v 0.006845 -0.000000 0.005900
v 0.006848 -0.000000 0.005982
v 0.006852 -0.000000 0.006078
v 0.006854 -0.000000 0.006188
v -0.006834 -0.000000 0.006501
v 0.006857 -0.000000 0.006310
v 0.006858 -0.000000 0.006443
v 0.006859 -0.000000 0.006584
v -0.006932 -0.000000 0.006882
v 0.006859 -0.000000 0.006733
v 0.006859 -0.000000 0.006886
v -0.007012 -0.000000 0.007284
v 0.006857 -0.000000 0.007043
v 0.006854 -0.000000 0.007203
v 0.006836 -0.000000 0.008358
v -0.007073 -0.000000 0.007707
v -0.007082 -0.000000 0.007782
v -0.007089 -0.000000 0.007856
v -0.007096 -0.000000 0.007926
v -0.007101 -0.000000 0.007993
v -0.007105 -0.000000 0.008056
v -0.007108 -0.000000 0.008114
v -0.007110 -0.000000 0.008166
v -0.007110 -0.000000 0.008212
v -0.007109 -0.000000 0.008250
v -0.007107 -0.000000 0.008281
v -0.007103 -0.000000 0.008303
v -0.007098 -0.000000 0.008315
v -0.007028 -0.000000 0.008321
v -0.006837 -0.000000 0.008327
v -0.006533 -0.000000 0.008332
v -0.006124 -0.000000 0.008337
v -0.005619 -0.000000 0.008342
v -0.005027 -0.000000 0.008346
v -0.004355 -0.000000 0.008349
v -0.003613 -0.000000 0.008352
v -0.002809 -0.000000 0.008355
v -0.001952 -0.000000 0.008357
v -0.001049 -0.000000 0.008358
v -0.000109 -0.000000 0.008358
v 0.000027 -0.000000 0.008358
v 0.000405 -0.000000 0.008358
v 0.000976 -0.000000 0.008358
v 0.001691 -0.000000 0.008358
v 0.002503 -0.000000 0.008358
v 0.003363 -0.000000 0.008358
v 0.004223 -0.000000 0.008358
v 0.005035 -0.000000 0.008358
v 0.005751 -0.000000 0.008358
v 0.006322 -0.000000 0.008358
v 0.006699 -0.000000 0.008358
vn -0.0000 1.0000 0.0000
vn 0.0000 0.0000 1.0000
usemtl SVGMat.022
s 1
f 1//1 2//1 3//1
f 1//1 4//1 2//1
f 5//1 4//1 1//1
f 5//1 6//1 4//1
f 7//1 6//1 5//1
f 7//1 8//1 6//1
f 9//1 8//1 7//1
f 9//1 10//1 8//1
f 11//1 10//1 9//1
f 11//1 12//1 10//1
f 11//1 13//1 12//1
f 11//1 14//1 13//1
f 15//1 14//1 11//1
f 15//1 16//1 14//1
f 17//1 16//1 15//1
f 17//1 18//1 16//1
f 19//1 18//1 17//1
f 19//1 20//1 18//1
f 21//1 20//1 19//1
f 21//1 22//1 20//1
f 23//1 22//1 21//1
f 23//1 24//1 22//1
f 25//1 24//1 23//1
f 25//1 26//1 24//1
f 27//1 26//1 25//1
f 27//1 28//1 26//1
f 29//1 28//1 27//1
f 30//1 28//1 29//1
f 30//1 31//1 28//1
f 32//1 31//1 30//1
f 32//1 33//1 31//1
f 34//1 33//1 32//1
f 34//1 35//1 33//1
f 35//1 36//1 33//1
f 34//1 37//1 35//1
f 38//1 36//1 35//1
f 39//1 36//1 38//1
f 34//1 40//1 37//1
f 41//1 40//1 34//1
f 42//1 36//1 39//1
f 41//1 43//1 40//1
f 44//1 36//1 42//1
f 41//1 45//1 43//1
f 44//1 46//1 36//1
f 47//1 46//1 44//1
f 48//1 45//1 41//1
f 48//1 49//1 45//1
f 50//1 46//1 47//1
f 48//1 51//1 49//1
f 52//1 46//1 50//1
f 53//1 51//1 48//1
f 54//1 46//1 52//1
f 53//1 55//1 51//1
f 54//1 56//1 46//1
f 57//1 56//1 54//1
f 58//1 55//1 53//1
f 59//1 56//1 57//1
f 58//1 60//1 55//1
f 61//1 56//1 59//1
f 58//1 62//1 60//1
f 63//1 56//1 61//1
f 64//1 62//1 58//1
f 64//1 65//1 62//1
f 63//1 66//1 56//1
f 67//1 66//1 63//1
f 64//1 68//1 65//1
f 69//1 66//1 67//1
f 70//1 68//1 64//1
f 71//1 66//1 69//1
f 70//1 72//1 68//1
f 71//1 73//1 66//1
f 74//1 73//1 71//1
f 70//1 75//1 72//1
f 76//1 75//1 70//1
f 77//1 73//1 74//1
f 76//1 78//1 75//1
f 79//1 73//1 77//1
f 79//1 80//1 73//1
f 81//1 80//1 79//1
f 82//1 78//1 76//1
f 83//1 80//1 81//1
f 82//1 84//1 78//1
f 85//1 80//1 83//1
f 86//1 80//1 85//1
f 82//1 87//1 84//1
f 88//1 87//1 82//1
f 86//1 89//1 80//1
f 90//1 89//1 86//1
f 91//1 89//1 90//1
f 88//1 92//1 87//1
f 93//1 89//1 91//1
f 94//1 92//1 88//1
f 95//1 89//1 93//1
f 95//1 96//1 89//1
f 94//1 97//1 92//1
f 98//1 96//1 95//1
f 99//1 96//1 98//1
f 100//1 97//1 94//1
f 100//1 101//1 97//1
f 102//1 96//1 99//1
f 102//1 103//1 96//1
f 104//1 101//1 100//1
f 104//1 105//1 101//1
f 106//1 103//1 102//1
f 107//1 103//1 106//1
f 108//1 103//1 107//1
f 104//1 109//1 105//1
f 110//1 103//1 108//1
f 104//1 111//1 109//1
f 112//1 111//1 104//1
f 110//1 113//1 103//1
f 114//1 111//1 112//1
f 115//1 111//1 114//1
f 116//1 113//1 110//1
f 117//1 111//1 115//1
f 117//1 118//1 111//1
f 119//1 118//1 117//1
f 120//1 113//1 116//1
f 119//1 121//1 118//1
f 122//1 121//1 119//1
f 122//1 123//1 121//1
f 124//1 123//1 122//1
f 125//1 113//1 120//1
f 124//1 126//1 123//1
f 127//1 126//1 124//1
f 128//1 113//1 125//1
f 129//1 126//1 127//1
f 128//1 130//1 113//1
f 129//1 131//1 126//1
f 132//1 131//1 129//1
f 132//1 133//1 131//1
f 134//1 133//1 132//1
f 135//1 130//1 128//1
f 134//1 136//1 133//1
f 137//1 136//1 134//1
f 138//1 136//1 137//1
f 138//1 139//1 136//1
f 138//1 140//1 139//1
f 141//1 140//1 138//1
f 141//1 142//1 140//1
f 143//1 142//1 141//1
f 143//1 144//1 142//1
f 145//1 130//1 135//1
f 146//1 144//1 143//1
f 146//1 147//1 144//1
f 148//1 147//1 146//1
f 148//1 149//1 147//1
f 150//1 149//1 148//1
f 150//1 151//1 149//1
f 152//1 151//1 150//1
f 153//1 130//1 145//1
f 154//1 130//1 153//1
f 155//1 130//1 154//1
f 155//1 156//1 130//1
f 155//1 157//1 156//1
f 158//1 157//1 155//1
f 158//1 159//1 157//1
f 160//1 159//1 158//1
f 160//1 161//1 159//1
f 162//1 161//1 160//1
f 163//1 161//1 162//1
f 163//1 164//1 161//1
f 163//1 165//1 164//1
f 166//1 165//1 163//1
f 166//1 167//1 165//1
f 168//1 167//1 166//1
f 168//1 169//1 167//1
f 170//1 169//1 168//1
f 170//1 171//1 169//1
f 170//1 172//1 171//1
f 173//1 172//1 170//1
f 173//1 174//1 172//1
f 175//1 174//1 173//1
f 175//1 176//1 174//1
f 175//1 177//1 176//1
f 178//1 177//1 175//1
f 178//1 179//1 177//1
f 178//1 180//1 179//1
f 181//1 180//1 178//1
f 181//1 182//1 180//1
f 181//1 183//1 182//1
f 184//1 183//1 181//1
f 184//1 185//1 183//1
f 184//1 186//1 185//1
f 184//1 187//1 186//1
f 184//1 188//1 187//1
f 184//1 189//1 188//1
f 190//1 189//1 184//1
f 190//1 191//1 189//1
f 190//1 192//1 191//1
f 193//1 192//1 190//1
f 193//1 194//1 192//1
f 195//1 194//1 193//1
f 195//1 196//1 194//1
f 195//1 197//1 196//1
f 198//1 197//1 195//1
f 198//1 199//1 197//1
f 200//1 199//1 198//1
f 200//1 201//1 199//1
f 202//1 201//1 200//1
f 203//1 201//1 202//1
f 203//1 204//1 201//1
f 205//1 204//1 203//1
f 205//1 206//1 204//1
f 207//1 206//1 205//1
f 208//1 206//1 207//1
f 208//1 209//1 206//1
f 210//1 209//1 208//1
f 210//1 211//1 209//1
f 212//1 211//1 210//1
f 212//1 213//1 211//1
f 214//1 213//1 212//1
f 214//1 215//1 213//1
f 214//1 216//1 215//1
f 217//1 216//1 214//1
f 217//1 218//1 216//1
f 217//1 219//1 218//1
f 217//1 220//1 219//1
f 221//1 220//1 217//1
f 221//1 222//1 220//1
f 221//1 223//1 222//1
f 224//1 223//1 221//1
f 224//1 225//1 223//1
f 224//1 226//1 225//1
f 224//1 227//1 226//1
f 228//1 227//1 224//1
f 228//1 229//1 227//1
f 228//1 230//1 229//1
f 228//1 231//1 230//1
f 232//1 231//1 228//1
f 232//1 233//1 231//1
f 232//1 234//1 233//1
f 232//1 235//1 234//1
f 232//1 236//1 235//1
f 232//1 237//1 236//1
f 232//1 238//1 237//1
f 232//1 239//1 238//1
f 240//1 239//1 232//1
f 240//1 241//1 239//1
f 240//1 242//1 241//1
f 240//1 243//1 242//1
f 240//1 244//1 243//1
f 240//1 245//1 244//1
f 240//1 246//1 245//1
f 240//1 247//1 246//1
f 240//1 248//1 247//1
f 240//1 249//1 248//1
f 240//1 250//1 249//1
f 240//1 251//1 250//1
f 240//1 252//1 251//1
f 240//1 253//1 252//1
f 240//1 254//1 253//1
f 240//1 255//1 254//1
f 240//1 256//1 255//1
f 240//1 257//1 256//1
f 240//1 258//1 257//1
f 240//1 259//1 258//1
f 240//1 260//1 259//1
f 240//1 261//1 260//1
f 240//1 262//1 261//1
f 240//1 263//1 262//1
f 240//1 264//1 263//1
f 265//1 264//1 240//1
f 265//1 266//1 264//1
f 265//1 267//1 266//1
f 265//1 268//1 267//1
f 265//1 269//1 268//1
f 270//1 269//1 265//1
f 270//1 271//1 269//1
f 270//1 272//1 271//1
f 270//1 273//1 272//1
f 274//1 273//1 270//1
f 274//1 275//1 273//1
f 274//1 276//1 275//1
f 277//1 276//1 274//1
f 277//1 278//1 276//1
f 277//1 279//1 278//1
f 277//1 280//1 279//1
f 281//1 280//1 277//1
f 282//1 280//1 281//1
f 283//1 280//1 282//1
f 284//1 280//1 283//1
f 285//1 280//1 284//1
f 286//1 280//1 285//1
f 287//1 280//1 286//1
f 288//1 280//1 287//1
f 289//1 280//1 288//1
f 290//1 280//1 289//1
f 291//1 280//1 290//1
f 292//1 280//1 291//1
f 293//1 280//1 292//1
f 294//1 280//1 293//1
f 295//1 280//1 294//1
f 296//1 280//1 295//1
f 297//1 280//1 296//1
f 298//1 280//1 297//1
f 299//1 280//1 298//1
f 300//1 280//1 299//1
f 301//1 280//1 300//1
f 302//1 280//1 301//1
f 303//1 280//1 302//1
f 304//1 280//1 303//1
f 305//1 280//1 304//1
f 306//2 280//2 305//2
f 307//2 280//2 306//2
f 308//2 280//2 307//2
f 309//2 280//2 308//2
f 310//2 280//2 309//2
f 311//2 280//2 310//2
f 312//2 280//2 311//2
f 313//2 280//2 312//2
f 314//2 280//2 313//2
f 315//2 280//2 314//2
f 316//2 280//2 315//2
