<?xml version="1.0" standalone="no"?>
<!DOCTYPE svg PUBLIC "-//W3C//DTD SVG 20010904//EN"
 "http://www.w3.org/TR/2001/REC-SVG-20010904/DTD/svg10.dtd">
<svg version="1.0" xmlns="http://www.w3.org/2000/svg"
 width="873.000000pt" height="1280.000000pt" viewBox="0 0 873.000000 1280.000000"
 preserveAspectRatio="xMidYMid meet">
<g transform="translate(0.000000,1280.000000) scale(0.100000,-0.100000)"
fill="#000000" stroke="none">
<path d="M7202 12780 c-227 -32 -374 -77 -512 -155 -179 -102 -298 -249 -345
-430 -22 -85 -38 -276 -25 -289 7 -7 110 -11 308 -11 l296 0 12 90 c15 118 27
160 63 217 77 121 286 188 493 159 96 -13 174 -47 233 -102 84 -77 117 -184
96 -310 -36 -222 -199 -330 -521 -347 l-125 -7 0 -165 0 -164 30 -7 c17 -4 95
-12 175 -18 171 -11 275 -40 366 -100 80 -52 128 -104 160 -176 37 -80 39
-200 5 -288 -29 -75 -112 -164 -190 -206 -168 -89 -411 -95 -586 -12 -98 46
-175 152 -212 294 l-17 67 -318 0 c-296 0 -318 -1 -318 -17 0 -10 6 -56 14
-103 64 -390 356 -644 836 -727 133 -23 458 -23 595 0 429 74 713 264 832 557
69 173 69 402 0 553 -31 69 -112 164 -187 222 -59 45 -230 148 -277 166 -13 5
-23 13 -23 18 0 5 33 27 74 50 256 140 372 328 353 573 -7 86 -46 214 -81 268
-40 61 -127 149 -192 196 -238 170 -658 255 -1012 204z"/>
<path d="M4000 12740 c-347 -48 -596 -187 -739 -415 -74 -118 -125 -320 -119
-475 l3 -75 50 -7 c69 -9 557 -9 571 0 6 4 14 53 17 112 8 157 51 259 143 340
136 119 404 144 591 56 96 -46 171 -120 204 -201 21 -53 24 -76 24 -196 l0
-135 -38 -76 c-80 -162 -232 -278 -777 -591 -271 -156 -367 -218 -480 -313
-205 -172 -307 -366 -342 -652 -6 -50 -8 -95 -4 -100 4 -4 521 -7 1149 -7
l1142 0 3 190 c2 105 0 209 -3 232 l-6 42 -704 3 c-387 2 -707 6 -710 10 -13
13 66 108 134 162 94 76 153 114 451 291 146 87 311 189 367 227 196 130 334
263 406 388 93 164 109 425 36 624 -100 275 -386 479 -774 551 -104 20 -490
29 -595 15z"/>
<path d="M1256 12673 c-65 -134 -159 -222 -321 -299 -148 -70 -320 -107 -575
-122 l-115 -7 0 -165 0 -165 45 -7 c25 -3 205 -7 401 -7 l356 -1 7 -37 c3 -21
6 -437 6 -924 l0 -886 31 -7 c17 -3 166 -6 330 -6 l299 0 -2 1343 -3 1342
-215 3 -216 2 -28 -57z"/>
<path d="M7325 9363 c-128 -11 -323 -67 -440 -126 -310 -155 -520 -466 -590
-871 -53 -307 -41 -776 25 -1036 80 -312 271 -550 543 -675 271 -125 634 -155
945 -79 324 79 565 266 692 537 65 137 84 236 84 412 -1 170 -18 255 -78 379
-82 169 -275 338 -472 412 -147 55 -225 67 -429 68 -265 1 -364 -25 -570 -150
l-108 -65 6 138 c17 343 121 525 353 610 83 30 237 41 329 24 113 -21 229 -97
276 -181 12 -21 31 -41 43 -44 12 -3 150 -6 309 -6 225 0 287 3 287 13 0 32
-44 167 -72 219 -39 73 -143 180 -235 241 -135 90 -317 153 -508 176 -83 10
-296 12 -390 4z m387 -1365 c214 -79 318 -229 318 -458 0 -309 -250 -532 -570
-507 -282 22 -470 218 -470 492 0 246 142 430 377 490 89 23 260 14 345 -17z"/>
<path d="M1242 9303 c-11 -10 -264 -344 -563 -743 -298 -399 -573 -764 -611
-812 l-68 -88 0 -213 0 -214 46 -7 c26 -3 331 -6 679 -6 l633 0 6 -31 c3 -17
6 -148 6 -291 0 -237 1 -259 18 -266 9 -4 159 -7 332 -7 l315 0 3 298 2 297
175 0 175 0 0 184 c0 101 -3 198 -6 215 l-6 31 -108 0 c-59 0 -135 3 -169 6
l-61 7 -1 781 c0 430 -4 801 -7 826 l-7 45 -381 3 c-352 2 -383 1 -402 -15z
m126 -1142 l-3 -506 -305 -3 c-338 -4 -570 5 -570 20 0 8 436 580 780 1023
l85 110 8 -69 c4 -38 6 -296 5 -575z"/>
<path d="M3457 9273 c-11 -19 -299 -1475 -292 -1481 3 -4 136 -9 293 -10 l287
-4 32 45 c131 181 518 222 741 78 115 -74 178 -166 206 -304 64 -307 -84 -559
-369 -632 -75 -19 -257 -19 -346 -1 -153 33 -250 122 -294 271 l-12 40 -322 3
-321 2 0 -27 c1 -56 31 -169 64 -238 134 -281 439 -463 847 -506 149 -16 414
-6 539 20 387 79 658 265 799 546 54 110 82 217 88 351 10 196 -32 375 -121
519 -57 90 -205 234 -303 293 -194 117 -421 170 -688 159 -165 -7 -254 -26
-408 -91 -60 -25 -111 -46 -113 -46 -10 0 -1 56 41 273 25 128 48 242 50 254
l5 23 703 2 702 3 3 160 c2 88 0 193 -3 233 l-7 72 -898 0 c-494 0 -901 -3
-903 -7z"/>
<path d="M7310 5974 c-284 -34 -475 -103 -653 -237 -106 -81 -188 -180 -247
-302 -56 -115 -78 -192 -89 -314 -35 -394 157 -748 494 -911 170 -83 341 -116
560 -108 224 9 370 62 511 184 42 37 79 62 86 58 17 -11 2 -224 -22 -319 -69
-268 -215 -407 -459 -435 -131 -15 -296 16 -371 70 -37 27 -103 114 -117 155
l-10 30 -304 3 c-167 1 -309 0 -315 -2 -15 -6 -1 -97 26 -174 40 -113 167
-265 293 -351 170 -116 424 -181 709 -181 384 0 659 99 873 314 224 225 348
592 371 1096 19 431 -77 807 -261 1024 -223 260 -517 392 -895 401 -80 2 -161
1 -180 -1z m335 -454 c212 -81 324 -247 325 -477 1 -318 -233 -529 -565 -510
-151 9 -263 59 -335 149 -89 112 -124 217 -124 368 1 243 128 427 335 485 84
23 286 15 364 -15z"/>
<path d="M4047 5924 c-293 -45 -553 -172 -686 -335 -94 -116 -151 -291 -137
-426 20 -197 126 -340 331 -449 47 -25 85 -50 85 -55 0 -5 -33 -25 -72 -45
-188 -94 -335 -222 -396 -347 -50 -100 -65 -182 -59 -322 7 -201 65 -336 206
-487 196 -209 463 -318 852 -348 308 -23 621 30 852 146 124 62 170 95 267
193 96 98 148 180 187 296 24 71 27 96 28 220 0 157 -9 204 -62 307 -60 116
-244 271 -428 360 -25 12 -45 25 -45 29 0 4 42 28 94 53 195 94 311 255 331
456 8 83 -14 208 -50 284 -112 237 -444 429 -820 475 -121 15 -369 12 -478 -5z
m427 -419 c146 -31 275 -115 321 -209 76 -155 -1 -339 -178 -425 -98 -48 -177
-65 -307 -65 -184 0 -329 50 -411 142 -160 180 -109 408 115 513 119 56 316
75 460 44z m51 -1089 c120 -38 232 -122 275 -206 54 -106 62 -260 20 -373 -30
-79 -118 -173 -202 -215 -102 -51 -176 -66 -323 -65 -112 0 -141 4 -210 26
-44 15 -101 40 -127 56 -59 38 -132 130 -159 201 -43 113 -34 262 22 372 52
103 180 190 324 222 105 23 276 15 380 -18z"/>
<path d="M110 5690 c0 -126 1 -231 3 -232 1 -1 376 -5 834 -8 l832 -5 -116
-125 c-641 -692 -888 -1154 -1028 -1923 -14 -82 -24 -152 -20 -155 4 -4 151
-8 327 -10 256 -2 323 0 329 10 5 7 9 31 9 53 0 78 41 320 79 469 94 368 265
719 514 1056 137 186 361 441 543 617 l74 72 0 174 c0 96 -3 189 -6 206 l-6
31 -1184 0 -1184 0 0 -230z"/>
<path d="M4065 2945 c-482 -74 -811 -372 -943 -856 -55 -200 -79 -473 -62
-719 29 -436 148 -738 385 -975 185 -185 417 -280 744 -305 146 -11 330 -1
457 25 454 93 761 401 883 883 51 202 72 504 52 732 -38 410 -148 676 -376
906 -154 156 -347 255 -580 300 -113 22 -443 27 -560 9z m438 -503 c78 -36
156 -111 194 -186 30 -60 66 -198 84 -326 19 -130 19 -670 0 -800 -52 -365
-165 -526 -395 -562 -140 -22 -299 28 -370 115 -74 92 -124 236 -153 441 -24
171 -24 653 0 816 39 267 110 414 234 487 70 41 128 53 239 49 88 -2 109 -6
167 -34z"/>
</g>
</svg>
