# Blender v2.81 (sub 16) OBJ File: ''
# www.blender.org
mtllib 7.mtl
o Curve.008_Curve.068
v -0.007380 0.000000 -0.008312
v -0.000037 0.000000 -0.008340
v -0.007380 0.000000 -0.008340
v 0.007306 0.000000 -0.008340
v 0.007307 0.000000 -0.008336
v 0.007309 0.000000 -0.008326
v 0.007312 0.000000 -0.008310
v -0.007380 0.000000 -0.008235
v 0.007316 0.000000 -0.008290
v 0.007320 0.000000 -0.008268
v 0.007325 0.000000 -0.008244
v 0.007329 0.000000 -0.008220
v -0.007380 0.000000 -0.008117
v 0.007334 0.000000 -0.008198
v 0.007338 0.000000 -0.008178
v 0.007341 0.000000 -0.008162
v 0.007343 0.000000 -0.008151
v 0.007343 0.000000 -0.008148
v 0.007348 0.000000 -0.008112
v -0.007380 0.000000 -0.007970
v 0.007353 0.000000 -0.008058
v 0.007357 0.000000 -0.007987
v 0.007361 0.000000 -0.007902
v -0.007380 0.000000 -0.007804
v 0.007365 0.000000 -0.007804
v -0.007380 0.000000 -0.007627
v 0.007369 0.000000 -0.007693
v 0.007372 0.000000 -0.007572
v -0.007380 0.000000 -0.007450
v 0.007375 0.000000 -0.007443
v -0.007380 0.000000 -0.007284
v 0.007377 0.000000 -0.007306
v 0.007379 0.000000 -0.007165
v -0.007380 0.000000 -0.007137
v 0.007380 0.000000 -0.007019
v -0.007380 0.000000 -0.007020
v -0.007380 0.000000 -0.006942
v 0.007380 0.000000 -0.006871
v -0.007380 0.000000 -0.006914
v -0.007380 0.000000 -0.006722
v 0.007380 0.000000 -0.005792
v -0.007380 0.000000 -0.006536
v -0.007379 0.000000 -0.006360
v -0.007378 0.000000 -0.006195
v -0.007377 0.000000 -0.006042
v -0.007376 0.000000 -0.005904
v -0.007374 0.000000 -0.005782
v 0.007371 0.000000 -0.005783
v 0.007347 0.000000 -0.005758
v -0.007372 0.000000 -0.005678
v 0.007309 0.000000 -0.005722
v 0.007261 0.000000 -0.005676
v -0.007370 0.000000 -0.005593
v 0.007208 0.000000 -0.005624
v 0.007151 0.000000 -0.005568
v -0.007367 0.000000 -0.005530
v 0.007094 0.000000 -0.005513
v -0.007365 0.000000 -0.005490
v 0.007041 0.000000 -0.005461
v -0.007362 0.000000 -0.005475
v -0.007313 0.000000 -0.005473
v -0.007174 0.000000 -0.005471
v -0.006950 0.000000 -0.005467
v -0.006649 0.000000 -0.005464
v -0.006277 0.000000 -0.005460
v 0.006993 0.000000 -0.005415
v -0.005839 0.000000 -0.005455
v -0.005341 0.000000 -0.005450
v -0.004792 0.000000 -0.005445
v -0.004195 0.000000 -0.005440
v -0.003558 0.000000 -0.005435
v -0.002888 0.000000 -0.005430
v -0.002189 0.000000 -0.005425
v -0.002088 0.000000 -0.005425
v -0.001807 0.000000 -0.005423
v -0.001383 0.000000 -0.005421
v -0.000852 0.000000 -0.005417
v -0.000248 0.000000 -0.005414
v 0.006955 0.000000 -0.005378
v 0.000391 0.000000 -0.005410
v 0.001030 0.000000 -0.005407
v 0.001633 0.000000 -0.005403
v 0.002164 0.000000 -0.005400
v 0.002588 0.000000 -0.005397
v 0.002869 0.000000 -0.005395
v 0.002971 0.000000 -0.005395
v 0.002252 0.000000 -0.004620
v 0.006930 0.000000 -0.005354
v 0.006921 0.000000 -0.005345
v 0.006634 0.000000 -0.005063
v 0.006339 0.000000 -0.004763
v 0.006038 0.000000 -0.004449
v 0.001307 0.000000 -0.003575
v 0.005735 0.000000 -0.004124
v 0.005433 0.000000 -0.003792
v 0.005133 0.000000 -0.003455
v 0.000459 0.000000 -0.002577
v 0.004839 0.000000 -0.003117
v 0.004554 0.000000 -0.002781
v 0.004280 0.000000 -0.002450
v -0.000300 0.000000 -0.001617
v 0.004020 0.000000 -0.002127
v 0.003777 0.000000 -0.001816
v 0.003554 0.000000 -0.001519
v -0.000976 0.000000 -0.000681
v 0.003178 0.000000 -0.000995
v 0.002822 0.000000 -0.000467
v -0.001574 -0.000000 0.000242
v 0.002486 -0.000000 0.000065
v 0.002170 -0.000000 0.000600
v -0.002102 -0.000000 0.001164
v 0.001875 -0.000000 0.001139
v 0.001599 -0.000000 0.001683
v -0.002564 -0.000000 0.002095
v 0.001344 -0.000000 0.002230
v -0.002969 -0.000000 0.003047
v 0.001108 -0.000000 0.002781
v 0.000893 -0.000000 0.003337
v -0.003321 -0.000000 0.004033
v 0.000697 -0.000000 0.003897
v 0.000522 -0.000000 0.004461
v -0.003627 -0.000000 0.005064
v 0.000366 -0.000000 0.005029
v 0.000307 -0.000000 0.005271
v -0.003893 -0.000000 0.006150
v 0.000248 -0.000000 0.005532
v 0.000190 -0.000000 0.005805
v 0.000134 -0.000000 0.006086
v 0.000081 -0.000000 0.006369
v -0.004124 -0.000000 0.007305
v 0.000032 -0.000000 0.006648
v -0.000011 -0.000000 0.006918
v -0.000049 -0.000000 0.007174
v -0.000081 -0.000000 0.007408
v -0.004146 -0.000000 0.007430
v -0.000104 -0.000000 0.007618
v -0.004166 -0.000000 0.007551
v -0.004184 -0.000000 0.007666
v -0.000119 -0.000000 0.007796
v -0.004201 -0.000000 0.007776
v -0.004215 -0.000000 0.007877
v -0.000124 -0.000000 0.007937
v -0.004228 -0.000000 0.007969
v -0.000125 -0.000000 0.007971
v -0.004239 -0.000000 0.008051
v -0.000126 -0.000000 0.008006
v -0.000129 -0.000000 0.008040
v -0.000132 -0.000000 0.008073
v -0.004246 -0.000000 0.008121
v -0.000136 -0.000000 0.008106
v -0.000141 -0.000000 0.008136
v -0.004252 -0.000000 0.008179
v -0.000146 -0.000000 0.008165
v -0.000151 -0.000000 0.008191
v -0.004254 -0.000000 0.008223
v -0.000158 -0.000000 0.008215
v -0.000165 -0.000000 0.008236
v -0.004253 -0.000000 0.008253
v -0.000172 -0.000000 0.008253
v -0.004248 -0.000000 0.008265
v -0.000180 -0.000000 0.008265
v -0.004224 -0.000000 0.008272
v -0.000197 -0.000000 0.008280
v -0.004166 -0.000000 0.008278
v -0.004074 -0.000000 0.008284
v -0.000234 -0.000000 0.008292
v -0.003954 -0.000000 0.008290
v -0.003807 -0.000000 0.008296
v -0.000291 -0.000000 0.008303
v -0.003634 -0.000000 0.008301
v -0.003440 -0.000000 0.008306
v -0.000373 -0.000000 0.008312
v -0.003226 -0.000000 0.008311
v -0.002994 -0.000000 0.008316
v -0.000481 -0.000000 0.008319
v -0.002748 -0.000000 0.008320
v -0.000618 -0.000000 0.008325
v -0.002489 -0.000000 0.008324
v -0.002220 -0.000000 0.008328
v -0.000789 -0.000000 0.008328
v -0.001847 -0.000000 0.008330
v -0.000994 -0.000000 0.008331
v -0.001520 -0.000000 0.008332
v -0.001237 -0.000000 0.008332
vn -0.0000 1.0000 0.0000
usemtl SVGMat.027
s 1
f 1//1 2//1 3//1
f 1//1 4//1 2//1
f 1//1 5//1 4//1
f 1//1 6//1 5//1
f 1//1 7//1 6//1
f 8//1 7//1 1//1
f 8//1 9//1 7//1
f 8//1 10//1 9//1
f 8//1 11//1 10//1
f 8//1 12//1 11//1
f 13//1 12//1 8//1
f 13//1 14//1 12//1
f 13//1 15//1 14//1
f 13//1 16//1 15//1
f 13//1 17//1 16//1
f 13//1 18//1 17//1
f 13//1 19//1 18//1
f 20//1 19//1 13//1
f 20//1 21//1 19//1
f 20//1 22//1 21//1
f 20//1 23//1 22//1
f 24//1 23//1 20//1
f 24//1 25//1 23//1
f 26//1 25//1 24//1
f 26//1 27//1 25//1
f 26//1 28//1 27//1
f 29//1 28//1 26//1
f 29//1 30//1 28//1
f 31//1 30//1 29//1
f 31//1 32//1 30//1
f 31//1 33//1 32//1
f 34//1 33//1 31//1
f 34//1 35//1 33//1
f 36//1 35//1 34//1
f 37//1 35//1 36//1
f 37//1 38//1 35//1
f 39//1 38//1 37//1
f 40//1 38//1 39//1
f 40//1 41//1 38//1
f 42//1 41//1 40//1
f 43//1 41//1 42//1
f 44//1 41//1 43//1
f 45//1 41//1 44//1
f 46//1 41//1 45//1
f 47//1 41//1 46//1
f 47//1 48//1 41//1
f 47//1 49//1 48//1
f 50//1 49//1 47//1
f 50//1 51//1 49//1
f 50//1 52//1 51//1
f 53//1 52//1 50//1
f 53//1 54//1 52//1
f 53//1 55//1 54//1
f 56//1 55//1 53//1
f 56//1 57//1 55//1
f 58//1 57//1 56//1
f 58//1 59//1 57//1
f 60//1 59//1 58//1
f 61//1 59//1 60//1
f 62//1 59//1 61//1
f 63//1 59//1 62//1
f 64//1 59//1 63//1
f 65//1 59//1 64//1
f 65//1 66//1 59//1
f 67//1 66//1 65//1
f 68//1 66//1 67//1
f 69//1 66//1 68//1
f 70//1 66//1 69//1
f 71//1 66//1 70//1
f 72//1 66//1 71//1
f 73//1 66//1 72//1
f 74//1 66//1 73//1
f 75//1 66//1 74//1
f 76//1 66//1 75//1
f 77//1 66//1 76//1
f 78//1 66//1 77//1
f 78//1 79//1 66//1
f 80//1 79//1 78//1
f 81//1 79//1 80//1
f 82//1 79//1 81//1
f 83//1 79//1 82//1
f 84//1 79//1 83//1
f 85//1 79//1 84//1
f 86//1 79//1 85//1
f 87//1 79//1 86//1
f 87//1 88//1 79//1
f 87//1 89//1 88//1
f 87//1 90//1 89//1
f 87//1 91//1 90//1
f 87//1 92//1 91//1
f 93//1 92//1 87//1
f 93//1 94//1 92//1
f 93//1 95//1 94//1
f 93//1 96//1 95//1
f 97//1 96//1 93//1
f 97//1 98//1 96//1
f 97//1 99//1 98//1
f 97//1 100//1 99//1
f 101//1 100//1 97//1
f 101//1 102//1 100//1
f 101//1 103//1 102//1
f 101//1 104//1 103//1
f 105//1 104//1 101//1
f 105//1 106//1 104//1
f 105//1 107//1 106//1
f 108//1 107//1 105//1
f 108//1 109//1 107//1
f 108//1 110//1 109//1
f 111//1 110//1 108//1
f 111//1 112//1 110//1
f 111//1 113//1 112//1
f 114//1 113//1 111//1
f 114//1 115//1 113//1
f 116//1 115//1 114//1
f 116//1 117//1 115//1
f 116//1 118//1 117//1
f 119//1 118//1 116//1
f 119//1 120//1 118//1
f 119//1 121//1 120//1
f 122//1 121//1 119//1
f 122//1 123//1 121//1
f 122//1 124//1 123//1
f 125//1 124//1 122//1
f 125//1 126//1 124//1
f 125//1 127//1 126//1
f 125//1 128//1 127//1
f 125//1 129//1 128//1
f 130//1 129//1 125//1
f 130//1 131//1 129//1
f 130//1 132//1 131//1
f 130//1 133//1 132//1
f 130//1 134//1 133//1
f 135//1 134//1 130//1
f 135//1 136//1 134//1
f 137//1 136//1 135//1
f 138//1 136//1 137//1
f 138//1 139//1 136//1
f 140//1 139//1 138//1
f 141//1 139//1 140//1
f 141//1 142//1 139//1
f 143//1 142//1 141//1
f 143//1 144//1 142//1
f 145//1 144//1 143//1
f 145//1 146//1 144//1
f 145//1 147//1 146//1
f 145//1 148//1 147//1
f 149//1 148//1 145//1
f 149//1 150//1 148//1
f 149//1 151//1 150//1
f 152//1 151//1 149//1
f 152//1 153//1 151//1
f 152//1 154//1 153//1
f 155//1 154//1 152//1
f 155//1 156//1 154//1
f 155//1 157//1 156//1
f 158//1 157//1 155//1
f 158//1 159//1 157//1
f 160//1 159//1 158//1
f 160//1 161//1 159//1
f 162//1 161//1 160//1
f 162//1 163//1 161//1
f 164//1 163//1 162//1
f 165//1 163//1 164//1
f 165//1 166//1 163//1
f 167//1 166//1 165//1
f 168//1 166//1 167//1
f 168//1 169//1 166//1
f 170//1 169//1 168//1
f 171//1 169//1 170//1
f 171//1 172//1 169//1
f 173//1 172//1 171//1
f 174//1 172//1 173//1
f 174//1 175//1 172//1
f 176//1 175//1 174//1
f 176//1 177//1 175//1
f 178//1 177//1 176//1
f 179//1 177//1 178//1
f 179//1 180//1 177//1
f 181//1 180//1 179//1
f 181//1 182//1 180//1
f 183//1 182//1 181//1
f 183//1 184//1 182//1
