# Blender v2.81 (sub 16) OBJ File: ''
# www.blender.org
mtllib 8.mtl
o Curve.007_Curve.077
v -0.000144 0.000000 -0.008372
v 0.000385 0.000000 -0.008370
v 0.000122 0.000000 -0.008373
v -0.000409 0.000000 -0.008367
v 0.000639 0.000000 -0.008363
v -0.000668 0.000000 -0.008358
v 0.000878 0.000000 -0.008351
v -0.000914 0.000000 -0.008346
v 0.001096 0.000000 -0.008336
v -0.001142 0.000000 -0.008330
v 0.001289 0.000000 -0.008316
v -0.001348 0.000000 -0.008310
v 0.001836 0.000000 -0.008231
v -0.001524 0.000000 -0.008287
v -0.001951 0.000000 -0.008210
v 0.002369 0.000000 -0.008112
v -0.002367 0.000000 -0.008115
v -0.002772 0.000000 -0.008001
v 0.002883 0.000000 -0.007961
v -0.003163 0.000000 -0.007871
v 0.003376 0.000000 -0.007781
v -0.003538 0.000000 -0.007724
v 0.003844 0.000000 -0.007573
v -0.003896 0.000000 -0.007561
v 0.004284 0.000000 -0.007340
v -0.004233 0.000000 -0.007384
v -0.004549 0.000000 -0.007194
v 0.004691 0.000000 -0.007083
v -0.004842 0.000000 -0.006991
v 0.005062 0.000000 -0.006805
v -0.005110 0.000000 -0.006776
v 0.005393 0.000000 -0.006508
v -0.005350 0.000000 -0.006551
v -0.005561 0.000000 -0.006315
v 0.005681 0.000000 -0.006194
v -0.005695 0.000000 -0.006138
v 0.005923 0.000000 -0.005864
v -0.005818 0.000000 -0.005948
v 0.000066 0.000000 -0.005909
v -0.005931 0.000000 -0.005748
v -0.000177 0.000000 -0.005902
v 0.000307 0.000000 -0.005904
v 0.000542 0.000000 -0.005888
v -0.000420 0.000000 -0.005884
v 0.000771 0.000000 -0.005861
v -0.000660 0.000000 -0.005855
v 0.006114 0.000000 -0.005522
v 0.000989 0.000000 -0.005821
v -0.000894 0.000000 -0.005817
v 0.001201 0.000000 -0.005769
v -0.001119 0.000000 -0.005767
v 0.001408 0.000000 -0.005705
v -0.001333 0.000000 -0.005709
v -0.006034 0.000000 -0.005539
v -0.001534 0.000000 -0.005640
v 0.001608 0.000000 -0.005630
v -0.001718 0.000000 -0.005563
v 0.001800 0.000000 -0.005544
v -0.002026 0.000000 -0.005393
v 0.001983 0.000000 -0.005449
v -0.006124 0.000000 -0.005324
v 0.006165 0.000000 -0.005404
v 0.002154 0.000000 -0.005346
v 0.006212 0.000000 -0.005276
v -0.002291 0.000000 -0.005198
v 0.002313 0.000000 -0.005234
v -0.006202 0.000000 -0.005105
v 0.006256 0.000000 -0.005140
v 0.002458 0.000000 -0.005116
v -0.002513 0.000000 -0.004979
v 0.006295 0.000000 -0.004998
v 0.002589 0.000000 -0.004992
v -0.006267 0.000000 -0.004883
v 0.006329 0.000000 -0.004851
v 0.002703 0.000000 -0.004862
v -0.002689 0.000000 -0.004741
v -0.006317 0.000000 -0.004661
v 0.002800 0.000000 -0.004729
v 0.006358 0.000000 -0.004701
v -0.002819 0.000000 -0.004486
v 0.002878 0.000000 -0.004592
v 0.006382 0.000000 -0.004551
v -0.006354 0.000000 -0.004440
v 0.002971 0.000000 -0.004361
v 0.006400 0.000000 -0.004401
v -0.002904 0.000000 -0.004219
v -0.006374 0.000000 -0.004223
v 0.006412 0.000000 -0.004255
v 0.003027 0.000000 -0.004125
v 0.006418 0.000000 -0.004113
v -0.006379 0.000000 -0.004012
v -0.002941 0.000000 -0.003942
v 0.003049 0.000000 -0.003888
v 0.006416 0.000000 -0.003977
v -0.006367 0.000000 -0.003809
v 0.006408 0.000000 -0.003851
v -0.002931 0.000000 -0.003661
v 0.003036 0.000000 -0.003651
v 0.006367 0.000000 -0.003560
v -0.006327 0.000000 -0.003526
v -0.002872 0.000000 -0.003376
v 0.002990 0.000000 -0.003417
v 0.006303 0.000000 -0.003279
v -0.006266 0.000000 -0.003256
v 0.002912 0.000000 -0.003190
v -0.002763 0.000000 -0.003093
v 0.006216 0.000000 -0.003010
v -0.006183 0.000000 -0.002998
v 0.002803 0.000000 -0.002970
v -0.002605 0.000000 -0.002815
v 0.006106 0.000000 -0.002752
v -0.006078 0.000000 -0.002752
v 0.002664 0.000000 -0.002762
v -0.002395 0.000000 -0.002545
v 0.002496 0.000000 -0.002567
v 0.005974 0.000000 -0.002506
v -0.005951 0.000000 -0.002518
v 0.002300 0.000000 -0.002389
v -0.002267 0.000000 -0.002414
v -0.005801 0.000000 -0.002295
v 0.005820 0.000000 -0.002273
v -0.002123 0.000000 -0.002295
v 0.002078 0.000000 -0.002229
v -0.001966 0.000000 -0.002186
v -0.005629 0.000000 -0.002082
v 0.005645 0.000000 -0.002053
v 0.001830 0.000000 -0.002091
v -0.001794 0.000000 -0.002087
v 0.001688 0.000000 -0.002025
v -0.001609 0.000000 -0.002000
v -0.005434 0.000000 -0.001880
v 0.005449 0.000000 -0.001846
v 0.001549 0.000000 -0.001965
v -0.001411 0.000000 -0.001924
v 0.001412 0.000000 -0.001913
v -0.001200 0.000000 -0.001859
v 0.001275 0.000000 -0.001867
v -0.005216 0.000000 -0.001688
v 0.001138 0.000000 -0.001827
v -0.000977 0.000000 -0.001805
v 0.005232 0.000000 -0.001654
v 0.000998 0.000000 -0.001794
v -0.000743 0.000000 -0.001764
v 0.000853 0.000000 -0.001767
v 0.000704 0.000000 -0.001746
v -0.000498 0.000000 -0.001733
v 0.000548 0.000000 -0.001729
v -0.000242 0.000000 -0.001715
v 0.000383 0.000000 -0.001718
v 0.000209 0.000000 -0.001711
v 0.000024 0.000000 -0.001709
v -0.004974 0.000000 -0.001505
v 0.004995 0.000000 -0.001477
v -0.004709 0.000000 -0.001332
v 0.004738 0.000000 -0.001314
v -0.004419 0.000000 -0.001168
v 0.004461 0.000000 -0.001168
v -0.004351 0.000000 -0.001131
v 0.004385 0.000000 -0.001131
v 0.004313 0.000000 -0.001095
v -0.004286 0.000000 -0.001095
v 0.004245 0.000000 -0.001061
v -0.004224 0.000000 -0.001059
v 0.004181 0.000000 -0.001027
v -0.004166 0.000000 -0.001025
v 0.004122 0.000000 -0.000995
v -0.004114 0.000000 -0.000992
v 0.004069 0.000000 -0.000965
v -0.004065 0.000000 -0.000962
v 0.004022 0.000000 -0.000939
v -0.004023 0.000000 -0.000934
v 0.003983 0.000000 -0.000914
v -0.003987 0.000000 -0.000908
v 0.003951 0.000000 -0.000894
v -0.003958 0.000000 -0.000887
v 0.003927 0.000000 -0.000877
v -0.003937 0.000000 -0.000868
v 0.003912 0.000000 -0.000864
v -0.003923 0.000000 -0.000854
v 0.003907 0.000000 -0.000856
v 0.003910 0.000000 -0.000849
v -0.003919 0.000000 -0.000844
v 0.003917 0.000000 -0.000840
v -0.003923 0.000000 -0.000835
v 0.003928 0.000000 -0.000829
v -0.003934 0.000000 -0.000823
v 0.003943 0.000000 -0.000817
v -0.003953 0.000000 -0.000807
v 0.003962 0.000000 -0.000803
v -0.003978 0.000000 -0.000789
v 0.003984 0.000000 -0.000788
v -0.004009 0.000000 -0.000768
v 0.004010 0.000000 -0.000773
v 0.004038 0.000000 -0.000756
v -0.004045 0.000000 -0.000745
v 0.004069 0.000000 -0.000739
v -0.004086 0.000000 -0.000720
v 0.004101 0.000000 -0.000721
v 0.004136 0.000000 -0.000703
v -0.004131 0.000000 -0.000694
v 0.004172 0.000000 -0.000686
v -0.004180 0.000000 -0.000666
v 0.004442 0.000000 -0.000547
v -0.004232 0.000000 -0.000638
v -0.004286 0.000000 -0.000609
v -0.004343 0.000000 -0.000580
v -0.004614 0.000000 -0.000437
v 0.004710 0.000000 -0.000394
v -0.004875 0.000000 -0.000287
v 0.004973 0.000000 -0.000229
v -0.005123 0.000000 -0.000130
v 0.005228 0.000000 -0.000055
v -0.005359 -0.000000 0.000032
v 0.005473 -0.000000 0.000127
v -0.005581 -0.000000 0.000200
v 0.005705 -0.000000 0.000314
v -0.005788 -0.000000 0.000373
v -0.000029 -0.000000 0.000403
v 0.005922 -0.000000 0.000504
v -0.005980 -0.000000 0.000549
v -0.000229 -0.000000 0.000404
v 0.000173 -0.000000 0.000409
v -0.000423 -0.000000 0.000412
v 0.000375 -0.000000 0.000422
v -0.000610 -0.000000 0.000427
v 0.000574 -0.000000 0.000442
v -0.000785 -0.000000 0.000450
v 0.000768 -0.000000 0.000468
v -0.000948 -0.000000 0.000479
v 0.000954 -0.000000 0.000501
v -0.001157 -0.000000 0.000533
v 0.001128 -0.000000 0.000540
v 0.006122 -0.000000 0.000696
v -0.001362 -0.000000 0.000600
v 0.001289 -0.000000 0.000585
v -0.006155 -0.000000 0.000729
v 0.001464 -0.000000 0.000647
v -0.001560 -0.000000 0.000678
v 0.001636 -0.000000 0.000719
v -0.001750 -0.000000 0.000767
v 0.006300 -0.000000 0.000887
v 0.001804 -0.000000 0.000800
v -0.006313 -0.000000 0.000911
v -0.001932 -0.000000 0.000867
v 0.001966 -0.000000 0.000889
v -0.002104 -0.000000 0.000976
v 0.006457 -0.000000 0.001075
v 0.002121 -0.000000 0.000986
v -0.006453 -0.000000 0.001094
v -0.002264 -0.000000 0.001094
v 0.002268 -0.000000 0.001090
v 0.006588 -0.000000 0.001258
v 0.002405 -0.000000 0.001199
v -0.002412 -0.000000 0.001219
v -0.006573 -0.000000 0.001278
v 0.002532 -0.000000 0.001313
v -0.002546 -0.000000 0.001352
v 0.006690 -0.000000 0.001433
v -0.006673 -0.000000 0.001462
v 0.002647 -0.000000 0.001431
v -0.002665 -0.000000 0.001491
v 0.002748 -0.000000 0.001551
v 0.006763 -0.000000 0.001578
v -0.006742 -0.000000 0.001607
v -0.002768 -0.000000 0.001636
v 0.002835 -0.000000 0.001674
v 0.006826 -0.000000 0.001713
v -0.006803 -0.000000 0.001749
v -0.002854 -0.000000 0.001785
v 0.002907 -0.000000 0.001797
v 0.006879 -0.000000 0.001841
v -0.006856 -0.000000 0.001890
v -0.002931 -0.000000 0.001952
v 0.002981 -0.000000 0.001959
v 0.006924 -0.000000 0.001965
v -0.006902 -0.000000 0.002032
v -0.002995 -0.000000 0.002126
v 0.003043 -0.000000 0.002130
v 0.006960 -0.000000 0.002089
v -0.006940 -0.000000 0.002174
v 0.006990 -0.000000 0.002217
v -0.003049 -0.000000 0.002307
v 0.003094 -0.000000 0.002310
v -0.006970 -0.000000 0.002321
v 0.007013 -0.000000 0.002350
v -0.003090 -0.000000 0.002493
v 0.003133 -0.000000 0.002496
v -0.006994 -0.000000 0.002472
v 0.007030 -0.000000 0.002495
v -0.007011 -0.000000 0.002630
v -0.003120 -0.000000 0.002682
v 0.007042 -0.000000 0.002652
v 0.003161 -0.000000 0.002686
v -0.007022 -0.000000 0.002796
v 0.007050 -0.000000 0.002827
v -0.003137 -0.000000 0.002873
v 0.003178 -0.000000 0.002879
v -0.007027 -0.000000 0.002971
v 0.007054 -0.000000 0.003021
v -0.003142 -0.000000 0.003065
v 0.003182 -0.000000 0.003073
v -0.007027 -0.000000 0.003157
v 0.007055 -0.000000 0.003239
v -0.003136 -0.000000 0.003255
v 0.003174 -0.000000 0.003266
v -0.007020 -0.000000 0.003357
v 0.007053 -0.000000 0.003409
v -0.003116 -0.000000 0.003443
v 0.003155 -0.000000 0.003456
v -0.007003 -0.000000 0.003644
v 0.007051 -0.000000 0.003559
v -0.003085 -0.000000 0.003626
v 0.003124 -0.000000 0.003642
v 0.007047 -0.000000 0.003690
v -0.003040 -0.000000 0.003804
v 0.003080 -0.000000 0.003821
v -0.006974 -0.000000 0.003917
v 0.007042 -0.000000 0.003806
v -0.002983 -0.000000 0.003974
v 0.007034 -0.000000 0.003909
v 0.003025 -0.000000 0.003992
v 0.007024 -0.000000 0.004003
v -0.006930 -0.000000 0.004178
v -0.002938 -0.000000 0.004081
v 0.002974 -0.000000 0.004110
v 0.007011 -0.000000 0.004090
v -0.002883 -0.000000 0.004191
v 0.006995 -0.000000 0.004174
v 0.002910 -0.000000 0.004230
v 0.006975 -0.000000 0.004257
v -0.006872 -0.000000 0.004427
v -0.002819 -0.000000 0.004304
v 0.002834 -0.000000 0.004351
v 0.006951 -0.000000 0.004343
v -0.002748 -0.000000 0.004417
v 0.006923 -0.000000 0.004434
v 0.002748 -0.000000 0.004471
v -0.002670 -0.000000 0.004529
v -0.006799 -0.000000 0.004667
v 0.006891 -0.000000 0.004533
v 0.002653 -0.000000 0.004590
v -0.002586 -0.000000 0.004638
v 0.006832 -0.000000 0.004700
v 0.002549 -0.000000 0.004706
v -0.002499 -0.000000 0.004744
v -0.006710 -0.000000 0.004899
v 0.006769 -0.000000 0.004859
v 0.002440 -0.000000 0.004817
v -0.002409 -0.000000 0.004844
v 0.002324 -0.000000 0.004922
v -0.002318 -0.000000 0.004936
v 0.006701 -0.000000 0.005012
v -0.006604 -0.000000 0.005125
v 0.002205 -0.000000 0.005020
v -0.002226 -0.000000 0.005020
v 0.006629 -0.000000 0.005160
v 0.002083 -0.000000 0.005109
v -0.002136 -0.000000 0.005094
v -0.002048 -0.000000 0.005157
v 0.001960 -0.000000 0.005189
v -0.006482 -0.000000 0.005347
v -0.002006 -0.000000 0.005181
v 0.006551 -0.000000 0.005303
v -0.001957 -0.000000 0.005208
v 0.001836 -0.000000 0.005257
v -0.001903 -0.000000 0.005236
v -0.001844 -0.000000 0.005264
v 0.001689 -0.000000 0.005327
v -0.001780 -0.000000 0.005294
v -0.001714 -0.000000 0.005323
v 0.006466 -0.000000 0.005444
v -0.001645 -0.000000 0.005353
v 0.001547 -0.000000 0.005390
v -0.006341 -0.000000 0.005566
v -0.001575 -0.000000 0.005383
v -0.001505 -0.000000 0.005410
v 0.001408 -0.000000 0.005444
v -0.001435 -0.000000 0.005437
v -0.001366 -0.000000 0.005463
v 0.006375 -0.000000 0.005582
v 0.001269 -0.000000 0.005490
v -0.001300 -0.000000 0.005486
v -0.001203 -0.000000 0.005516
v 0.001129 -0.000000 0.005530
v -0.001113 -0.000000 0.005542
v 0.000985 -0.000000 0.005563
v -0.001029 -0.000000 0.005565
v 0.000836 -0.000000 0.005589
v -0.000946 -0.000000 0.005583
v -0.006183 -0.000000 0.005783
v 0.006276 -0.000000 0.005718
v -0.000863 -0.000000 0.005599
v 0.000679 -0.000000 0.005609
v -0.000777 -0.000000 0.005611
v 0.000513 -0.000000 0.005624
v -0.000687 -0.000000 0.005621
v -0.000588 -0.000000 0.005628
v 0.000335 -0.000000 0.005634
v -0.000479 -0.000000 0.005633
v -0.000357 -0.000000 0.005637
v 0.000143 -0.000000 0.005638
v -0.000220 -0.000000 0.005638
v -0.000065 -0.000000 0.005639
v 0.006168 -0.000000 0.005855
v -0.006005 -0.000000 0.006001
v 0.006052 -0.000000 0.005992
v 0.005926 -0.000000 0.006132
v -0.005808 -0.000000 0.006221
v 0.005790 -0.000000 0.006274
v -0.005511 -0.000000 0.006517
v 0.005653 -0.000000 0.006411
v 0.005526 -0.000000 0.006533
v -0.005195 -0.000000 0.006788
v 0.005407 -0.000000 0.006644
v 0.005291 -0.000000 0.006744
v 0.005178 -0.000000 0.006836
v -0.004860 -0.000000 0.007035
v 0.005064 -0.000000 0.006922
v 0.004947 -0.000000 0.007003
v 0.004824 -0.000000 0.007081
v -0.004504 -0.000000 0.007260
v 0.004692 -0.000000 0.007160
v 0.004549 -0.000000 0.007239
v 0.004392 -0.000000 0.007322
v -0.004127 -0.000000 0.007461
v 0.004219 -0.000000 0.007410
v 0.003870 -0.000000 0.007573
v -0.003727 -0.000000 0.007640
v 0.003502 -0.000000 0.007720
v -0.003304 -0.000000 0.007797
v 0.003117 -0.000000 0.007851
v -0.002855 -0.000000 0.007933
v 0.002718 -0.000000 0.007966
v -0.002381 -0.000000 0.008047
v 0.002306 -0.000000 0.008064
v -0.001880 -0.000000 0.008141
v 0.001882 -0.000000 0.008146
v -0.001352 -0.000000 0.008215
v 0.001449 -0.000000 0.008210
v 0.001009 -0.000000 0.008258
v -0.000794 -0.000000 0.008269
v 0.000563 -0.000000 0.008288
v -0.000341 -0.000000 0.008293
v 0.000112 -0.000000 0.008299
vn -0.0000 1.0000 0.0000
usemtl SVGMat.028
s 1
f 1//1 2//1 3//1
f 4//1 2//1 1//1
f 4//1 5//1 2//1
f 6//1 5//1 4//1
f 6//1 7//1 5//1
f 8//1 7//1 6//1
f 8//1 9//1 7//1
f 10//1 9//1 8//1
f 10//1 11//1 9//1
f 12//1 11//1 10//1
f 12//1 13//1 11//1
f 14//1 13//1 12//1
f 15//1 13//1 14//1
f 15//1 16//1 13//1
f 17//1 16//1 15//1
f 18//1 16//1 17//1
f 18//1 19//1 16//1
f 20//1 19//1 18//1
f 20//1 21//1 19//1
f 22//1 21//1 20//1
f 22//1 23//1 21//1
f 24//1 23//1 22//1
f 24//1 25//1 23//1
f 26//1 25//1 24//1
f 27//1 25//1 26//1
f 27//1 28//1 25//1
f 29//1 28//1 27//1
f 29//1 30//1 28//1
f 31//1 30//1 29//1
f 31//1 32//1 30//1
f 33//1 32//1 31//1
f 34//1 32//1 33//1
f 34//1 35//1 32//1
f 36//1 35//1 34//1
f 36//1 37//1 35//1
f 38//1 39//1 36//1
f 39//1 37//1 36//1
f 40//1 39//1 38//1
f 40//1 41//1 39//1
f 42//1 37//1 39//1
f 43//1 37//1 42//1
f 40//1 44//1 41//1
f 45//1 37//1 43//1
f 40//1 46//1 44//1
f 45//1 47//1 37//1
f 48//1 47//1 45//1
f 40//1 49//1 46//1
f 50//1 47//1 48//1
f 40//1 51//1 49//1
f 52//1 47//1 50//1
f 40//1 53//1 51//1
f 54//1 53//1 40//1
f 54//1 55//1 53//1
f 56//1 47//1 52//1
f 54//1 57//1 55//1
f 58//1 47//1 56//1
f 54//1 59//1 57//1
f 60//1 47//1 58//1
f 61//1 59//1 54//1
f 60//1 62//1 47//1
f 63//1 62//1 60//1
f 63//1 64//1 62//1
f 61//1 65//1 59//1
f 66//1 64//1 63//1
f 67//1 65//1 61//1
f 66//1 68//1 64//1
f 69//1 68//1 66//1
f 67//1 70//1 65//1
f 69//1 71//1 68//1
f 72//1 71//1 69//1
f 73//1 70//1 67//1
f 72//1 74//1 71//1
f 75//1 74//1 72//1
f 73//1 76//1 70//1
f 77//1 76//1 73//1
f 78//1 74//1 75//1
f 78//1 79//1 74//1
f 77//1 80//1 76//1
f 81//1 79//1 78//1
f 81//1 82//1 79//1
f 83//1 80//1 77//1
f 84//1 82//1 81//1
f 84//1 85//1 82//1
f 83//1 86//1 80//1
f 87//1 86//1 83//1
f 84//1 88//1 85//1
f 89//1 88//1 84//1
f 89//1 90//1 88//1
f 91//1 86//1 87//1
f 91//1 92//1 86//1
f 93//1 90//1 89//1
f 93//1 94//1 90//1
f 95//1 92//1 91//1
f 93//1 96//1 94//1
f 95//1 97//1 92//1
f 98//1 96//1 93//1
f 98//1 99//1 96//1
f 100//1 97//1 95//1
f 100//1 101//1 97//1
f 102//1 99//1 98//1
f 102//1 103//1 99//1
f 104//1 101//1 100//1
f 105//1 103//1 102//1
f 104//1 106//1 101//1
f 105//1 107//1 103//1
f 108//1 106//1 104//1
f 109//1 107//1 105//1
f 108//1 110//1 106//1
f 109//1 111//1 107//1
f 112//1 110//1 108//1
f 113//1 111//1 109//1
f 112//1 114//1 110//1
f 115//1 111//1 113//1
f 115//1 116//1 111//1
f 117//1 114//1 112//1
f 118//1 116//1 115//1
f 117//1 119//1 114//1
f 120//1 119//1 117//1
f 118//1 121//1 116//1
f 120//1 122//1 119//1
f 123//1 121//1 118//1
f 120//1 124//1 122//1
f 125//1 124//1 120//1
f 123//1 126//1 121//1
f 127//1 126//1 123//1
f 125//1 128//1 124//1
f 129//1 126//1 127//1
f 125//1 130//1 128//1
f 131//1 130//1 125//1
f 129//1 132//1 126//1
f 133//1 132//1 129//1
f 131//1 134//1 130//1
f 135//1 132//1 133//1
f 131//1 136//1 134//1
f 137//1 132//1 135//1
f 138//1 136//1 131//1
f 139//1 132//1 137//1
f 138//1 140//1 136//1
f 139//1 141//1 132//1
f 142//1 141//1 139//1
f 138//1 143//1 140//1
f 144//1 141//1 142//1
f 145//1 141//1 144//1
f 138//1 146//1 143//1
f 147//1 141//1 145//1
f 138//1 148//1 146//1
f 149//1 141//1 147//1
f 150//1 141//1 149//1
f 138//1 151//1 148//1
f 151//1 141//1 150//1
f 138//1 141//1 151//1
f 152//1 141//1 138//1
f 152//1 153//1 141//1
f 154//1 153//1 152//1
f 154//1 155//1 153//1
f 156//1 155//1 154//1
f 156//1 157//1 155//1
f 158//1 157//1 156//1
f 158//1 159//1 157//1
f 158//1 160//1 159//1
f 161//1 160//1 158//1
f 161//1 162//1 160//1
f 163//1 162//1 161//1
f 163//1 164//1 162//1
f 165//1 164//1 163//1
f 165//1 166//1 164//1
f 167//1 166//1 165//1
f 167//1 168//1 166//1
f 169//1 168//1 167//1
f 169//1 170//1 168//1
f 171//1 170//1 169//1
f 171//1 172//1 170//1
f 173//1 172//1 171//1
f 173//1 174//1 172//1
f 175//1 174//1 173//1
f 175//1 176//1 174//1
f 177//1 176//1 175//1
f 177//1 178//1 176//1
f 179//1 178//1 177//1
f 179//1 180//1 178//1
f 179//1 181//1 180//1
f 182//1 181//1 179//1
f 182//1 183//1 181//1
f 184//1 183//1 182//1
f 184//1 185//1 183//1
f 186//1 185//1 184//1
f 186//1 187//1 185//1
f 188//1 187//1 186//1
f 188//1 189//1 187//1
f 190//1 189//1 188//1
f 190//1 191//1 189//1
f 192//1 191//1 190//1
f 192//1 193//1 191//1
f 192//1 194//1 193//1
f 195//1 194//1 192//1
f 195//1 196//1 194//1
f 197//1 196//1 195//1
f 197//1 198//1 196//1
f 197//1 199//1 198//1
f 200//1 199//1 197//1
f 200//1 201//1 199//1
f 202//1 201//1 200//1
f 202//1 203//1 201//1
f 204//1 203//1 202//1
f 205//1 203//1 204//1
f 206//1 203//1 205//1
f 207//1 203//1 206//1
f 207//1 208//1 203//1
f 209//1 208//1 207//1
f 209//1 210//1 208//1
f 211//1 210//1 209//1
f 211//1 212//1 210//1
f 213//1 212//1 211//1
f 213//1 214//1 212//1
f 215//1 214//1 213//1
f 215//1 216//1 214//1
f 217//1 216//1 215//1
f 217//1 218//1 216//1
f 218//1 219//1 216//1
f 220//1 221//1 217//1
f 221//1 218//1 217//1
f 222//1 219//1 218//1
f 220//1 223//1 221//1
f 224//1 219//1 222//1
f 220//1 225//1 223//1
f 226//1 219//1 224//1
f 220//1 227//1 225//1
f 228//1 219//1 226//1
f 220//1 229//1 227//1
f 230//1 219//1 228//1
f 220//1 231//1 229//1
f 232//1 219//1 230//1
f 232//1 233//1 219//1
f 220//1 234//1 231//1
f 235//1 233//1 232//1
f 236//1 234//1 220//1
f 237//1 233//1 235//1
f 236//1 238//1 234//1
f 239//1 233//1 237//1
f 236//1 240//1 238//1
f 239//1 241//1 233//1
f 242//1 241//1 239//1
f 243//1 240//1 236//1
f 243//1 244//1 240//1
f 245//1 241//1 242//1
f 243//1 246//1 244//1
f 245//1 247//1 241//1
f 248//1 247//1 245//1
f 249//1 246//1 243//1
f 249//1 250//1 246//1
f 251//1 247//1 248//1
f 251//1 252//1 247//1
f 253//1 252//1 251//1
f 249//1 254//1 250//1
f 255//1 254//1 249//1
f 256//1 252//1 253//1
f 255//1 257//1 254//1
f 256//1 258//1 252//1
f 259//1 257//1 255//1
f 260//1 258//1 256//1
f 259//1 261//1 257//1
f 262//1 258//1 260//1
f 262//1 263//1 258//1
f 264//1 261//1 259//1
f 264//1 265//1 261//1
f 266//1 263//1 262//1
f 266//1 267//1 263//1
f 268//1 265//1 264//1
f 268//1 269//1 265//1
f 270//1 267//1 266//1
f 270//1 271//1 267//1
f 272//1 269//1 268//1
f 272//1 273//1 269//1
f 274//1 271//1 270//1
f 274//1 275//1 271//1
f 276//1 273//1 272//1
f 276//1 277//1 273//1
f 278//1 275//1 274//1
f 278//1 279//1 275//1
f 280//1 277//1 276//1
f 278//1 281//1 279//1
f 280//1 282//1 277//1
f 283//1 281//1 278//1
f 284//1 282//1 280//1
f 283//1 285//1 281//1
f 284//1 286//1 282//1
f 287//1 285//1 283//1
f 288//1 286//1 284//1
f 287//1 289//1 285//1
f 290//1 286//1 288//1
f 290//1 291//1 286//1
f 287//1 292//1 289//1
f 293//1 292//1 287//1
f 294//1 291//1 290//1
f 293//1 295//1 292//1
f 294//1 296//1 291//1
f 297//1 295//1 293//1
f 298//1 296//1 294//1
f 297//1 299//1 295//1
f 298//1 300//1 296//1
f 301//1 299//1 297//1
f 302//1 300//1 298//1
f 301//1 303//1 299//1
f 302//1 304//1 300//1
f 305//1 303//1 301//1
f 306//1 304//1 302//1
f 305//1 307//1 303//1
f 306//1 308//1 304//1
f 309//1 307//1 305//1
f 310//1 308//1 306//1
f 309//1 311//1 307//1
f 310//1 312//1 308//1
f 313//1 311//1 309//1
f 313//1 314//1 311//1
f 310//1 315//1 312//1
f 316//1 314//1 313//1
f 317//1 315//1 310//1
f 316//1 318//1 314//1
f 317//1 319//1 315//1
f 316//1 320//1 318//1
f 321//1 320//1 316//1
f 321//1 322//1 320//1
f 323//1 319//1 317//1
f 323//1 324//1 319//1
f 325//1 322//1 321//1
f 325//1 326//1 322//1
f 323//1 327//1 324//1
f 325//1 328//1 326//1
f 329//1 328//1 325//1
f 329//1 330//1 328//1
f 331//1 327//1 323//1
f 331//1 332//1 327//1
f 333//1 330//1 329//1
f 333//1 334//1 330//1
f 331//1 335//1 332//1
f 333//1 336//1 334//1
f 337//1 336//1 333//1
f 331//1 338//1 335//1
f 339//1 338//1 331//1
f 337//1 340//1 336//1
f 341//1 340//1 337//1
f 339//1 342//1 338//1
f 341//1 343//1 340//1
f 344//1 343//1 341//1
f 339//1 345//1 342//1
f 346//1 345//1 339//1
f 344//1 347//1 343//1
f 348//1 347//1 344//1
f 346//1 349//1 345//1
f 350//1 347//1 348//1
f 346//1 351//1 349//1
f 350//1 352//1 347//1
f 353//1 351//1 346//1
f 354//1 352//1 350//1
f 353//1 355//1 351//1
f 354//1 356//1 352//1
f 357//1 356//1 354//1
f 353//1 358//1 355//1
f 353//1 359//1 358//1
f 360//1 356//1 357//1
f 361//1 359//1 353//1
f 361//1 362//1 359//1
f 360//1 363//1 356//1
f 361//1 364//1 362//1
f 365//1 363//1 360//1
f 361//1 366//1 364//1
f 361//1 367//1 366//1
f 368//1 363//1 365//1
f 361//1 369//1 367//1
f 361//1 370//1 369//1
f 368//1 371//1 363//1
f 361//1 372//1 370//1
f 373//1 371//1 368//1
f 374//1 372//1 361//1
f 374//1 375//1 372//1
f 374//1 376//1 375//1
f 377//1 371//1 373//1
f 374//1 378//1 376//1
f 374//1 379//1 378//1
f 377//1 380//1 371//1
f 381//1 380//1 377//1
f 374//1 382//1 379//1
f 374//1 383//1 382//1
f 384//1 380//1 381//1
f 374//1 385//1 383//1
f 386//1 380//1 384//1
f 374//1 387//1 385//1
f 388//1 380//1 386//1
f 374//1 389//1 387//1
f 390//1 389//1 374//1
f 388//1 391//1 380//1
f 390//1 392//1 389//1
f 393//1 391//1 388//1
f 390//1 394//1 392//1
f 395//1 391//1 393//1
f 390//1 396//1 394//1
f 390//1 397//1 396//1
f 398//1 391//1 395//1
f 390//1 399//1 397//1
f 390//1 400//1 399//1
f 401//1 391//1 398//1
f 390//1 402//1 400//1
f 403//1 391//1 401//1
f 390//1 403//1 402//1
f 390//1 391//1 403//1
f 390//1 404//1 391//1
f 405//1 404//1 390//1
f 405//1 406//1 404//1
f 405//1 407//1 406//1
f 408//1 407//1 405//1
f 408//1 409//1 407//1
f 410//1 409//1 408//1
f 410//1 411//1 409//1
f 410//1 412//1 411//1
f 413//1 412//1 410//1
f 413//1 414//1 412//1
f 413//1 415//1 414//1
f 413//1 416//1 415//1
f 417//1 416//1 413//1
f 417//1 418//1 416//1
f 417//1 419//1 418//1
f 417//1 420//1 419//1
f 421//1 420//1 417//1
f 421//1 422//1 420//1
f 421//1 423//1 422//1
f 421//1 424//1 423//1
f 425//1 424//1 421//1
f 425//1 426//1 424//1
f 425//1 427//1 426//1
f 428//1 427//1 425//1
f 428//1 429//1 427//1
f 430//1 429//1 428//1
f 430//1 431//1 429//1
f 432//1 431//1 430//1
f 432//1 433//1 431//1
f 434//1 433//1 432//1
f 434//1 435//1 433//1
f 436//1 435//1 434//1
f 436//1 437//1 435//1
f 438//1 437//1 436//1
f 438//1 439//1 437//1
f 438//1 440//1 439//1
f 441//1 440//1 438//1
f 441//1 442//1 440//1
f 443//1 442//1 441//1
f 443//1 444//1 442//1
