# Blender v2.81 (sub 16) OBJ File: ''
# www.blender.org
mtllib B.mtl
o B
v -0.007549 -0.000000 0.000000
v -0.007444 0.000000 -0.008225
v -0.007549 0.000000 -0.008225
v -0.007153 0.000000 -0.008225
v -0.006713 0.000000 -0.008225
v -0.006162 0.000000 -0.008225
v -0.005536 0.000000 -0.008225
v -0.004874 0.000000 -0.008225
v -0.004211 0.000000 -0.008225
v -0.003585 0.000000 -0.008225
v -0.003034 0.000000 -0.008225
v -0.002594 0.000000 -0.008225
v -0.002303 0.000000 -0.008225
v -0.002198 0.000000 -0.008225
v -0.001019 0.000000 -0.008224
v -0.000023 0.000000 -0.008223
v 0.000810 0.000000 -0.008219
v -0.002447 0.000000 -0.004890
v 0.001498 0.000000 -0.008212
v 0.002057 0.000000 -0.008202
v 0.002508 0.000000 -0.008188
v 0.002868 0.000000 -0.008168
v 0.003155 0.000000 -0.008142
v 0.003387 0.000000 -0.008109
v 0.003583 0.000000 -0.008069
v 0.003760 0.000000 -0.008021
v 0.003938 0.000000 -0.007964
v 0.004214 0.000000 -0.007864
v 0.004477 0.000000 -0.007753
v 0.004726 0.000000 -0.007629
v 0.004962 0.000000 -0.007493
v 0.005186 0.000000 -0.007343
v 0.005397 0.000000 -0.007181
v 0.005596 0.000000 -0.007006
v 0.005784 0.000000 -0.006817
v 0.005961 0.000000 -0.006614
v 0.006127 0.000000 -0.006398
v 0.006282 0.000000 -0.006168
v 0.006427 0.000000 -0.005923
v 0.006482 0.000000 -0.005820
v 0.006529 0.000000 -0.005720
v 0.006569 0.000000 -0.005621
v 0.006603 0.000000 -0.005518
v 0.006630 0.000000 -0.005409
v 0.006652 0.000000 -0.005290
v 0.006670 0.000000 -0.005158
v 0.006682 0.000000 -0.005009
v 0.006691 0.000000 -0.004840
v -0.002447 0.000000 -0.003385
v -0.000692 0.000000 -0.004840
v 0.001063 0.000000 -0.004803
v 0.006697 0.000000 -0.004648
v 0.001070 0.000000 -0.004795
v 0.001090 0.000000 -0.004773
v 0.001119 0.000000 -0.004739
v 0.001156 0.000000 -0.004697
v 0.001199 0.000000 -0.004649
v 0.001243 0.000000 -0.004598
v 0.006700 0.000000 -0.004429
v 0.001288 0.000000 -0.004547
v 0.001330 0.000000 -0.004499
v 0.001367 0.000000 -0.004457
v 0.001397 0.000000 -0.004423
v 0.006701 0.000000 -0.004181
v 0.001417 0.000000 -0.004401
v 0.001424 0.000000 -0.004392
v 0.001491 0.000000 -0.004314
v 0.001550 0.000000 -0.004240
v 0.001601 0.000000 -0.004169
v 0.006700 0.000000 -0.003935
v 0.001645 0.000000 -0.004098
v 0.001681 0.000000 -0.004028
v 0.001712 0.000000 -0.003955
v 0.001736 0.000000 -0.003880
v 0.006696 0.000000 -0.003717
v 0.001755 0.000000 -0.003799
v 0.001769 0.000000 -0.003712
v 0.006689 0.000000 -0.003526
v 0.001778 0.000000 -0.003617
v 0.001783 0.000000 -0.003512
v 0.006679 0.000000 -0.003356
v 0.001785 0.000000 -0.003397
v 0.001772 0.000000 -0.003114
v -0.002447 0.000000 -0.001879
v 0.006666 0.000000 -0.003206
v 0.006648 0.000000 -0.003072
v 0.001733 0.000000 -0.002866
v 0.006625 0.000000 -0.002951
v 0.006597 0.000000 -0.002841
v 0.001663 0.000000 -0.002651
v 0.006564 0.000000 -0.002737
v 0.006525 0.000000 -0.002638
v 0.001559 0.000000 -0.002467
v 0.006479 0.000000 -0.002540
v 0.006427 0.000000 -0.002439
v 0.001417 0.000000 -0.002313
v 0.006340 0.000000 -0.002285
v 0.001232 0.000000 -0.002185
v 0.006243 0.000000 -0.002133
v 0.001003 0.000000 -0.002083
v 0.006135 0.000000 -0.001983
v 0.000725 0.000000 -0.002004
v 0.000393 0.000000 -0.001946
v 0.006017 0.000000 -0.001838
v 0.000006 0.000000 -0.001908
v -0.000442 0.000000 -0.001886
v -0.000953 0.000000 -0.001879
v -0.002417 0.000000 -0.001879
v -0.002336 0.000000 -0.001879
v -0.002213 0.000000 -0.001879
v -0.002060 0.000000 -0.001879
v -0.001885 0.000000 -0.001879
v -0.001700 0.000000 -0.001879
v -0.001515 0.000000 -0.001879
v -0.001340 0.000000 -0.001879
v -0.001187 0.000000 -0.001879
v -0.001064 0.000000 -0.001879
v -0.000983 0.000000 -0.001879
v 0.005890 0.000000 -0.001695
v 0.005753 0.000000 -0.001557
v 0.005608 0.000000 -0.001423
v 0.005455 0.000000 -0.001294
v 0.005295 0.000000 -0.001170
v 0.005127 0.000000 -0.001052
v 0.004952 0.000000 -0.000940
v 0.004772 0.000000 -0.000834
v 0.004697 0.000000 -0.000791
v 0.004629 0.000000 -0.000749
v 0.004568 0.000000 -0.000710
v 0.004514 0.000000 -0.000673
v 0.004469 0.000000 -0.000638
v 0.004431 0.000000 -0.000607
v 0.004402 0.000000 -0.000579
v 0.004382 0.000000 -0.000555
v 0.004371 0.000000 -0.000536
v 0.004370 0.000000 -0.000522
v 0.004379 0.000000 -0.000513
v 0.004398 0.000000 -0.000510
v 0.004513 0.000000 -0.000496
v 0.004660 0.000000 -0.000454
v 0.004833 0.000000 -0.000388
v 0.005025 0.000000 -0.000303
v 0.005231 0.000000 -0.000201
v 0.005445 0.000000 -0.000086
v 0.005660 -0.000000 0.000039
v -0.007549 -0.000000 0.008225
v -0.002447 -0.000000 0.001356
v 0.005871 -0.000000 0.000170
v 0.006070 -0.000000 0.000303
v 0.006252 -0.000000 0.000436
v 0.006410 -0.000000 0.000564
v 0.006539 -0.000000 0.000684
v 0.006732 -0.000000 0.000906
v 0.006905 -0.000000 0.001148
v -0.000704 -0.000000 0.001356
v -0.000396 -0.000000 0.001357
v 0.007059 -0.000000 0.001407
v -0.002447 -0.000000 0.002974
v -0.000115 -0.000000 0.001361
v 0.000139 -0.000000 0.001366
v 0.000368 -0.000000 0.001375
v 0.000574 -0.000000 0.001386
v 0.000760 -0.000000 0.001400
v 0.000925 -0.000000 0.001417
v 0.007193 -0.000000 0.001682
v 0.001073 -0.000000 0.001437
v 0.001205 -0.000000 0.001461
v 0.001323 -0.000000 0.001489
v 0.001428 -0.000000 0.001520
v 0.001523 -0.000000 0.001555
v 0.001677 -0.000000 0.001620
v 0.001814 -0.000000 0.001692
v 0.007307 -0.000000 0.001972
v 0.001934 -0.000000 0.001771
v 0.002040 -0.000000 0.001859
v 0.002131 -0.000000 0.001956
v 0.002208 -0.000000 0.002062
v 0.007399 -0.000000 0.002275
v 0.002271 -0.000000 0.002180
v 0.002322 -0.000000 0.002309
v 0.007470 -0.000000 0.002589
v 0.002360 -0.000000 0.002451
v 0.002386 -0.000000 0.002607
v 0.007519 -0.000000 0.002913
v 0.002402 -0.000000 0.002776
v 0.002407 -0.000000 0.002961
v 0.007545 -0.000000 0.003244
v 0.002405 -0.000000 0.003077
v -0.002447 -0.000000 0.004591
v 0.002400 -0.000000 0.003183
v 0.002391 -0.000000 0.003280
v 0.007549 -0.000000 0.003581
v 0.002378 -0.000000 0.003369
v 0.002361 -0.000000 0.003451
v 0.002339 -0.000000 0.003529
v 0.002311 -0.000000 0.003603
v 0.007529 -0.000000 0.003923
v 0.002278 -0.000000 0.003674
v 0.002239 -0.000000 0.003743
v 0.002194 -0.000000 0.003813
v 0.002142 -0.000000 0.003884
v 0.002083 -0.000000 0.003957
v 0.007485 -0.000000 0.004268
v 0.001972 -0.000000 0.004079
v 0.001852 -0.000000 0.004185
v 0.001720 -0.000000 0.004276
v 0.007442 -0.000000 0.004509
v 0.001570 -0.000000 0.004353
v 0.001399 -0.000000 0.004418
v 0.001201 -0.000000 0.004470
v 0.000973 -0.000000 0.004511
v 0.007387 -0.000000 0.004743
v 0.000709 -0.000000 0.004543
v 0.000405 -0.000000 0.004566
v 0.000057 -0.000000 0.004581
v -0.000341 -0.000000 0.004589
v -0.000791 -0.000000 0.004591
v -0.002414 -0.000000 0.004591
v -0.002324 -0.000000 0.004591
v -0.002188 -0.000000 0.004591
v -0.002018 -0.000000 0.004591
v -0.001824 -0.000000 0.004591
v -0.001619 -0.000000 0.004591
v -0.001414 -0.000000 0.004591
v -0.001221 -0.000000 0.004591
v -0.001050 -0.000000 0.004591
v -0.000914 -0.000000 0.004591
v -0.000824 -0.000000 0.004591
v 0.007320 -0.000000 0.004970
v 0.007242 -0.000000 0.005189
v 0.007151 -0.000000 0.005402
v 0.007048 -0.000000 0.005608
v 0.006932 -0.000000 0.005809
v 0.006803 -0.000000 0.006005
v 0.006660 -0.000000 0.006196
v 0.006505 -0.000000 0.006382
v 0.006336 -0.000000 0.006565
v 0.006153 -0.000000 0.006744
v 0.005835 -0.000000 0.007029
v 0.005520 -0.000000 0.007271
v 0.005184 -0.000000 0.007475
v 0.004807 -0.000000 0.007643
v 0.004365 -0.000000 0.007779
v 0.003837 -0.000000 0.007887
v 0.003199 -0.000000 0.007971
v 0.002430 -0.000000 0.008035
v 0.001506 -0.000000 0.008082
v 0.000407 -0.000000 0.008117
v -0.000891 -0.000000 0.008142
v -0.002409 -0.000000 0.008162
vn 0.0000 1.0000 0.0000
usemtl SVGMat.036
s off
f 1//1 2//1 3//1
f 1//1 4//1 2//1
f 1//1 5//1 4//1
f 1//1 6//1 5//1
f 1//1 7//1 6//1
f 1//1 8//1 7//1
f 1//1 9//1 8//1
f 1//1 10//1 9//1
f 1//1 11//1 10//1
f 1//1 12//1 11//1
f 1//1 13//1 12//1
f 1//1 14//1 13//1
f 1//1 15//1 14//1
f 1//1 16//1 15//1
f 1//1 17//1 16//1
f 1//1 18//1 17//1
f 18//1 19//1 17//1
f 18//1 20//1 19//1
f 18//1 21//1 20//1
f 18//1 22//1 21//1
f 18//1 23//1 22//1
f 18//1 24//1 23//1
f 18//1 25//1 24//1
f 18//1 26//1 25//1
f 18//1 27//1 26//1
f 18//1 28//1 27//1
f 18//1 29//1 28//1
f 18//1 30//1 29//1
f 18//1 31//1 30//1
f 18//1 32//1 31//1
f 18//1 33//1 32//1
f 18//1 34//1 33//1
f 18//1 35//1 34//1
f 18//1 36//1 35//1
f 18//1 37//1 36//1
f 18//1 38//1 37//1
f 18//1 39//1 38//1
f 18//1 40//1 39//1
f 18//1 41//1 40//1
f 18//1 42//1 41//1
f 18//1 43//1 42//1
f 18//1 44//1 43//1
f 18//1 45//1 44//1
f 18//1 46//1 45//1
f 18//1 47//1 46//1
f 18//1 48//1 47//1
f 1//1 49//1 18//1
f 50//1 48//1 18//1
f 51//1 48//1 50//1
f 51//1 52//1 48//1
f 53//1 52//1 51//1
f 54//1 52//1 53//1
f 55//1 52//1 54//1
f 56//1 52//1 55//1
f 57//1 52//1 56//1
f 58//1 52//1 57//1
f 58//1 59//1 52//1
f 60//1 59//1 58//1
f 61//1 59//1 60//1
f 62//1 59//1 61//1
f 63//1 59//1 62//1
f 63//1 64//1 59//1
f 65//1 64//1 63//1
f 66//1 64//1 65//1
f 67//1 64//1 66//1
f 68//1 64//1 67//1
f 69//1 64//1 68//1
f 69//1 70//1 64//1
f 71//1 70//1 69//1
f 72//1 70//1 71//1
f 73//1 70//1 72//1
f 74//1 70//1 73//1
f 74//1 75//1 70//1
f 76//1 75//1 74//1
f 77//1 75//1 76//1
f 77//1 78//1 75//1
f 79//1 78//1 77//1
f 80//1 78//1 79//1
f 80//1 81//1 78//1
f 82//1 81//1 80//1
f 83//1 81//1 82//1
f 1//1 84//1 49//1
f 83//1 85//1 81//1
f 83//1 86//1 85//1
f 87//1 86//1 83//1
f 87//1 88//1 86//1
f 87//1 89//1 88//1
f 90//1 89//1 87//1
f 90//1 91//1 89//1
f 90//1 92//1 91//1
f 93//1 92//1 90//1
f 93//1 94//1 92//1
f 93//1 95//1 94//1
f 96//1 95//1 93//1
f 96//1 97//1 95//1
f 98//1 97//1 96//1
f 98//1 99//1 97//1
f 100//1 99//1 98//1
f 100//1 101//1 99//1
f 102//1 101//1 100//1
f 103//1 101//1 102//1
f 103//1 104//1 101//1
f 105//1 104//1 103//1
f 106//1 104//1 105//1
f 107//1 104//1 106//1
f 1//1 108//1 84//1
f 1//1 109//1 108//1
f 1//1 110//1 109//1
f 1//1 111//1 110//1
f 1//1 112//1 111//1
f 1//1 113//1 112//1
f 1//1 114//1 113//1
f 1//1 115//1 114//1
f 1//1 116//1 115//1
f 1//1 117//1 116//1
f 1//1 118//1 117//1
f 1//1 107//1 118//1
f 1//1 104//1 107//1
f 1//1 119//1 104//1
f 1//1 120//1 119//1
f 1//1 121//1 120//1
f 1//1 122//1 121//1
f 1//1 123//1 122//1
f 1//1 124//1 123//1
f 1//1 125//1 124//1
f 1//1 126//1 125//1
f 1//1 127//1 126//1
f 1//1 128//1 127//1
f 1//1 129//1 128//1
f 1//1 130//1 129//1
f 1//1 131//1 130//1
f 1//1 132//1 131//1
f 1//1 133//1 132//1
f 1//1 134//1 133//1
f 1//1 135//1 134//1
f 1//1 136//1 135//1
f 1//1 137//1 136//1
f 1//1 138//1 137//1
f 1//1 139//1 138//1
f 1//1 140//1 139//1
f 1//1 141//1 140//1
f 1//1 142//1 141//1
f 1//1 143//1 142//1
f 1//1 144//1 143//1
f 1//1 145//1 144//1
f 146//1 147//1 1//1
f 147//1 145//1 1//1
f 147//1 148//1 145//1
f 147//1 149//1 148//1
f 147//1 150//1 149//1
f 147//1 151//1 150//1
f 147//1 152//1 151//1
f 147//1 153//1 152//1
f 147//1 154//1 153//1
f 147//1 155//1 154//1
f 155//1 156//1 154//1
f 156//1 157//1 154//1
f 146//1 158//1 147//1
f 159//1 157//1 156//1
f 160//1 157//1 159//1
f 161//1 157//1 160//1
f 162//1 157//1 161//1
f 163//1 157//1 162//1
f 164//1 157//1 163//1
f 164//1 165//1 157//1
f 166//1 165//1 164//1
f 167//1 165//1 166//1
f 168//1 165//1 167//1
f 169//1 165//1 168//1
f 170//1 165//1 169//1
f 171//1 165//1 170//1
f 172//1 165//1 171//1
f 172//1 173//1 165//1
f 174//1 173//1 172//1
f 175//1 173//1 174//1
f 176//1 173//1 175//1
f 177//1 173//1 176//1
f 177//1 178//1 173//1
f 179//1 178//1 177//1
f 180//1 178//1 179//1
f 180//1 181//1 178//1
f 182//1 181//1 180//1
f 183//1 181//1 182//1
f 183//1 184//1 181//1
f 185//1 184//1 183//1
f 186//1 184//1 185//1
f 186//1 187//1 184//1
f 188//1 187//1 186//1
f 146//1 189//1 158//1
f 190//1 187//1 188//1
f 191//1 187//1 190//1
f 191//1 192//1 187//1
f 193//1 192//1 191//1
f 194//1 192//1 193//1
f 195//1 192//1 194//1
f 196//1 192//1 195//1
f 196//1 197//1 192//1
f 198//1 197//1 196//1
f 199//1 197//1 198//1
f 200//1 197//1 199//1
f 201//1 197//1 200//1
f 202//1 197//1 201//1
f 202//1 203//1 197//1
f 204//1 203//1 202//1
f 205//1 203//1 204//1
f 206//1 203//1 205//1
f 206//1 207//1 203//1
f 208//1 207//1 206//1
f 209//1 207//1 208//1
f 210//1 207//1 209//1
f 211//1 207//1 210//1
f 211//1 212//1 207//1
f 213//1 212//1 211//1
f 214//1 212//1 213//1
f 215//1 212//1 214//1
f 216//1 212//1 215//1
f 217//1 212//1 216//1
f 146//1 218//1 189//1
f 146//1 219//1 218//1
f 146//1 220//1 219//1
f 146//1 221//1 220//1
f 146//1 222//1 221//1
f 146//1 223//1 222//1
f 146//1 224//1 223//1
f 146//1 225//1 224//1
f 146//1 226//1 225//1
f 146//1 227//1 226//1
f 146//1 228//1 227//1
f 146//1 217//1 228//1
f 146//1 212//1 217//1
f 146//1 229//1 212//1
f 146//1 230//1 229//1
f 146//1 231//1 230//1
f 146//1 232//1 231//1
f 146//1 233//1 232//1
f 146//1 234//1 233//1
f 146//1 235//1 234//1
f 146//1 236//1 235//1
f 146//1 237//1 236//1
f 146//1 238//1 237//1
f 146//1 239//1 238//1
f 146//1 240//1 239//1
f 146//1 241//1 240//1
f 146//1 242//1 241//1
f 146//1 243//1 242//1
f 146//1 244//1 243//1
f 146//1 245//1 244//1
f 146//1 246//1 245//1
f 146//1 247//1 246//1
f 146//1 248//1 247//1
f 146//1 249//1 248//1
f 146//1 250//1 249//1
