# Blender v2.81 (sub 16) OBJ File: ''
# www.blender.org
mtllib C.mtl
o C
v 0.000013 0.000000 -0.008446
v 0.000680 0.000000 -0.008442
v 0.000345 0.000000 -0.008449
v -0.000315 0.000000 -0.008437
v 0.001013 0.000000 -0.008430
v -0.000638 0.000000 -0.008418
v 0.001341 0.000000 -0.008408
v -0.000950 0.000000 -0.008391
v 0.001664 0.000000 -0.008380
v -0.001625 0.000000 -0.008305
v 0.001979 0.000000 -0.008346
v 0.002283 0.000000 -0.008306
v 0.002571 0.000000 -0.008259
v -0.002273 0.000000 -0.008174
v 0.002846 0.000000 -0.008205
v 0.003249 0.000000 -0.008104
v -0.002894 0.000000 -0.008000
v 0.003634 0.000000 -0.007985
v -0.003483 0.000000 -0.007784
v 0.004002 0.000000 -0.007850
v 0.004351 0.000000 -0.007697
v -0.004043 0.000000 -0.007527
v 0.004685 0.000000 -0.007527
v 0.005005 0.000000 -0.007337
v -0.004570 0.000000 -0.007229
v 0.005309 0.000000 -0.007128
v -0.005065 0.000000 -0.006893
v 0.005598 0.000000 -0.006899
v 0.005877 0.000000 -0.006651
v -0.005524 0.000000 -0.006519
v 0.006142 0.000000 -0.006382
v -0.005948 0.000000 -0.006109
v 0.006396 0.000000 -0.006091
v -0.006334 0.000000 -0.005660
v 0.006640 0.000000 -0.005778
v 0.006770 0.000000 -0.005590
v -0.006680 0.000000 -0.005176
v 0.006909 0.000000 -0.005371
v 0.007050 0.000000 -0.005131
v -0.006986 0.000000 -0.004658
v 0.007190 0.000000 -0.004876
v 0.000511 0.000000 -0.004641
v 0.007325 0.000000 -0.004618
v -0.007241 0.000000 -0.004112
v 0.000014 0.000000 -0.004608
v 0.001006 0.000000 -0.004589
v 0.007453 0.000000 -0.004362
v -0.000471 0.000000 -0.004498
v 0.001492 0.000000 -0.004453
v -0.000938 0.000000 -0.004314
v 0.001955 0.000000 -0.004229
v 0.007568 0.000000 -0.004118
v -0.001372 0.000000 -0.004056
v 0.002385 0.000000 -0.003913
v 0.007664 0.000000 -0.003893
v -0.007459 0.000000 -0.003506
v -0.001764 0.000000 -0.003728
v 0.002463 0.000000 -0.003843
v 0.007740 0.000000 -0.003698
v 0.002542 0.000000 -0.003767
v 0.002619 0.000000 -0.003687
v -0.002103 0.000000 -0.003336
v 0.007790 0.000000 -0.003539
v 0.002695 0.000000 -0.003602
v 0.002769 0.000000 -0.003514
v 0.007812 0.000000 -0.003425
v 0.002838 0.000000 -0.003425
v -0.007637 0.000000 -0.002850
v 0.002906 0.000000 -0.003336
v 0.007798 0.000000 -0.003364
v 0.007707 0.000000 -0.003330
v -0.002379 0.000000 -0.002882
v 0.002966 0.000000 -0.003247
v 0.007480 0.000000 -0.003269
v 0.007143 0.000000 -0.003187
v 0.003022 0.000000 -0.003161
v 0.006725 0.000000 -0.003089
v 0.003070 0.000000 -0.003079
v 0.006251 0.000000 -0.002983
v 0.003112 0.000000 -0.003001
v 0.003144 0.000000 -0.002929
v 0.005745 0.000000 -0.002870
v 0.003173 0.000000 -0.002860
v -0.002581 0.000000 -0.002369
v 0.005235 0.000000 -0.002759
v 0.003204 0.000000 -0.002793
v -0.007777 0.000000 -0.002157
v 0.003237 0.000000 -0.002730
v 0.004747 0.000000 -0.002656
v 0.003272 0.000000 -0.002673
v 0.003307 0.000000 -0.002620
v 0.004309 0.000000 -0.002566
v 0.003342 0.000000 -0.002573
v 0.003378 0.000000 -0.002531
v 0.003944 0.000000 -0.002496
v 0.003414 0.000000 -0.002497
v 0.003448 0.000000 -0.002469
v 0.003679 0.000000 -0.002448
v 0.003481 0.000000 -0.002448
v 0.003512 0.000000 -0.002436
v 0.003543 0.000000 -0.002432
v -0.002643 0.000000 -0.002130
v -0.007879 0.000000 -0.001434
v -0.002697 0.000000 -0.001858
v -0.002743 0.000000 -0.001558
v -0.002782 0.000000 -0.001237
v -0.007938 0.000000 -0.000695
v -0.002811 0.000000 -0.000898
v -0.002834 0.000000 -0.000549
v -0.007959 -0.000000 0.000049
v -0.002846 0.000000 -0.000194
v -0.002850 -0.000000 0.000161
v -0.007938 -0.000000 0.000790
v -0.002844 -0.000000 0.000511
v -0.002828 -0.000000 0.000851
v -0.007876 -0.000000 0.001515
v -0.002803 -0.000000 0.001174
v -0.002768 -0.000000 0.001476
v -0.002672 -0.000000 0.002021
v -0.007772 -0.000000 0.002213
v 0.003636 -0.000000 0.001557
v 0.003691 -0.000000 0.001556
v 0.003655 -0.000000 0.001551
v 0.003762 -0.000000 0.001573
v 0.003615 -0.000000 0.001577
v 0.003866 -0.000000 0.001601
v 0.003591 -0.000000 0.001609
v 0.004000 -0.000000 0.001637
v 0.003565 -0.000000 0.001652
v 0.004161 -0.000000 0.001683
v 0.003536 -0.000000 0.001706
v 0.004344 -0.000000 0.001736
v 0.003505 -0.000000 0.001768
v 0.004552 -0.000000 0.001796
v 0.003474 -0.000000 0.001839
v 0.004777 -0.000000 0.001862
v 0.003442 -0.000000 0.001917
v 0.005019 -0.000000 0.001934
v 0.003410 -0.000000 0.002001
v 0.005276 -0.000000 0.002010
v 0.003377 -0.000000 0.002091
v 0.005544 -0.000000 0.002089
v -0.002546 -0.000000 0.002514
v 0.005819 -0.000000 0.002173
v 0.003346 -0.000000 0.002187
v 0.006098 -0.000000 0.002258
v 0.003319 -0.000000 0.002285
v -0.007625 -0.000000 0.002876
v 0.006367 -0.000000 0.002340
v 0.003199 -0.000000 0.002638
v 0.006621 -0.000000 0.002417
v 0.006859 -0.000000 0.002488
v 0.007081 -0.000000 0.002555
v -0.002389 -0.000000 0.002953
v 0.007281 -0.000000 0.002613
v 0.007459 -0.000000 0.002667
v 0.003057 -0.000000 0.002963
v 0.007612 -0.000000 0.002711
v 0.007738 -0.000000 0.002747
v 0.007833 -0.000000 0.002773
v 0.007895 -0.000000 0.002789
v 0.007923 -0.000000 0.002794
v 0.007950 -0.000000 0.002816
v 0.007959 -0.000000 0.002877
v -0.007435 -0.000000 0.003492
v 0.007951 -0.000000 0.002974
v -0.002201 -0.000000 0.003340
v 0.002897 -0.000000 0.003259
v 0.007927 -0.000000 0.003102
v 0.007889 -0.000000 0.003258
v 0.007838 -0.000000 0.003436
v 0.002715 -0.000000 0.003527
v -0.001980 -0.000000 0.003676
v 0.007773 -0.000000 0.003635
v -0.007190 -0.000000 0.004095
v 0.002511 -0.000000 0.003767
v 0.007697 -0.000000 0.003847
v -0.001725 -0.000000 0.003961
v 0.002289 -0.000000 0.003977
v 0.007614 -0.000000 0.004070
v -0.001437 -0.000000 0.004196
v 0.002045 -0.000000 0.004161
v 0.007519 -0.000000 0.004300
v -0.006908 -0.000000 0.004665
v 0.001782 -0.000000 0.004314
v -0.001115 -0.000000 0.004380
v 0.007420 -0.000000 0.004531
v 0.001497 -0.000000 0.004438
v -0.000759 -0.000000 0.004517
v 0.001195 -0.000000 0.004533
v -0.000366 -0.000000 0.004604
v 0.007314 -0.000000 0.004761
v 0.000873 -0.000000 0.004599
v 0.000530 -0.000000 0.004636
v 0.000064 -0.000000 0.004643
v -0.006594 -0.000000 0.005197
v 0.007081 -0.000000 0.005199
v -0.006243 -0.000000 0.005691
v 0.006824 -0.000000 0.005615
v 0.006539 -0.000000 0.006005
v -0.005861 -0.000000 0.006148
v 0.006231 -0.000000 0.006371
v -0.005445 -0.000000 0.006567
v 0.005898 -0.000000 0.006708
v -0.004998 -0.000000 0.006946
v 0.005542 -0.000000 0.007021
v -0.004519 -0.000000 0.007285
v 0.005165 -0.000000 0.007304
v -0.004010 -0.000000 0.007583
v 0.004765 -0.000000 0.007560
v 0.004344 -0.000000 0.007786
v -0.003471 -0.000000 0.007842
v 0.003905 -0.000000 0.007981
v -0.002904 -0.000000 0.008059
v 0.003447 -0.000000 0.008148
v -0.002308 -0.000000 0.008232
v 0.002970 -0.000000 0.008282
v -0.001992 -0.000000 0.008292
v 0.002674 -0.000000 0.008338
v -0.001607 -0.000000 0.008344
v 0.002304 -0.000000 0.008383
v -0.001162 -0.000000 0.008384
v 0.001873 -0.000000 0.008415
v -0.000676 -0.000000 0.008416
v 0.001397 -0.000000 0.008438
v -0.000162 -0.000000 0.008438
v 0.000363 -0.000000 0.008449
v 0.000889 -0.000000 0.008449
vn -0.0000 1.0000 0.0000
usemtl SVGMat.037
s 1
f 1//1 2//1 3//1
f 4//1 2//1 1//1
f 4//1 5//1 2//1
f 6//1 5//1 4//1
f 6//1 7//1 5//1
f 8//1 7//1 6//1
f 8//1 9//1 7//1
f 10//1 9//1 8//1
f 10//1 11//1 9//1
f 10//1 12//1 11//1
f 10//1 13//1 12//1
f 14//1 13//1 10//1
f 14//1 15//1 13//1
f 14//1 16//1 15//1
f 17//1 16//1 14//1
f 17//1 18//1 16//1
f 19//1 18//1 17//1
f 19//1 20//1 18//1
f 19//1 21//1 20//1
f 22//1 21//1 19//1
f 22//1 23//1 21//1
f 22//1 24//1 23//1
f 25//1 24//1 22//1
f 25//1 26//1 24//1
f 27//1 26//1 25//1
f 27//1 28//1 26//1
f 27//1 29//1 28//1
f 30//1 29//1 27//1
f 30//1 31//1 29//1
f 32//1 31//1 30//1
f 32//1 33//1 31//1
f 34//1 33//1 32//1
f 34//1 35//1 33//1
f 34//1 36//1 35//1
f 37//1 36//1 34//1
f 37//1 38//1 36//1
f 37//1 39//1 38//1
f 40//1 39//1 37//1
f 40//1 41//1 39//1
f 40//1 42//1 41//1
f 42//1 43//1 41//1
f 44//1 45//1 40//1
f 45//1 42//1 40//1
f 46//1 43//1 42//1
f 46//1 47//1 43//1
f 44//1 48//1 45//1
f 49//1 47//1 46//1
f 44//1 50//1 48//1
f 51//1 47//1 49//1
f 51//1 52//1 47//1
f 44//1 53//1 50//1
f 54//1 52//1 51//1
f 54//1 55//1 52//1
f 56//1 53//1 44//1
f 56//1 57//1 53//1
f 58//1 55//1 54//1
f 58//1 59//1 55//1
f 60//1 59//1 58//1
f 61//1 59//1 60//1
f 56//1 62//1 57//1
f 61//1 63//1 59//1
f 64//1 63//1 61//1
f 65//1 63//1 64//1
f 65//1 66//1 63//1
f 67//1 66//1 65//1
f 68//1 62//1 56//1
f 69//1 66//1 67//1
f 69//1 70//1 66//1
f 69//1 71//1 70//1
f 68//1 72//1 62//1
f 73//1 71//1 69//1
f 73//1 74//1 71//1
f 73//1 75//1 74//1
f 76//1 75//1 73//1
f 76//1 77//1 75//1
f 78//1 77//1 76//1
f 78//1 79//1 77//1
f 80//1 79//1 78//1
f 81//1 79//1 80//1
f 81//1 82//1 79//1
f 83//1 82//1 81//1
f 68//1 84//1 72//1
f 83//1 85//1 82//1
f 86//1 85//1 83//1
f 87//1 84//1 68//1
f 88//1 85//1 86//1
f 88//1 89//1 85//1
f 90//1 89//1 88//1
f 91//1 89//1 90//1
f 91//1 92//1 89//1
f 93//1 92//1 91//1
f 94//1 92//1 93//1
f 94//1 95//1 92//1
f 96//1 95//1 94//1
f 97//1 95//1 96//1
f 97//1 98//1 95//1
f 99//1 98//1 97//1
f 100//1 98//1 99//1
f 100//1 101//1 98//1
f 87//1 102//1 84//1
f 103//1 102//1 87//1
f 103//1 104//1 102//1
f 103//1 105//1 104//1
f 103//1 106//1 105//1
f 107//1 106//1 103//1
f 107//1 108//1 106//1
f 107//1 109//1 108//1
f 110//1 109//1 107//1
f 110//1 111//1 109//1
f 110//1 112//1 111//1
f 113//1 112//1 110//1
f 113//1 114//1 112//1
f 113//1 115//1 114//1
f 116//1 115//1 113//1
f 116//1 117//1 115//1
f 116//1 118//1 117//1
f 116//1 119//1 118//1
f 120//1 119//1 116//1
f 121//1 122//1 123//1
f 121//1 124//1 122//1
f 125//1 124//1 121//1
f 125//1 126//1 124//1
f 127//1 126//1 125//1
f 127//1 128//1 126//1
f 129//1 128//1 127//1
f 129//1 130//1 128//1
f 131//1 130//1 129//1
f 131//1 132//1 130//1
f 133//1 132//1 131//1
f 133//1 134//1 132//1
f 135//1 134//1 133//1
f 135//1 136//1 134//1
f 137//1 136//1 135//1
f 137//1 138//1 136//1
f 139//1 138//1 137//1
f 139//1 140//1 138//1
f 141//1 140//1 139//1
f 141//1 142//1 140//1
f 120//1 143//1 119//1
f 141//1 144//1 142//1
f 145//1 144//1 141//1
f 145//1 146//1 144//1
f 147//1 146//1 145//1
f 148//1 143//1 120//1
f 147//1 149//1 146//1
f 150//1 149//1 147//1
f 150//1 151//1 149//1
f 150//1 152//1 151//1
f 150//1 153//1 152//1
f 148//1 154//1 143//1
f 150//1 155//1 153//1
f 150//1 156//1 155//1
f 157//1 156//1 150//1
f 157//1 158//1 156//1
f 157//1 159//1 158//1
f 157//1 160//1 159//1
f 157//1 161//1 160//1
f 157//1 162//1 161//1
f 157//1 163//1 162//1
f 157//1 164//1 163//1
f 165//1 154//1 148//1
f 157//1 166//1 164//1
f 165//1 167//1 154//1
f 168//1 166//1 157//1
f 168//1 169//1 166//1
f 168//1 170//1 169//1
f 168//1 171//1 170//1
f 172//1 171//1 168//1
f 165//1 173//1 167//1
f 172//1 174//1 171//1
f 175//1 173//1 165//1
f 176//1 174//1 172//1
f 176//1 177//1 174//1
f 175//1 178//1 173//1
f 179//1 177//1 176//1
f 179//1 180//1 177//1
f 175//1 181//1 178//1
f 182//1 180//1 179//1
f 182//1 183//1 180//1
f 184//1 181//1 175//1
f 185//1 183//1 182//1
f 184//1 186//1 181//1
f 185//1 187//1 183//1
f 188//1 187//1 185//1
f 184//1 189//1 186//1
f 190//1 187//1 188//1
f 184//1 191//1 189//1
f 190//1 192//1 187//1
f 193//1 192//1 190//1
f 194//1 192//1 193//1
f 184//1 195//1 191//1
f 195//1 192//1 194//1
f 184//1 192//1 195//1
f 196//1 192//1 184//1
f 196//1 197//1 192//1
f 198//1 197//1 196//1
f 198//1 199//1 197//1
f 198//1 200//1 199//1
f 201//1 200//1 198//1
f 201//1 202//1 200//1
f 203//1 202//1 201//1
f 203//1 204//1 202//1
f 205//1 204//1 203//1
f 205//1 206//1 204//1
f 207//1 206//1 205//1
f 207//1 208//1 206//1
f 209//1 208//1 207//1
f 209//1 210//1 208//1
f 209//1 211//1 210//1
f 212//1 211//1 209//1
f 212//1 213//1 211//1
f 214//1 213//1 212//1
f 214//1 215//1 213//1
f 216//1 215//1 214//1
f 216//1 217//1 215//1
f 218//1 217//1 216//1
f 218//1 219//1 217//1
f 220//1 219//1 218//1
f 220//1 221//1 219//1
f 222//1 221//1 220//1
f 222//1 223//1 221//1
f 224//1 223//1 222//1
f 224//1 225//1 223//1
f 226//1 225//1 224//1
f 227//1 225//1 226//1
f 227//1 228//1 225//1
