# Blender v2.81 (sub 16) OBJ File: ''
# www.blender.org
mtllib E.mtl
o E
v -0.006907 0.000000 -0.000000
v -0.000125 0.000000 -0.008213
v -0.006907 0.000000 -0.008213
v -0.001805 0.000000 -0.004728
v 0.006658 0.000000 -0.008213
v 0.006658 0.000000 -0.006470
v 0.006658 0.000000 -0.004728
v -0.001805 0.000000 -0.003421
v 0.002427 0.000000 -0.004728
v -0.001805 0.000000 -0.002115
v 0.002116 0.000000 -0.002115
v 0.006036 0.000000 -0.002115
v 0.006036 0.000000 -0.000435
v 0.006036 -0.000000 0.001245
v -0.006907 -0.000000 0.008213
v -0.001805 -0.000000 0.001245
v -0.001805 -0.000000 0.001275
v 0.002116 -0.000000 0.001245
v -0.001805 -0.000000 0.001359
v -0.001805 -0.000000 0.001486
v -0.001805 -0.000000 0.001645
v -0.001805 -0.000000 0.001825
v -0.001805 -0.000000 0.002016
v -0.001805 -0.000000 0.002207
v -0.001805 -0.000000 0.002388
v -0.001805 -0.000000 0.002547
v -0.001805 -0.000000 0.002672
v -0.001805 -0.000000 0.002757
v -0.001805 -0.000000 0.002788
v -0.001804 -0.000000 0.003090
v -0.001801 -0.000000 0.003352
v -0.001796 -0.000000 0.003578
v -0.001789 -0.000000 0.003768
v -0.001779 -0.000000 0.003927
v -0.001766 -0.000000 0.004058
v -0.001749 -0.000000 0.004163
v -0.001729 -0.000000 0.004246
v -0.001705 -0.000000 0.004308
v -0.001677 -0.000000 0.004353
v -0.001643 -0.000000 0.004384
v -0.001606 -0.000000 0.004405
v -0.001540 -0.000000 0.004415
v -0.001403 -0.000000 0.004424
v -0.001200 -0.000000 0.004433
v -0.000935 -0.000000 0.004441
v -0.000615 -0.000000 0.004448
v -0.000244 -0.000000 0.004457
v 0.000172 -0.000000 0.004463
v 0.000628 -0.000000 0.004469
v 0.001119 -0.000000 0.004473
v 0.001640 -0.000000 0.004477
v 0.002186 -0.000000 0.004479
v 0.002750 -0.000000 0.004479
v 0.006907 -0.000000 0.004479
v 0.006907 -0.000000 0.006346
v 0.006907 -0.000000 0.008213
v 0.000000 -0.000000 0.008213
vn 0.0000 1.0000 0.0000
vn 0.0000 0.0000 1.0000
usemtl SVGMat.041
s 1
f 1//1 2//1 3//1
f 1//1 4//1 2//1
f 4//1 5//1 2//1
f 4//1 6//1 5//1
f 4//1 7//1 6//1
f 1//1 8//1 4//1
f 9//2 7//2 4//2
f 1//1 10//1 8//1
f 1//1 11//1 10//1
f 1//1 12//1 11//1
f 1//1 13//1 12//1
f 1//1 14//1 13//1
f 15//1 16//1 1//1
f 16//1 14//1 1//1
f 15//1 17//1 16//1
f 18//2 14//2 16//2
f 15//1 19//1 17//1
f 15//1 20//1 19//1
f 15//1 21//1 20//1
f 15//1 22//1 21//1
f 15//1 23//1 22//1
f 15//1 24//1 23//1
f 15//1 25//1 24//1
f 15//1 26//1 25//1
f 15//1 27//1 26//1
f 15//1 28//1 27//1
f 15//1 29//1 28//1
f 15//1 30//1 29//1
f 15//1 31//1 30//1
f 15//1 32//1 31//1
f 15//1 33//1 32//1
f 15//1 34//1 33//1
f 15//1 35//1 34//1
f 15//1 36//1 35//1
f 15//1 37//1 36//1
f 15//1 38//1 37//1
f 15//1 39//1 38//1
f 15//1 40//1 39//1
f 15//1 41//1 40//1
f 15//1 42//1 41//1
f 15//1 43//1 42//1
f 15//1 44//1 43//1
f 15//1 45//1 44//1
f 15//1 46//1 45//1
f 15//1 47//1 46//1
f 15//1 48//1 47//1
f 15//1 49//1 48//1
f 15//1 50//1 49//1
f 15//1 51//1 50//1
f 15//1 52//1 51//1
f 15//1 53//1 52//1
f 15//1 54//1 53//1
f 15//1 55//1 54//1
f 15//1 56//1 55//1
f 57//2 56//2 15//2
