# Blender v2.81 (sub 16) OBJ File: ''
# www.blender.org
mtllib G.mtl
o G
v -0.000394 0.000000 -0.008440
v 0.000420 0.000000 -0.008446
v 0.000002 0.000000 -0.008447
v 0.000852 0.000000 -0.008438
v -0.000760 0.000000 -0.008424
v 0.001290 0.000000 -0.008422
v -0.001087 0.000000 -0.008401
v 0.001724 0.000000 -0.008400
v -0.001968 0.000000 -0.008279
v 0.002147 0.000000 -0.008372
v 0.002549 0.000000 -0.008338
v 0.002924 0.000000 -0.008298
v 0.003262 0.000000 -0.008252
v -0.002800 0.000000 -0.008090
v 0.003555 0.000000 -0.008202
v 0.003947 0.000000 -0.008115
v 0.004321 0.000000 -0.008011
v -0.003580 0.000000 -0.007834
v 0.004677 0.000000 -0.007888
v 0.005015 0.000000 -0.007747
v -0.004308 0.000000 -0.007513
v 0.005337 0.000000 -0.007588
v 0.005642 0.000000 -0.007410
v -0.004983 0.000000 -0.007127
v 0.005932 0.000000 -0.007213
v 0.006205 0.000000 -0.006997
v -0.005602 0.000000 -0.006677
v 0.006464 0.000000 -0.006762
v 0.006707 0.000000 -0.006507
v -0.006165 0.000000 -0.006166
v 0.006936 0.000000 -0.006232
v 0.007152 0.000000 -0.005937
v -0.006669 0.000000 -0.005593
v 0.007253 0.000000 -0.005783
v 0.007361 0.000000 -0.005598
v 0.007472 0.000000 -0.005392
v -0.007115 0.000000 -0.004961
v 0.007584 0.000000 -0.005171
v 0.007693 0.000000 -0.004944
v -0.007500 0.000000 -0.004269
v 0.000025 0.000000 -0.004781
v 0.000394 0.000000 -0.004792
v 0.007796 0.000000 -0.004719
v 0.000681 0.000000 -0.004784
v 0.000954 0.000000 -0.004759
v -0.000322 0.000000 -0.004745
v 0.001211 0.000000 -0.004717
v -0.000647 0.000000 -0.004686
v 0.007888 0.000000 -0.004504
v 0.001452 0.000000 -0.004659
v -0.000951 0.000000 -0.004602
v 0.001679 0.000000 -0.004584
v -0.001235 0.000000 -0.004493
v 0.001890 0.000000 -0.004492
v 0.007967 0.000000 -0.004306
v -0.001500 0.000000 -0.004360
v 0.002086 0.000000 -0.004383
v 0.002268 0.000000 -0.004258
v -0.001744 0.000000 -0.004201
v 0.008030 0.000000 -0.004133
v -0.007822 0.000000 -0.003520
v 0.002434 0.000000 -0.004115
v -0.001970 0.000000 -0.004016
v 0.008073 0.000000 -0.003994
v 0.002586 0.000000 -0.003956
v -0.002177 0.000000 -0.003805
v 0.008092 0.000000 -0.003896
v 0.002723 0.000000 -0.003779
v 0.008085 0.000000 -0.003847
v 0.007976 0.000000 -0.003815
v 0.007704 0.000000 -0.003756
v -0.002367 0.000000 -0.003568
v 0.002845 0.000000 -0.003585
v 0.007300 0.000000 -0.003675
v 0.006798 0.000000 -0.003578
v 0.002891 0.000000 -0.003505
v 0.006231 0.000000 -0.003472
v -0.002538 0.000000 -0.003304
v -0.008082 0.000000 -0.002714
v 0.002936 0.000000 -0.003428
v 0.005632 0.000000 -0.003361
v 0.002979 0.000000 -0.003353
v 0.005033 0.000000 -0.003253
v 0.003019 0.000000 -0.003283
v -0.002693 0.000000 -0.003013
v 0.003057 0.000000 -0.003217
v 0.004468 0.000000 -0.003153
v 0.003091 0.000000 -0.003156
v 0.003122 0.000000 -0.003102
v 0.003970 0.000000 -0.003066
v 0.003149 0.000000 -0.003054
v 0.003572 0.000000 -0.003000
v 0.003171 0.000000 -0.003015
v 0.003188 0.000000 -0.002984
v -0.002908 0.000000 -0.002498
v 0.003306 0.000000 -0.002959
v 0.003200 0.000000 -0.002962
v 0.003206 0.000000 -0.002951
v -0.008170 0.000000 -0.002335
v -0.003075 0.000000 -0.001932
v -0.008242 0.000000 -0.001914
v -0.003194 0.000000 -0.001327
v -0.008299 0.000000 -0.001459
v -0.008339 0.000000 -0.000979
v -0.003267 0.000000 -0.000697
v 0.000531 -0.000000 0.000558
v 0.004426 0.000000 -0.001159
v 0.000531 0.000000 -0.001184
v 0.008309 0.000000 -0.001122
v 0.008346 -0.000000 0.002362
v -0.008363 0.000000 -0.000482
v -0.003294 0.000000 -0.000054
v -0.008371 -0.000000 0.000022
v -0.003276 -0.000000 0.000589
v -0.008363 -0.000000 0.000524
v -0.008339 -0.000000 0.001017
v 0.000531 -0.000000 0.002300
v 0.002211 -0.000000 0.002300
v 0.003903 -0.000000 0.002300
v -0.003215 -0.000000 0.001220
v -0.008299 -0.000000 0.001490
v -0.003110 -0.000000 0.001826
v -0.008242 -0.000000 0.001936
v -0.002964 -0.000000 0.002394
v -0.008170 -0.000000 0.002346
v 0.003866 -0.000000 0.003072
v -0.008082 -0.000000 0.002711
v 0.008371 -0.000000 0.005846
v -0.002777 -0.000000 0.002911
v -0.007910 -0.000000 0.003254
v -0.002549 -0.000000 0.003365
v 0.003829 -0.000000 0.003856
v -0.007708 -0.000000 0.003780
v -0.002282 -0.000000 0.003744
v -0.001986 -0.000000 0.004042
v -0.007477 -0.000000 0.004286
v 0.003020 -0.000000 0.004254
v -0.001649 -0.000000 0.004295
v 0.002513 -0.000000 0.004475
v -0.007218 -0.000000 0.004771
v -0.001275 -0.000000 0.004502
v 0.002003 -0.000000 0.004646
v -0.000869 -0.000000 0.004664
v 0.001495 -0.000000 0.004769
v -0.000435 -0.000000 0.004779
v 0.000992 -0.000000 0.004843
v -0.006935 -0.000000 0.005231
v 0.000023 -0.000000 0.004848
v 0.000500 -0.000000 0.004869
v -0.006629 -0.000000 0.005664
v -0.006301 -0.000000 0.006068
v 0.008366 -0.000000 0.005850
v 0.008351 -0.000000 0.005859
v 0.008328 -0.000000 0.005874
v 0.008300 -0.000000 0.005892
v 0.008268 -0.000000 0.005912
v 0.008234 -0.000000 0.005933
v 0.008200 -0.000000 0.005955
v 0.008168 -0.000000 0.005975
v 0.008140 -0.000000 0.005993
v 0.008118 -0.000000 0.006008
v 0.008103 -0.000000 0.006017
v 0.008097 -0.000000 0.006021
v 0.007345 -0.000000 0.006489
v -0.005954 -0.000000 0.006441
v -0.005590 -0.000000 0.006779
v 0.006652 -0.000000 0.006897
v -0.005209 -0.000000 0.007080
v 0.006008 -0.000000 0.007247
v -0.004816 -0.000000 0.007343
v 0.005399 -0.000000 0.007543
v -0.004410 -0.000000 0.007563
v 0.004813 -0.000000 0.007789
v -0.004066 -0.000000 0.007724
v -0.003732 -0.000000 0.007866
v 0.004236 -0.000000 0.007990
v -0.003402 -0.000000 0.007988
v -0.003072 -0.000000 0.008094
v 0.003657 -0.000000 0.008148
v -0.002735 -0.000000 0.008183
v 0.003063 -0.000000 0.008269
v -0.002386 -0.000000 0.008257
v -0.002020 -0.000000 0.008317
v 0.002441 -0.000000 0.008355
v -0.001629 -0.000000 0.008364
v 0.001778 -0.000000 0.008411
v -0.001209 -0.000000 0.008400
v -0.000755 -0.000000 0.008425
v 0.001063 -0.000000 0.008440
v -0.000260 -0.000000 0.008440
v 0.000282 -0.000000 0.008447
vn 0.0000 1.0000 0.0000
usemtl SVGMat.045
s 1
f 1//1 2//1 3//1
f 1//1 4//1 2//1
f 5//1 4//1 1//1
f 5//1 6//1 4//1
f 7//1 6//1 5//1
f 7//1 8//1 6//1
f 9//1 8//1 7//1
f 9//1 10//1 8//1
f 9//1 11//1 10//1
f 9//1 12//1 11//1
f 9//1 13//1 12//1
f 14//1 13//1 9//1
f 14//1 15//1 13//1
f 14//1 16//1 15//1
f 14//1 17//1 16//1
f 18//1 17//1 14//1
f 18//1 19//1 17//1
f 18//1 20//1 19//1
f 21//1 20//1 18//1
f 21//1 22//1 20//1
f 21//1 23//1 22//1
f 24//1 23//1 21//1
f 24//1 25//1 23//1
f 24//1 26//1 25//1
f 27//1 26//1 24//1
f 27//1 28//1 26//1
f 27//1 29//1 28//1
f 30//1 29//1 27//1
f 30//1 31//1 29//1
f 30//1 32//1 31//1
f 33//1 32//1 30//1
f 33//1 34//1 32//1
f 33//1 35//1 34//1
f 33//1 36//1 35//1
f 37//1 36//1 33//1
f 37//1 38//1 36//1
f 37//1 39//1 38//1
f 40//1 41//1 37//1
f 41//1 42//1 37//1
f 42//1 39//1 37//1
f 42//1 43//1 39//1
f 44//1 43//1 42//1
f 45//1 43//1 44//1
f 40//1 46//1 41//1
f 47//1 43//1 45//1
f 40//1 48//1 46//1
f 47//1 49//1 43//1
f 50//1 49//1 47//1
f 40//1 51//1 48//1
f 52//1 49//1 50//1
f 40//1 53//1 51//1
f 54//1 49//1 52//1
f 54//1 55//1 49//1
f 40//1 56//1 53//1
f 57//1 55//1 54//1
f 58//1 55//1 57//1
f 40//1 59//1 56//1
f 58//1 60//1 55//1
f 61//1 59//1 40//1
f 62//1 60//1 58//1
f 61//1 63//1 59//1
f 62//1 64//1 60//1
f 65//1 64//1 62//1
f 61//1 66//1 63//1
f 65//1 67//1 64//1
f 68//1 67//1 65//1
f 68//1 69//1 67//1
f 68//1 70//1 69//1
f 68//1 71//1 70//1
f 61//1 72//1 66//1
f 73//1 71//1 68//1
f 73//1 74//1 71//1
f 73//1 75//1 74//1
f 76//1 75//1 73//1
f 76//1 77//1 75//1
f 61//1 78//1 72//1
f 79//1 78//1 61//1
f 80//1 77//1 76//1
f 80//1 81//1 77//1
f 82//1 81//1 80//1
f 82//1 83//1 81//1
f 84//1 83//1 82//1
f 79//1 85//1 78//1
f 86//1 83//1 84//1
f 86//1 87//1 83//1
f 88//1 87//1 86//1
f 89//1 87//1 88//1
f 89//1 90//1 87//1
f 91//1 90//1 89//1
f 91//1 92//1 90//1
f 93//1 92//1 91//1
f 94//1 92//1 93//1
f 79//1 95//1 85//1
f 94//1 96//1 92//1
f 97//1 96//1 94//1
f 98//1 96//1 97//1
f 99//1 95//1 79//1
f 99//1 100//1 95//1
f 101//1 100//1 99//1
f 101//1 102//1 100//1
f 103//1 102//1 101//1
f 104//1 102//1 103//1
f 104//1 105//1 102//1
f 106//1 107//1 108//1
f 106//1 109//1 107//1
f 106//1 110//1 109//1
f 111//1 105//1 104//1
f 111//1 112//1 105//1
f 113//1 112//1 111//1
f 113//1 114//1 112//1
f 115//1 114//1 113//1
f 116//1 114//1 115//1
f 117//1 118//1 106//1
f 118//1 119//1 106//1
f 119//1 110//1 106//1
f 116//1 120//1 114//1
f 121//1 120//1 116//1
f 121//1 122//1 120//1
f 123//1 122//1 121//1
f 123//1 124//1 122//1
f 125//1 124//1 123//1
f 126//1 110//1 119//1
f 127//1 124//1 125//1
f 126//1 128//1 110//1
f 127//1 129//1 124//1
f 130//1 129//1 127//1
f 130//1 131//1 129//1
f 132//1 128//1 126//1
f 133//1 131//1 130//1
f 133//1 134//1 131//1
f 133//1 135//1 134//1
f 136//1 135//1 133//1
f 137//1 128//1 132//1
f 136//1 138//1 135//1
f 139//1 128//1 137//1
f 140//1 138//1 136//1
f 140//1 141//1 138//1
f 142//1 128//1 139//1
f 140//1 143//1 141//1
f 144//1 128//1 142//1
f 140//1 145//1 143//1
f 146//1 128//1 144//1
f 147//1 145//1 140//1
f 147//1 148//1 145//1
f 149//1 128//1 146//1
f 147//1 149//1 148//1
f 147//1 128//1 149//1
f 150//1 128//1 147//1
f 151//1 128//1 150//1
f 151//1 152//1 128//1
f 151//1 153//1 152//1
f 151//1 154//1 153//1
f 151//1 155//1 154//1
f 151//1 156//1 155//1
f 151//1 157//1 156//1
f 151//1 158//1 157//1
f 151//1 159//1 158//1
f 151//1 160//1 159//1
f 151//1 161//1 160//1
f 151//1 162//1 161//1
f 151//1 163//1 162//1
f 151//1 164//1 163//1
f 165//1 164//1 151//1
f 166//1 164//1 165//1
f 166//1 167//1 164//1
f 168//1 167//1 166//1
f 168//1 169//1 167//1
f 170//1 169//1 168//1
f 170//1 171//1 169//1
f 172//1 171//1 170//1
f 172//1 173//1 171//1
f 174//1 173//1 172//1
f 175//1 173//1 174//1
f 175//1 176//1 173//1
f 177//1 176//1 175//1
f 178//1 176//1 177//1
f 178//1 179//1 176//1
f 180//1 179//1 178//1
f 180//1 181//1 179//1
f 182//1 181//1 180//1
f 183//1 181//1 182//1
f 183//1 184//1 181//1
f 185//1 184//1 183//1
f 185//1 186//1 184//1
f 187//1 186//1 185//1
f 188//1 186//1 187//1
f 188//1 189//1 186//1
f 190//1 189//1 188//1
f 191//1 189//1 190//1
