# Blender v2.81 (sub 16) OBJ File: ''
# www.blender.org
mtllib H.mtl
o H
v -0.007903 0.000000 -0.000000
v -0.005352 0.000000 -0.008213
v -0.007903 0.000000 -0.008213
v -0.002800 0.000000 -0.008213
v -0.002800 0.000000 -0.005350
v 0.002701 0.000000 -0.005325
v 0.005289 0.000000 -0.008151
v 0.002738 0.000000 -0.008151
v 0.007841 0.000000 -0.008151
v 0.007878 -0.000000 0.000025
v -0.002800 0.000000 -0.002488
v 0.002676 0.000000 -0.002488
v -0.000062 0.000000 -0.002488
v -0.007903 -0.000000 0.008213
v -0.002800 -0.000000 0.001617
v -0.000062 -0.000000 0.001617
v 0.002676 -0.000000 0.001617
v 0.007903 -0.000000 0.008213
v -0.002800 -0.000000 0.004914
v 0.002676 -0.000000 0.004914
v -0.002800 -0.000000 0.008213
v 0.002676 -0.000000 0.008213
v -0.005352 -0.000000 0.008213
v 0.005289 -0.000000 0.008213
vn 0.0000 1.0000 0.0000
vn 0.0000 0.0000 1.0000
usemtl SVGMat.047
s 1
f 1//1 2//1 3//1
f 1//1 4//1 2//1
f 1//1 5//1 4//1
f 6//1 7//1 8//1
f 6//1 9//1 7//1
f 6//1 10//1 9//1
f 1//1 11//1 5//1
f 12//1 10//1 6//1
f 1//1 13//1 11//1
f 1//1 12//1 13//1
f 1//1 10//1 12//1
f 14//1 15//1 1//1
f 15//1 10//1 1//1
f 15//1 16//1 10//1
f 16//1 17//1 10//1
f 17//1 18//1 10//1
f 14//1 19//1 15//1
f 20//1 18//1 17//1
f 14//1 21//1 19//1
f 22//1 18//1 20//1
f 23//2 21//2 14//2
f 24//2 18//2 22//2
