# Blender v2.81 (sub 16) OBJ File: ''
# www.blender.org
mtllib I.mtl
o I
v -0.000247 0.000000 -0.008274
v 0.002551 0.000000 -0.008275
v 0.000087 0.000000 -0.008275
v 0.002551 0.000000 -0.000000
v -0.000570 0.000000 -0.008271
v -0.000878 0.000000 -0.008267
v -0.001168 0.000000 -0.008263
v -0.001439 0.000000 -0.008256
v -0.001683 0.000000 -0.008249
v -0.001900 0.000000 -0.008241
v -0.002087 0.000000 -0.008232
v -0.002240 0.000000 -0.008222
v -0.002356 0.000000 -0.008212
v -0.002433 0.000000 -0.008199
v -0.002465 0.000000 -0.008187
v -0.002476 0.000000 -0.008104
v -0.002487 0.000000 -0.007877
v -0.002499 0.000000 -0.007519
v -0.002509 0.000000 -0.007037
v -0.002518 0.000000 -0.006444
v -0.002527 0.000000 -0.005749
v -0.002534 0.000000 -0.004960
v -0.002540 0.000000 -0.004091
v -0.002544 0.000000 -0.003148
v -0.002548 0.000000 -0.002143
v -0.002550 0.000000 -0.001087
v -0.002551 -0.000000 0.000013
v 0.002551 -0.000000 0.008275
v -0.002551 -0.000000 0.000172
v -0.002551 -0.000000 0.000614
v -0.002551 -0.000000 0.001280
v -0.002551 -0.000000 0.002116
v -0.002551 -0.000000 0.003063
v -0.002551 -0.000000 0.004069
v -0.002551 -0.000000 0.005073
v -0.002551 -0.000000 0.006022
v -0.002551 -0.000000 0.006857
v -0.002551 -0.000000 0.007525
v -0.002551 -0.000000 0.007965
v -0.002551 -0.000000 0.008126
v -0.002265 -0.000000 0.008199
v -0.002207 -0.000000 0.008210
v -0.002111 -0.000000 0.008219
v -0.001981 -0.000000 0.008228
v -0.001816 -0.000000 0.008236
v -0.001623 -0.000000 0.008244
v -0.001404 -0.000000 0.008251
v -0.001163 -0.000000 0.008257
v -0.000900 -0.000000 0.008264
v -0.000621 -0.000000 0.008267
v -0.000328 -0.000000 0.008272
v -0.000025 -0.000000 0.008274
v 0.000286 -0.000000 0.008275
v 0.000331 -0.000000 0.008275
v 0.000454 -0.000000 0.008275
v 0.000640 -0.000000 0.008275
v 0.000874 -0.000000 0.008275
v 0.001138 -0.000000 0.008275
v 0.001418 -0.000000 0.008275
v 0.001700 -0.000000 0.008275
v 0.001964 -0.000000 0.008275
v 0.002198 -0.000000 0.008275
v 0.002384 -0.000000 0.008275
v 0.002507 -0.000000 0.008275
vn 0.0000 1.0000 0.0000
vn 0.0000 0.0000 1.0000
usemtl SVGMat.050
s off
f 1//1 2//1 3//1
f 1//1 4//1 2//1
f 5//1 4//1 1//1
f 6//1 4//1 5//1
f 7//1 4//1 6//1
f 8//1 4//1 7//1
f 9//1 4//1 8//1
f 10//1 4//1 9//1
f 11//1 4//1 10//1
f 12//1 4//1 11//1
f 13//1 4//1 12//1
f 14//1 4//1 13//1
f 15//1 4//1 14//1
f 16//1 4//1 15//1
f 17//1 4//1 16//1
f 18//1 4//1 17//1
f 19//1 4//1 18//1
f 20//1 4//1 19//1
f 21//1 4//1 20//1
f 22//1 4//1 21//1
f 23//1 4//1 22//1
f 24//1 4//1 23//1
f 25//1 4//1 24//1
f 26//1 4//1 25//1
f 27//1 4//1 26//1
f 27//1 28//1 4//1
f 29//1 28//1 27//1
f 30//1 28//1 29//1
f 31//1 28//1 30//1
f 32//1 28//1 31//1
f 33//1 28//1 32//1
f 34//1 28//1 33//1
f 35//1 28//1 34//1
f 36//1 28//1 35//1
f 37//1 28//1 36//1
f 38//1 28//1 37//1
f 39//1 28//1 38//1
f 40//1 28//1 39//1
f 41//1 28//1 40//1
f 42//1 28//1 41//1
f 43//1 28//1 42//1
f 44//1 28//1 43//1
f 45//1 28//1 44//1
f 46//1 28//1 45//1
f 47//1 28//1 46//1
f 48//1 28//1 47//1
f 49//1 28//1 48//1
f 50//1 28//1 49//1
f 51//1 28//1 50//1
f 52//1 28//1 51//1
f 53//1 28//1 52//1
f 54//2 28//2 53//2
f 55//2 28//2 54//2
f 56//2 28//2 55//2
f 57//2 28//2 56//2
f 58//2 28//2 57//2
f 59//2 28//2 58//2
f 60//2 28//2 59//2
f 61//2 28//2 60//2
f 62//2 28//2 61//2
f 63//2 28//2 62//2
f 64//2 28//2 63//2
