# Blender v2.81 (sub 16) OBJ File: ''
# www.blender.org
mtllib J.mtl
o J
v 0.001549 0.000000 -0.008227
v 0.004101 0.000000 -0.008336
v 0.001550 0.000000 -0.008336
v 0.006653 0.000000 -0.008336
v 0.006651 0.000000 -0.008225
v 0.001545 0.000000 -0.007920
v 0.006648 0.000000 -0.007916
v 0.001540 0.000000 -0.007457
v 0.006643 0.000000 -0.007449
v 0.001534 0.000000 -0.006879
v 0.006637 0.000000 -0.006863
v 0.001527 0.000000 -0.006221
v 0.006629 0.000000 -0.006198
v 0.001519 0.000000 -0.005524
v 0.006622 0.000000 -0.005493
v 0.001511 0.000000 -0.004829
v 0.006614 0.000000 -0.004790
v 0.001504 0.000000 -0.004171
v 0.006607 0.000000 -0.004125
v 0.001498 0.000000 -0.003592
v 0.006600 0.000000 -0.003539
v 0.001492 0.000000 -0.003129
v 0.006595 0.000000 -0.003071
v 0.001489 0.000000 -0.002823
v 0.006592 0.000000 -0.002763
v 0.001488 0.000000 -0.002713
v 0.006590 0.000000 -0.002651
v 0.001481 0.000000 -0.001781
v 0.006575 0.000000 -0.001221
v 0.001472 0.000000 -0.000932
v 0.006557 0.000000 -0.000003
v 0.001462 0.000000 -0.000163
v 0.001450 -0.000000 0.000527
v 0.006536 -0.000000 0.001026
v 0.001436 -0.000000 0.001139
v 0.006509 -0.000000 0.001888
v 0.001421 -0.000000 0.001675
v 0.001404 -0.000000 0.002136
v 0.006474 -0.000000 0.002605
v -0.002444 -0.000000 0.001948
v -0.002011 -0.000000 0.001959
v -0.002196 -0.000000 0.001942
v -0.002766 -0.000000 0.001974
v -0.001880 -0.000000 0.002002
v -0.003170 -0.000000 0.002021
v -0.001794 -0.000000 0.002071
v -0.003665 -0.000000 0.002085
v -0.001744 -0.000000 0.002168
v -0.004262 -0.000000 0.002165
v 0.001385 -0.000000 0.002525
v -0.004578 -0.000000 0.002208
v -0.001719 -0.000000 0.002296
v -0.004881 -0.000000 0.002250
v -0.005171 -0.000000 0.002291
v -0.005442 -0.000000 0.002330
v -0.001711 -0.000000 0.002456
v -0.005694 -0.000000 0.002367
v -0.005922 -0.000000 0.002401
v -0.006124 -0.000000 0.002432
v -0.006297 -0.000000 0.002460
v -0.001711 -0.000000 0.002650
v -0.006437 -0.000000 0.002483
v -0.006543 -0.000000 0.002502
v -0.006612 -0.000000 0.002516
v -0.006639 -0.000000 0.002525
v 0.001364 -0.000000 0.002843
v -0.006653 -0.000000 0.002576
v -0.006652 -0.000000 0.002678
v 0.006429 -0.000000 0.003199
v -0.001709 -0.000000 0.002718
v -0.006637 -0.000000 0.002825
v -0.001705 -0.000000 0.002790
v -0.001697 -0.000000 0.002865
v -0.006611 -0.000000 0.003007
v 0.001341 -0.000000 0.003090
v -0.001688 -0.000000 0.002943
v -0.001675 -0.000000 0.003021
v -0.006576 -0.000000 0.003216
v -0.001661 -0.000000 0.003101
v 0.001316 -0.000000 0.003270
v -0.001644 -0.000000 0.003180
v -0.001626 -0.000000 0.003258
v 0.006371 -0.000000 0.003693
v -0.006532 -0.000000 0.003446
v -0.001606 -0.000000 0.003332
v 0.001289 -0.000000 0.003384
v -0.001584 -0.000000 0.003404
v 0.001150 -0.000000 0.003705
v -0.001561 -0.000000 0.003471
v -0.006481 -0.000000 0.003686
v -0.001536 -0.000000 0.003533
v -0.001372 -0.000000 0.003837
v -0.006426 -0.000000 0.003927
v 0.006298 -0.000000 0.004109
v 0.000963 -0.000000 0.003971
v -0.001164 -0.000000 0.004081
v -0.006368 -0.000000 0.004165
v 0.000737 -0.000000 0.004182
v -0.000922 -0.000000 0.004269
v 0.006209 -0.000000 0.004469
v -0.006308 -0.000000 0.004389
v 0.000482 -0.000000 0.004339
v -0.000655 -0.000000 0.004397
v 0.000206 -0.000000 0.004437
v -0.006249 -0.000000 0.004592
v -0.000372 -0.000000 0.004467
v -0.000082 -0.000000 0.004482
v 0.006101 -0.000000 0.004796
v -0.006191 -0.000000 0.004765
v -0.005940 -0.000000 0.005354
v 0.005971 -0.000000 0.005111
v 0.005819 -0.000000 0.005437
v -0.005644 -0.000000 0.005885
v 0.005702 -0.000000 0.005646
v 0.005559 -0.000000 0.005861
v 0.005393 -0.000000 0.006078
v -0.005304 -0.000000 0.006362
v 0.005207 -0.000000 0.006297
v 0.005003 -0.000000 0.006511
v -0.004917 -0.000000 0.006786
v 0.004784 -0.000000 0.006723
v 0.004554 -0.000000 0.006924
v -0.004482 -0.000000 0.007156
v 0.004315 -0.000000 0.007116
v 0.004070 -0.000000 0.007296
v -0.003998 -0.000000 0.007475
v 0.003823 -0.000000 0.007459
v 0.003575 -0.000000 0.007604
v -0.003461 -0.000000 0.007741
v 0.003330 -0.000000 0.007728
v 0.003092 -0.000000 0.007827
v -0.002872 -0.000000 0.007958
v 0.002852 -0.000000 0.007919
v 0.002608 -0.000000 0.008001
v -0.002229 -0.000000 0.008125
v 0.002359 -0.000000 0.008073
v 0.002104 -0.000000 0.008136
v -0.001529 -0.000000 0.008243
v 0.001841 -0.000000 0.008190
v 0.001570 -0.000000 0.008235
v 0.001289 -0.000000 0.008272
v -0.000772 -0.000000 0.008313
v 0.000997 -0.000000 0.008300
v 0.000693 -0.000000 0.008320
v 0.000044 -0.000000 0.008336
v 0.000376 -0.000000 0.008333
vn -0.0000 1.0000 0.0000
usemtl SVGMat.051
s 1
f 1//1 2//1 3//1
f 1//1 4//1 2//1
f 1//1 5//1 4//1
f 6//1 5//1 1//1
f 6//1 7//1 5//1
f 8//1 7//1 6//1
f 8//1 9//1 7//1
f 10//1 9//1 8//1
f 10//1 11//1 9//1
f 12//1 11//1 10//1
f 12//1 13//1 11//1
f 14//1 13//1 12//1
f 14//1 15//1 13//1
f 16//1 15//1 14//1
f 16//1 17//1 15//1
f 18//1 17//1 16//1
f 18//1 19//1 17//1
f 20//1 19//1 18//1
f 20//1 21//1 19//1
f 22//1 21//1 20//1
f 22//1 23//1 21//1
f 24//1 23//1 22//1
f 24//1 25//1 23//1
f 26//1 25//1 24//1
f 26//1 27//1 25//1
f 28//1 27//1 26//1
f 28//1 29//1 27//1
f 30//1 29//1 28//1
f 30//1 31//1 29//1
f 32//1 31//1 30//1
f 33//1 31//1 32//1
f 33//1 34//1 31//1
f 35//1 34//1 33//1
f 35//1 36//1 34//1
f 37//1 36//1 35//1
f 38//1 36//1 37//1
f 38//1 39//1 36//1
f 40//1 41//1 42//1
f 43//1 41//1 40//1
f 43//1 44//1 41//1
f 45//1 44//1 43//1
f 45//1 46//1 44//1
f 47//1 46//1 45//1
f 47//1 48//1 46//1
f 49//1 48//1 47//1
f 50//1 39//1 38//1
f 51//1 48//1 49//1
f 51//1 52//1 48//1
f 53//1 52//1 51//1
f 54//1 52//1 53//1
f 55//1 52//1 54//1
f 55//1 56//1 52//1
f 57//1 56//1 55//1
f 58//1 56//1 57//1
f 59//1 56//1 58//1
f 60//1 56//1 59//1
f 60//1 61//1 56//1
f 62//1 61//1 60//1
f 63//1 61//1 62//1
f 64//1 61//1 63//1
f 65//1 61//1 64//1
f 66//1 39//1 50//1
f 67//1 61//1 65//1
f 68//1 61//1 67//1
f 66//1 69//1 39//1
f 68//1 70//1 61//1
f 71//1 70//1 68//1
f 71//1 72//1 70//1
f 71//1 73//1 72//1
f 74//1 73//1 71//1
f 75//1 69//1 66//1
f 74//1 76//1 73//1
f 74//1 77//1 76//1
f 78//1 77//1 74//1
f 78//1 79//1 77//1
f 80//1 69//1 75//1
f 78//1 81//1 79//1
f 78//1 82//1 81//1
f 80//1 83//1 69//1
f 84//1 82//1 78//1
f 84//1 85//1 82//1
f 86//1 83//1 80//1
f 84//1 87//1 85//1
f 88//1 83//1 86//1
f 84//1 89//1 87//1
f 90//1 89//1 84//1
f 90//1 91//1 89//1
f 90//1 92//1 91//1
f 93//1 92//1 90//1
f 88//1 94//1 83//1
f 95//1 94//1 88//1
f 93//1 96//1 92//1
f 97//1 96//1 93//1
f 98//1 94//1 95//1
f 97//1 99//1 96//1
f 98//1 100//1 94//1
f 101//1 99//1 97//1
f 102//1 100//1 98//1
f 101//1 103//1 99//1
f 104//1 100//1 102//1
f 105//1 103//1 101//1
f 105//1 106//1 103//1
f 107//1 100//1 104//1
f 105//1 107//1 106//1
f 107//1 108//1 100//1
f 105//1 108//1 107//1
f 109//1 108//1 105//1
f 110//1 108//1 109//1
f 110//1 111//1 108//1
f 110//1 112//1 111//1
f 113//1 112//1 110//1
f 113//1 114//1 112//1
f 113//1 115//1 114//1
f 113//1 116//1 115//1
f 117//1 116//1 113//1
f 117//1 118//1 116//1
f 117//1 119//1 118//1
f 120//1 119//1 117//1
f 120//1 121//1 119//1
f 120//1 122//1 121//1
f 123//1 122//1 120//1
f 123//1 124//1 122//1
f 123//1 125//1 124//1
f 126//1 125//1 123//1
f 126//1 127//1 125//1
f 126//1 128//1 127//1
f 129//1 128//1 126//1
f 129//1 130//1 128//1
f 129//1 131//1 130//1
f 132//1 131//1 129//1
f 132//1 133//1 131//1
f 132//1 134//1 133//1
f 135//1 134//1 132//1
f 135//1 136//1 134//1
f 135//1 137//1 136//1
f 138//1 137//1 135//1
f 138//1 139//1 137//1
f 138//1 140//1 139//1
f 138//1 141//1 140//1
f 142//1 141//1 138//1
f 142//1 143//1 141//1
f 142//1 144//1 143//1
f 145//1 144//1 142//1
f 145//1 146//1 144//1
