# Blender v2.81 (sub 16) OBJ File: ''
# www.blender.org
mtllib K.mtl
o K
v -0.008687 0.000000 -0.000038
v -0.006160 0.000000 -0.008275
v -0.008712 0.000000 -0.008275
v -0.003609 0.000000 -0.008275
v -0.003584 0.000000 -0.005201
v 0.005465 0.000000 -0.008252
v 0.006307 0.000000 -0.008252
v 0.005897 0.000000 -0.008253
v 0.006690 0.000000 -0.008249
v 0.005016 0.000000 -0.008249
v 0.007044 0.000000 -0.008247
v 0.004950 0.000000 -0.008249
v 0.004770 0.000000 -0.008247
v 0.004496 0.000000 -0.008244
v 0.007363 0.000000 -0.008241
v 0.004154 0.000000 -0.008240
v 0.007645 0.000000 -0.008236
v 0.003766 0.000000 -0.008236
v 0.007884 0.000000 -0.008229
v 0.003354 0.000000 -0.008230
v 0.002943 0.000000 -0.008226
v 0.008077 0.000000 -0.008220
v 0.002554 0.000000 -0.008222
v 0.002212 0.000000 -0.008218
v 0.008220 0.000000 -0.008210
v 0.001939 0.000000 -0.008214
v 0.001758 0.000000 -0.008213
v 0.001693 0.000000 -0.008213
v -0.000933 0.000000 -0.005164
v 0.008308 0.000000 -0.008199
v 0.008339 0.000000 -0.008187
v 0.008312 0.000000 -0.008144
v 0.008233 0.000000 -0.008050
v 0.008107 0.000000 -0.007906
v 0.007937 0.000000 -0.007717
v 0.007726 0.000000 -0.007488
v 0.007478 0.000000 -0.007221
v 0.007197 0.000000 -0.006921
v 0.006886 0.000000 -0.006592
v 0.006548 0.000000 -0.006237
v 0.006188 0.000000 -0.005859
v 0.005809 0.000000 -0.005463
v 0.005414 0.000000 -0.005052
v -0.003547 0.000000 -0.002116
v 0.004782 0.000000 -0.004393
v 0.004248 0.000000 -0.003835
v 0.003806 0.000000 -0.003368
v 0.003448 0.000000 -0.002983
v 0.003165 0.000000 -0.002672
v 0.002950 0.000000 -0.002424
v 0.002795 0.000000 -0.002230
v 0.002693 0.000000 -0.002081
v 0.002635 0.000000 -0.001969
v 0.002614 0.000000 -0.001883
v 0.002622 0.000000 -0.001815
v 0.002651 0.000000 -0.001755
v 0.002885 0.000000 -0.001382
v 0.003290 0.000000 -0.000726
v 0.003829 -0.000000 0.000153
v -0.008649 -0.000000 0.008213
v -0.001079 -0.000000 0.001638
v -0.001017 -0.000000 0.001587
v -0.000976 -0.000000 0.001559
v -0.000958 -0.000000 0.001555
v 0.004466 -0.000000 0.001194
v 0.005164 -0.000000 0.002339
v -0.000934 -0.000000 0.001595
v -0.000880 -0.000000 0.001692
v -0.001160 -0.000000 0.001711
v -0.000799 -0.000000 0.001842
v -0.001259 -0.000000 0.001804
v -0.001374 -0.000000 0.001914
v -0.000694 -0.000000 0.002043
v -0.001502 -0.000000 0.002041
v -0.001644 -0.000000 0.002183
v -0.000565 -0.000000 0.002288
v -0.001796 -0.000000 0.002337
v -0.000415 -0.000000 0.002575
v -0.001958 -0.000000 0.002503
v 0.005887 -0.000000 0.003527
v -0.002127 -0.000000 0.002678
v -0.000247 -0.000000 0.002900
v -0.002302 -0.000000 0.002862
v -0.003597 -0.000000 0.004230
v -0.000061 -0.000000 0.003257
v 0.000139 -0.000000 0.003644
v 0.006598 -0.000000 0.004699
v 0.000352 -0.000000 0.004056
v 0.000576 -0.000000 0.004490
v -0.003609 -0.000000 0.006258
v 0.000809 -0.000000 0.004941
v 0.007262 -0.000000 0.005795
v 0.000843 -0.000000 0.005005
v 0.000935 -0.000000 0.005187
v 0.001076 -0.000000 0.005462
v 0.001251 -0.000000 0.005805
v 0.007842 -0.000000 0.006753
v 0.001450 -0.000000 0.006194
v 0.001662 -0.000000 0.006607
v -0.003609 -0.000000 0.008275
v 0.001873 -0.000000 0.007021
v 0.008301 -0.000000 0.007515
v 0.002072 -0.000000 0.007410
v 0.002248 -0.000000 0.007753
v 0.008603 -0.000000 0.008023
v 0.002388 -0.000000 0.008027
v 0.008712 -0.000000 0.008213
v 0.002481 -0.000000 0.008209
v 0.002514 -0.000000 0.008275
v -0.006123 -0.000000 0.008249
v 0.008684 -0.000000 0.008221
v 0.008601 -0.000000 0.008230
v 0.008468 -0.000000 0.008237
v 0.008287 -0.000000 0.008245
v 0.008064 -0.000000 0.008252
v 0.007802 -0.000000 0.008257
v 0.007504 -0.000000 0.008263
v 0.007174 -0.000000 0.008267
v 0.006817 -0.000000 0.008271
v 0.006435 -0.000000 0.008272
v 0.006032 -0.000000 0.008275
v 0.005613 -0.000000 0.008275
vn 0.0000 1.0000 0.0000
usemtl SVGMat.054
s off
f 1//1 2//1 3//1
f 1//1 4//1 2//1
f 1//1 5//1 4//1
f 6//1 7//1 8//1
f 6//1 9//1 7//1
f 10//1 9//1 6//1
f 10//1 11//1 9//1
f 12//1 11//1 10//1
f 13//1 11//1 12//1
f 14//1 11//1 13//1
f 14//1 15//1 11//1
f 16//1 15//1 14//1
f 16//1 17//1 15//1
f 18//1 17//1 16//1
f 18//1 19//1 17//1
f 20//1 19//1 18//1
f 21//1 19//1 20//1
f 21//1 22//1 19//1
f 23//1 22//1 21//1
f 24//1 22//1 23//1
f 24//1 25//1 22//1
f 26//1 25//1 24//1
f 27//1 25//1 26//1
f 28//1 25//1 27//1
f 29//1 25//1 28//1
f 29//1 30//1 25//1
f 29//1 31//1 30//1
f 29//1 32//1 31//1
f 29//1 33//1 32//1
f 29//1 34//1 33//1
f 29//1 35//1 34//1
f 29//1 36//1 35//1
f 29//1 37//1 36//1
f 29//1 38//1 37//1
f 29//1 39//1 38//1
f 29//1 40//1 39//1
f 29//1 41//1 40//1
f 29//1 42//1 41//1
f 29//1 43//1 42//1
f 1//1 44//1 5//1
f 44//1 43//1 29//1
f 44//1 45//1 43//1
f 44//1 46//1 45//1
f 44//1 47//1 46//1
f 44//1 48//1 47//1
f 44//1 49//1 48//1
f 44//1 50//1 49//1
f 44//1 51//1 50//1
f 44//1 52//1 51//1
f 1//1 52//1 44//1
f 1//1 53//1 52//1
f 1//1 54//1 53//1
f 1//1 55//1 54//1
f 1//1 56//1 55//1
f 1//1 57//1 56//1
f 1//1 58//1 57//1
f 1//1 59//1 58//1
f 60//1 61//1 1//1
f 61//1 62//1 1//1
f 62//1 63//1 1//1
f 63//1 59//1 1//1
f 63//1 64//1 59//1
f 64//1 65//1 59//1
f 64//1 66//1 65//1
f 67//1 66//1 64//1
f 68//1 66//1 67//1
f 60//1 69//1 61//1
f 70//1 66//1 68//1
f 60//1 71//1 69//1
f 60//1 72//1 71//1
f 73//1 66//1 70//1
f 60//1 74//1 72//1
f 60//1 75//1 74//1
f 76//1 66//1 73//1
f 60//1 77//1 75//1
f 78//1 66//1 76//1
f 60//1 79//1 77//1
f 78//1 80//1 66//1
f 60//1 81//1 79//1
f 82//1 80//1 78//1
f 60//1 83//1 81//1
f 60//1 84//1 83//1
f 85//1 80//1 82//1
f 86//1 80//1 85//1
f 86//1 87//1 80//1
f 88//1 87//1 86//1
f 89//1 87//1 88//1
f 60//1 90//1 84//1
f 91//1 87//1 89//1
f 91//1 92//1 87//1
f 93//1 92//1 91//1
f 94//1 92//1 93//1
f 95//1 92//1 94//1
f 96//1 92//1 95//1
f 96//1 97//1 92//1
f 98//1 97//1 96//1
f 99//1 97//1 98//1
f 60//1 100//1 90//1
f 101//1 97//1 99//1
f 101//1 102//1 97//1
f 103//1 102//1 101//1
f 104//1 102//1 103//1
f 104//1 105//1 102//1
f 106//1 105//1 104//1
f 106//1 107//1 105//1
f 108//1 107//1 106//1
f 109//1 107//1 108//1
f 110//1 100//1 60//1
f 109//1 111//1 107//1
f 109//1 112//1 111//1
f 109//1 113//1 112//1
f 109//1 114//1 113//1
f 109//1 115//1 114//1
f 109//1 116//1 115//1
f 109//1 117//1 116//1
f 109//1 118//1 117//1
f 109//1 119//1 118//1
f 109//1 120//1 119//1
f 109//1 121//1 120//1
f 109//1 122//1 121//1
