# Blender v2.81 (sub 16) OBJ File: ''
# www.blender.org
mtllib L.mtl
o L
v -0.006534 0.000000 -0.000000
v -0.003983 0.000000 -0.008213
v -0.006534 0.000000 -0.008213
v -0.001431 0.000000 -0.008213
v -0.001431 0.000000 -0.008092
v -0.001431 0.000000 -0.007757
v -0.001431 0.000000 -0.007253
v -0.001431 0.000000 -0.006618
v -0.001431 0.000000 -0.005901
v -0.001431 0.000000 -0.005139
v -0.001431 0.000000 -0.004378
v -0.001431 0.000000 -0.003660
v -0.001431 0.000000 -0.003026
v -0.001431 0.000000 -0.002521
v -0.001431 0.000000 -0.002187
v -0.001431 0.000000 -0.002066
v -0.001431 0.000000 -0.000791
v -0.001429 -0.000000 0.000297
v -0.006534 -0.000000 0.008213
v -0.001425 -0.000000 0.001213
v -0.001418 -0.000000 0.001973
v -0.001409 -0.000000 0.002590
v -0.001397 -0.000000 0.003080
v -0.001381 -0.000000 0.003457
v -0.001361 -0.000000 0.003735
v -0.001337 -0.000000 0.003930
v -0.001307 -0.000000 0.004054
v -0.001273 -0.000000 0.004126
v -0.001232 -0.000000 0.004155
v -0.001170 -0.000000 0.004166
v -0.001043 -0.000000 0.004174
v -0.000855 -0.000000 0.004184
v -0.000612 -0.000000 0.004192
v -0.000318 -0.000000 0.004200
v 0.000022 -0.000000 0.004208
v 0.000402 -0.000000 0.004213
v 0.000819 -0.000000 0.004220
v 0.001267 -0.000000 0.004224
v 0.001741 -0.000000 0.004228
v 0.002237 -0.000000 0.004229
v 0.002750 -0.000000 0.004231
v 0.006534 -0.000000 0.004231
v 0.006534 -0.000000 0.006222
v 0.006534 -0.000000 0.008213
v -0.000000 -0.000000 0.008213
vn 0.0000 1.0000 0.0000
vn 0.0000 0.0000 1.0000
usemtl SVGMat.056
s off
f 1//1 2//1 3//1
f 1//1 4//1 2//1
f 1//1 5//1 4//1
f 1//1 6//1 5//1
f 1//1 7//1 6//1
f 1//1 8//1 7//1
f 1//1 9//1 8//1
f 1//1 10//1 9//1
f 1//1 11//1 10//1
f 1//1 12//1 11//1
f 1//1 13//1 12//1
f 1//1 14//1 13//1
f 1//1 15//1 14//1
f 1//1 16//1 15//1
f 1//1 17//1 16//1
f 1//1 18//1 17//1
f 19//1 18//1 1//1
f 19//1 20//1 18//1
f 19//1 21//1 20//1
f 19//1 22//1 21//1
f 19//1 23//1 22//1
f 19//1 24//1 23//1
f 19//1 25//1 24//1
f 19//1 26//1 25//1
f 19//1 27//1 26//1
f 19//1 28//1 27//1
f 19//1 29//1 28//1
f 19//1 30//1 29//1
f 19//1 31//1 30//1
f 19//1 32//1 31//1
f 19//1 33//1 32//1
f 19//1 34//1 33//1
f 19//1 35//1 34//1
f 19//1 36//1 35//1
f 19//1 37//1 36//1
f 19//1 38//1 37//1
f 19//1 39//1 38//1
f 19//1 40//1 39//1
f 19//1 41//1 40//1
f 19//1 42//1 41//1
f 19//1 43//1 42//1
f 19//1 44//1 43//1
f 45//2 44//2 19//2
