# Blender v2.81 (sub 16) OBJ File: ''
# www.blender.org
mtllib R.mtl
o R
v -0.008083 -0.000000 0.000000
v -0.007983 0.000000 -0.008212
v -0.008083 0.000000 -0.008212
v -0.007707 0.000000 -0.008212
v -0.007290 0.000000 -0.008212
v -0.006767 0.000000 -0.008212
v -0.006173 0.000000 -0.008212
v -0.005545 0.000000 -0.008212
v -0.004916 0.000000 -0.008212
v -0.004322 0.000000 -0.008212
v -0.003799 0.000000 -0.008212
v -0.003382 0.000000 -0.008212
v -0.003106 0.000000 -0.008212
v -0.003006 0.000000 -0.008212
v -0.001723 0.000000 -0.008208
v -0.000613 0.000000 -0.008199
v 0.000340 0.000000 -0.008185
v -0.002981 0.000000 -0.004853
v 0.001152 0.000000 -0.008163
v 0.001840 0.000000 -0.008133
v 0.002421 0.000000 -0.008093
v 0.002910 0.000000 -0.008041
v 0.003324 0.000000 -0.007975
v 0.003680 0.000000 -0.007896
v 0.003994 0.000000 -0.007800
v 0.004282 0.000000 -0.007686
v 0.004561 0.000000 -0.007553
v 0.004747 0.000000 -0.007451
v 0.004931 0.000000 -0.007335
v 0.005112 0.000000 -0.007204
v 0.005288 0.000000 -0.007061
v 0.005458 0.000000 -0.006906
v 0.005622 0.000000 -0.006741
v 0.005778 0.000000 -0.006567
v 0.005926 0.000000 -0.006386
v 0.006063 0.000000 -0.006199
v 0.006189 0.000000 -0.006006
v 0.006303 0.000000 -0.005810
v 0.006403 0.000000 -0.005612
v 0.006492 0.000000 -0.005376
v 0.006564 0.000000 -0.005093
v -0.001363 0.000000 -0.004853
v -0.001080 0.000000 -0.004852
v 0.006620 0.000000 -0.004771
v -0.002981 0.000000 -0.003235
v -0.000822 0.000000 -0.004848
v -0.000586 0.000000 -0.004843
v -0.000372 0.000000 -0.004834
v -0.000178 0.000000 -0.004823
v -0.000003 0.000000 -0.004809
v 0.000155 0.000000 -0.004792
v 0.000298 0.000000 -0.004772
v 0.000426 0.000000 -0.004748
v 0.006660 0.000000 -0.004420
v 0.000541 0.000000 -0.004720
v 0.000646 0.000000 -0.004689
v 0.000740 0.000000 -0.004654
v 0.000957 0.000000 -0.004545
v 0.001144 0.000000 -0.004402
v 0.006684 0.000000 -0.004049
v 0.001301 0.000000 -0.004229
v 0.001427 0.000000 -0.004034
v 0.006691 0.000000 -0.003669
v 0.001521 0.000000 -0.003820
v 0.001582 0.000000 -0.003593
v 0.006682 0.000000 -0.003289
v 0.001609 0.000000 -0.003358
v 0.001601 0.000000 -0.003121
v 0.006657 0.000000 -0.002918
v -0.002981 0.000000 -0.001618
v 0.001558 0.000000 -0.002886
v 0.006615 0.000000 -0.002565
v 0.001477 0.000000 -0.002660
v 0.001358 0.000000 -0.002447
v 0.006557 0.000000 -0.002242
v 0.001201 0.000000 -0.002252
v 0.001084 0.000000 -0.002146
v 0.006482 0.000000 -0.001956
v 0.000948 0.000000 -0.002050
v 0.000794 0.000000 -0.001964
v 0.000618 0.000000 -0.001889
v 0.006391 0.000000 -0.001717
v 0.000421 0.000000 -0.001823
v 0.000201 0.000000 -0.001767
v -0.000044 0.000000 -0.001720
v -0.000316 0.000000 -0.001683
v 0.006247 0.000000 -0.001437
v -0.000614 0.000000 -0.001654
v -0.000941 0.000000 -0.001634
v -0.001298 0.000000 -0.001622
v -0.001686 0.000000 -0.001618
v -0.002955 0.000000 -0.001618
v -0.002885 0.000000 -0.001618
v -0.002778 0.000000 -0.001618
v -0.002645 0.000000 -0.001618
v -0.002494 0.000000 -0.001618
v -0.002334 0.000000 -0.001618
v -0.002173 0.000000 -0.001618
v -0.002022 0.000000 -0.001618
v -0.001889 0.000000 -0.001618
v -0.001782 0.000000 -0.001618
v -0.001712 0.000000 -0.001618
v 0.006079 0.000000 -0.001165
v 0.005889 0.000000 -0.000902
v 0.005679 0.000000 -0.000649
v 0.005450 0.000000 -0.000410
v 0.005205 0.000000 -0.000185
v 0.004947 -0.000000 0.000023
v -0.008083 -0.000000 0.008212
v -0.002919 -0.000000 0.001555
v 0.004676 -0.000000 0.000214
v 0.004396 -0.000000 0.000384
v 0.004107 -0.000000 0.000533
v 0.003813 -0.000000 0.000659
v 0.003516 -0.000000 0.000759
v 0.002968 -0.000000 0.000921
v 0.002979 -0.000000 0.000926
v 0.003010 -0.000000 0.000941
v 0.003056 -0.000000 0.000963
v 0.003113 -0.000000 0.000992
v 0.003179 -0.000000 0.001024
v 0.003248 -0.000000 0.001058
v 0.003318 -0.000000 0.001091
v 0.003383 -0.000000 0.001123
v 0.003441 -0.000000 0.001152
v 0.003487 -0.000000 0.001174
v 0.003517 -0.000000 0.001189
v 0.003528 -0.000000 0.001194
v 0.003769 -0.000000 0.001332
v 0.004003 -0.000000 0.001494
v 0.004233 -0.000000 0.001686
v -0.002956 -0.000000 0.004878
v -0.002371 -0.000000 0.001593
v -0.002209 -0.000000 0.001606
v -0.002055 -0.000000 0.001629
v -0.001907 -0.000000 0.001660
v -0.001766 -0.000000 0.001700
v 0.004462 -0.000000 0.001911
v -0.001632 -0.000000 0.001749
v -0.001504 -0.000000 0.001806
v -0.001384 -0.000000 0.001871
v -0.001271 -0.000000 0.001946
v 0.004695 -0.000000 0.002175
v -0.001165 -0.000000 0.002028
v -0.001066 -0.000000 0.002119
v -0.000974 -0.000000 0.002219
v 0.004935 -0.000000 0.002482
v -0.000890 -0.000000 0.002327
v -0.000843 -0.000000 0.002400
v -0.000771 -0.000000 0.002519
v 0.005185 -0.000000 0.002839
v -0.000678 -0.000000 0.002679
v -0.000564 -0.000000 0.002877
v 0.005449 -0.000000 0.003249
v -0.000431 -0.000000 0.003109
v -0.000283 -0.000000 0.003372
v 0.005730 -0.000000 0.003718
v -0.000121 -0.000000 0.003662
v 0.000053 -0.000000 0.003975
v 0.006032 -0.000000 0.004250
v 0.000237 -0.000000 0.004307
v 0.006359 -0.000000 0.004851
v 0.000429 -0.000000 0.004656
v 0.000626 -0.000000 0.005018
v 0.006714 -0.000000 0.005525
v -0.002981 -0.000000 0.008212
v 0.000828 -0.000000 0.005388
v 0.001025 -0.000000 0.005758
v 0.008083 -0.000000 0.008150
v 0.001217 -0.000000 0.006114
v 0.001402 -0.000000 0.006453
v 0.001578 -0.000000 0.006771
v 0.001743 -0.000000 0.007064
v 0.001895 -0.000000 0.007330
v 0.002032 -0.000000 0.007566
v 0.002151 -0.000000 0.007767
v 0.002252 -0.000000 0.007930
v 0.002332 -0.000000 0.008053
v 0.002389 -0.000000 0.008131
v 0.002421 -0.000000 0.008162
v 0.008029 -0.000000 0.008151
v 0.007879 -0.000000 0.008153
v 0.007652 -0.000000 0.008156
v 0.007367 -0.000000 0.008160
v 0.007044 -0.000000 0.008164
v 0.002467 -0.000000 0.008168
v 0.006702 -0.000000 0.008169
v 0.002560 -0.000000 0.008174
v 0.006360 -0.000000 0.008173
v 0.006037 -0.000000 0.008178
v 0.002697 -0.000000 0.008179
v 0.005752 -0.000000 0.008181
v 0.002874 -0.000000 0.008183
v 0.005525 -0.000000 0.008185
v 0.003087 -0.000000 0.008186
v 0.005375 -0.000000 0.008187
v 0.003334 -0.000000 0.008189
v 0.005320 -0.000000 0.008187
v 0.004946 -0.000000 0.008190
v 0.003610 -0.000000 0.008191
v 0.004584 -0.000000 0.008192
v 0.003913 -0.000000 0.008192
v 0.004239 -0.000000 0.008192
v -0.005532 -0.000000 0.008212
vn -0.0000 1.0000 0.0000
vn 0.0000 0.0000 1.0000
usemtl SVGMat.067
s 1
f 1//1 2//1 3//1
f 1//1 4//1 2//1
f 1//1 5//1 4//1
f 1//1 6//1 5//1
f 1//1 7//1 6//1
f 1//1 8//1 7//1
f 1//1 9//1 8//1
f 1//1 10//1 9//1
f 1//1 11//1 10//1
f 1//1 12//1 11//1
f 1//1 13//1 12//1
f 1//1 14//1 13//1
f 1//1 15//1 14//1
f 1//1 16//1 15//1
f 1//1 17//1 16//1
f 1//1 18//1 17//1
f 18//1 19//1 17//1
f 18//1 20//1 19//1
f 18//1 21//1 20//1
f 18//1 22//1 21//1
f 18//1 23//1 22//1
f 18//1 24//1 23//1
f 18//1 25//1 24//1
f 18//1 26//1 25//1
f 18//1 27//1 26//1
f 18//1 28//1 27//1
f 18//1 29//1 28//1
f 18//1 30//1 29//1
f 18//1 31//1 30//1
f 18//1 32//1 31//1
f 18//1 33//1 32//1
f 18//1 34//1 33//1
f 18//1 35//1 34//1
f 18//1 36//1 35//1
f 18//1 37//1 36//1
f 18//1 38//1 37//1
f 18//1 39//1 38//1
f 18//1 40//1 39//1
f 18//1 41//1 40//1
f 18//1 42//1 41//1
f 42//1 43//1 41//1
f 43//1 44//1 41//1
f 1//1 45//1 18//1
f 46//1 44//1 43//1
f 47//1 44//1 46//1
f 48//1 44//1 47//1
f 49//1 44//1 48//1
f 50//1 44//1 49//1
f 51//1 44//1 50//1
f 52//1 44//1 51//1
f 53//1 44//1 52//1
f 53//1 54//1 44//1
f 55//1 54//1 53//1
f 56//1 54//1 55//1
f 57//1 54//1 56//1
f 58//1 54//1 57//1
f 59//1 54//1 58//1
f 59//1 60//1 54//1
f 61//1 60//1 59//1
f 62//1 60//1 61//1
f 62//1 63//1 60//1
f 64//1 63//1 62//1
f 65//1 63//1 64//1
f 65//1 66//1 63//1
f 67//1 66//1 65//1
f 68//1 66//1 67//1
f 68//1 69//1 66//1
f 1//1 70//1 45//1
f 71//1 69//1 68//1
f 71//1 72//1 69//1
f 73//1 72//1 71//1
f 74//1 72//1 73//1
f 74//1 75//1 72//1
f 76//1 75//1 74//1
f 77//1 75//1 76//1
f 77//1 78//1 75//1
f 79//1 78//1 77//1
f 80//1 78//1 79//1
f 81//1 78//1 80//1
f 81//1 82//1 78//1
f 83//1 82//1 81//1
f 84//1 82//1 83//1
f 85//1 82//1 84//1
f 86//1 82//1 85//1
f 86//1 87//1 82//1
f 88//1 87//1 86//1
f 89//1 87//1 88//1
f 90//1 87//1 89//1
f 91//1 87//1 90//1
f 1//1 92//1 70//1
f 1//1 93//1 92//1
f 1//1 94//1 93//1
f 1//1 95//1 94//1
f 1//1 96//1 95//1
f 1//1 97//1 96//1
f 1//1 98//1 97//1
f 1//1 99//1 98//1
f 1//1 100//1 99//1
f 1//1 101//1 100//1
f 1//1 102//1 101//1
f 1//1 91//1 102//1
f 1//1 87//1 91//1
f 1//1 103//1 87//1
f 1//1 104//1 103//1
f 1//1 105//1 104//1
f 1//1 106//1 105//1
f 1//1 107//1 106//1
f 1//1 108//1 107//1
f 109//1 110//1 1//1
f 110//1 108//1 1//1
f 110//1 111//1 108//1
f 110//1 112//1 111//1
f 110//1 113//1 112//1
f 110//1 114//1 113//1
f 110//1 115//1 114//1
f 110//1 116//1 115//1
f 110//1 117//1 116//1
f 110//1 118//1 117//1
f 110//1 119//1 118//1
f 110//1 120//1 119//1
f 110//1 121//1 120//1
f 110//1 122//1 121//1
f 110//1 123//1 122//1
f 110//1 124//1 123//1
f 110//1 125//1 124//1
f 110//1 126//1 125//1
f 110//1 127//1 126//1
f 110//1 128//1 127//1
f 110//1 129//1 128//1
f 110//1 130//1 129//1
f 110//1 131//1 130//1
f 109//1 132//1 110//1
f 133//1 131//1 110//1
f 134//1 131//1 133//1
f 135//1 131//1 134//1
f 136//1 131//1 135//1
f 137//1 131//1 136//1
f 137//1 138//1 131//1
f 139//1 138//1 137//1
f 140//1 138//1 139//1
f 141//1 138//1 140//1
f 142//1 138//1 141//1
f 142//1 143//1 138//1
f 144//1 143//1 142//1
f 145//1 143//1 144//1
f 146//1 143//1 145//1
f 146//1 147//1 143//1
f 148//1 147//1 146//1
f 149//1 147//1 148//1
f 150//1 147//1 149//1
f 150//1 151//1 147//1
f 152//1 151//1 150//1
f 153//1 151//1 152//1
f 153//1 154//1 151//1
f 155//1 154//1 153//1
f 156//1 154//1 155//1
f 156//1 157//1 154//1
f 158//1 157//1 156//1
f 159//1 157//1 158//1
f 159//1 160//1 157//1
f 161//1 160//1 159//1
f 161//1 162//1 160//1
f 163//1 162//1 161//1
f 164//1 162//1 163//1
f 164//1 165//1 162//1
f 109//1 166//1 132//1
f 167//1 165//1 164//1
f 168//1 165//1 167//1
f 168//1 169//1 165//1
f 170//1 169//1 168//1
f 171//1 169//1 170//1
f 172//1 169//1 171//1
f 173//1 169//1 172//1
f 174//1 169//1 173//1
f 175//1 169//1 174//1
f 176//1 169//1 175//1
f 177//1 169//1 176//1
f 178//1 169//1 177//1
f 179//1 169//1 178//1
f 180//1 169//1 179//1
f 180//1 181//1 169//1
f 180//1 182//1 181//1
f 180//1 183//1 182//1
f 180//1 184//1 183//1
f 180//1 185//1 184//1
f 186//1 185//1 180//1
f 186//1 187//1 185//1
f 188//1 187//1 186//1
f 188//1 189//1 187//1
f 188//1 190//1 189//1
f 191//1 190//1 188//1
f 191//1 192//1 190//1
f 193//1 192//1 191//1
f 193//1 194//1 192//1
f 195//1 194//1 193//1
f 195//1 196//1 194//1
f 197//1 196//1 195//1
f 197//1 198//1 196//1
f 197//1 199//1 198//1
f 200//1 199//1 197//1
f 200//1 201//1 199//1
f 202//1 201//1 200//1
f 202//1 203//1 201//1
f 204//2 166//2 109//2
