# Blender v2.81 (sub 16) OBJ File: ''
# www.blender.org
mtllib T.mtl
o T
v -0.007716 0.000000 -0.006160
v 0.000000 0.000000 -0.008213
v -0.007716 0.000000 -0.008213
v 0.007716 0.000000 -0.008213
v 0.007716 0.000000 -0.006160
v -0.007716 0.000000 -0.004107
v 0.007716 0.000000 -0.004107
v -0.005103 0.000000 -0.004107
v -0.002489 0.000000 -0.004107
v -0.002489 -0.000000 0.002052
v 0.002613 0.000000 -0.004107
v 0.002613 -0.000000 0.002052
v 0.005165 0.000000 -0.004107
v -0.002489 -0.000000 0.008213
v 0.002613 -0.000000 0.008213
v 0.000062 -0.000000 0.008213
vn 0.0000 1.0000 0.0000
vn 0.0000 0.0000 1.0000
usemtl SVGMat.071
s 1
f 1//1 2//1 3//1
f 1//1 4//1 2//1
f 1//1 5//1 4//1
f 6//1 5//1 1//1
f 6//1 7//1 5//1
f 8//2 7//2 6//2
f 9//2 7//2 8//2
f 10//1 11//1 9//1
f 11//2 7//2 9//2
f 10//1 12//1 11//1
f 13//2 7//2 11//2
f 14//1 12//1 10//1
f 14//1 15//1 12//1
f 16//2 15//2 14//2
