# Blender v2.81 (sub 16) OBJ File: ''
# www.blender.org
mtllib V.mtl
o V
v -0.008841 0.000000 -0.008194
v -0.008795 0.000000 -0.008213
v -0.008848 0.000000 -0.008213
v -0.008651 0.000000 -0.008213
v -0.008430 0.000000 -0.008213
v -0.008155 0.000000 -0.008213
v -0.007842 0.000000 -0.008213
v -0.007511 0.000000 -0.008213
v -0.007180 0.000000 -0.008213
v -0.006867 0.000000 -0.008213
v -0.006591 0.000000 -0.008213
v -0.006371 0.000000 -0.008213
v -0.006226 0.000000 -0.008213
v -0.006173 0.000000 -0.008213
v -0.005812 0.000000 -0.008212
v 0.003422 0.000000 -0.007191
v 0.006297 0.000000 -0.008213
v 0.003733 0.000000 -0.008213
v 0.008848 0.000000 -0.008213
v 0.008847 0.000000 -0.008206
v -0.005465 0.000000 -0.008210
v -0.005136 0.000000 -0.008207
v -0.004827 0.000000 -0.008205
v 0.008844 0.000000 -0.008190
v -0.004542 0.000000 -0.008201
v -0.004285 0.000000 -0.008195
v -0.004058 0.000000 -0.008190
v -0.008822 0.000000 -0.008141
v -0.003865 0.000000 -0.008182
v 0.008838 0.000000 -0.008163
v -0.003709 0.000000 -0.008175
v -0.003594 0.000000 -0.008167
v -0.003522 0.000000 -0.008159
v 0.008830 0.000000 -0.008132
v -0.003497 0.000000 -0.008150
v -0.003428 0.000000 -0.007896
v -0.008793 0.000000 -0.008062
v 0.008821 0.000000 -0.008096
v 0.008811 0.000000 -0.008056
v -0.008755 0.000000 -0.007963
v 0.008802 0.000000 -0.008019
v 0.008793 0.000000 -0.007981
v 0.008785 0.000000 -0.007950
v -0.008713 0.000000 -0.007852
v 0.008779 0.000000 -0.007924
v 0.008776 0.000000 -0.007907
v 0.008775 0.000000 -0.007901
v 0.008737 0.000000 -0.007790
v -0.003236 0.000000 -0.007258
v -0.008669 0.000000 -0.007733
v 0.008651 0.000000 -0.007547
v -0.008624 0.000000 -0.007614
v -0.008582 0.000000 -0.007502
v 0.008520 0.000000 -0.007183
v -0.008544 0.000000 -0.007404
v -0.008515 0.000000 -0.007326
v -0.008495 0.000000 -0.007272
v -0.008488 0.000000 -0.007254
v -0.002946 0.000000 -0.006315
v -0.008398 0.000000 -0.007005
v 0.002906 0.000000 -0.005507
v 0.008346 0.000000 -0.006708
v -0.008289 0.000000 -0.006708
v -0.008152 0.000000 -0.006342
v 0.008135 0.000000 -0.006132
v -0.007981 0.000000 -0.005879
v -0.002582 0.000000 -0.005142
v 0.007891 0.000000 -0.005463
v -0.007763 0.000000 -0.005298
v 0.002433 0.000000 -0.003971
v 0.007614 0.000000 -0.004711
v -0.007491 0.000000 -0.004575
v -0.002167 0.000000 -0.003818
v 0.007310 0.000000 -0.003884
v -0.007155 0.000000 -0.003683
v 0.002003 0.000000 -0.002582
v 0.006983 0.000000 -0.002995
v -0.001727 0.000000 -0.002416
v -0.006747 0.000000 -0.002602
v 0.006633 0.000000 -0.002050
v -0.006257 0.000000 -0.001307
v 0.001618 0.000000 -0.001340
v -0.001285 0.000000 -0.001018
v 0.006267 0.000000 -0.001062
v 0.001275 0.000000 -0.000247
v -0.005676 -0.000000 0.000227
v 0.005886 0.000000 -0.000037
v -0.000866 -0.000000 0.000302
v 0.000977 -0.000000 0.000699
v 0.005506 -0.000000 0.000990
v -0.004996 -0.000000 0.002024
v -0.000494 -0.000000 0.001466
v 0.000722 -0.000000 0.001497
v 0.005137 -0.000000 0.001983
v -0.000193 -0.000000 0.002399
v 0.000510 -0.000000 0.002146
v 0.004785 -0.000000 0.002930
v -0.004207 -0.000000 0.004107
v 0.000342 -0.000000 0.002647
v 0.000013 -0.000000 0.003023
v 0.000218 -0.000000 0.003000
v 0.004453 -0.000000 0.003823
v 0.000137 -0.000000 0.003205
v 0.000099 -0.000000 0.003261
v 0.004144 -0.000000 0.004653
v -0.004177 -0.000000 0.004185
v -0.004093 -0.000000 0.004406
v -0.003968 -0.000000 0.004739
v 0.003863 -0.000000 0.005409
v -0.003810 -0.000000 0.005154
v -0.003631 -0.000000 0.005627
v 0.003612 -0.000000 0.006082
v -0.003441 -0.000000 0.006129
v 0.003396 -0.000000 0.006663
v -0.003252 -0.000000 0.006630
v -0.003073 -0.000000 0.007102
v 0.003217 -0.000000 0.007143
v -0.002915 -0.000000 0.007519
v 0.003081 -0.000000 0.007511
v 0.002991 -0.000000 0.007759
v -0.002789 -0.000000 0.007850
v 0.002949 -0.000000 0.007877
v -0.002706 -0.000000 0.008071
v 0.002825 -0.000000 0.008213
v -0.002676 -0.000000 0.008151
v 0.000074 -0.000000 0.008187
vn 0.0000 1.0000 0.0000
usemtl SVGMat.074
s 1
f 1//1 2//1 3//1
f 1//1 4//1 2//1
f 1//1 5//1 4//1
f 1//1 6//1 5//1
f 1//1 7//1 6//1
f 1//1 8//1 7//1
f 1//1 9//1 8//1
f 1//1 10//1 9//1
f 1//1 11//1 10//1
f 1//1 12//1 11//1
f 1//1 13//1 12//1
f 1//1 14//1 13//1
f 1//1 15//1 14//1
f 16//1 17//1 18//1
f 16//1 19//1 17//1
f 16//1 20//1 19//1
f 1//1 21//1 15//1
f 1//1 22//1 21//1
f 1//1 23//1 22//1
f 16//1 24//1 20//1
f 1//1 25//1 23//1
f 1//1 26//1 25//1
f 1//1 27//1 26//1
f 28//1 27//1 1//1
f 28//1 29//1 27//1
f 16//1 30//1 24//1
f 28//1 31//1 29//1
f 28//1 32//1 31//1
f 28//1 33//1 32//1
f 16//1 34//1 30//1
f 28//1 35//1 33//1
f 28//1 36//1 35//1
f 37//1 36//1 28//1
f 16//1 38//1 34//1
f 16//1 39//1 38//1
f 40//1 36//1 37//1
f 16//1 41//1 39//1
f 16//1 42//1 41//1
f 16//1 43//1 42//1
f 44//1 36//1 40//1
f 16//1 45//1 43//1
f 16//1 46//1 45//1
f 16//1 47//1 46//1
f 16//1 48//1 47//1
f 44//1 49//1 36//1
f 50//1 49//1 44//1
f 16//1 51//1 48//1
f 52//1 49//1 50//1
f 53//1 49//1 52//1
f 16//1 54//1 51//1
f 55//1 49//1 53//1
f 56//1 49//1 55//1
f 57//1 49//1 56//1
f 58//1 49//1 57//1
f 58//1 59//1 49//1
f 60//1 59//1 58//1
f 61//1 54//1 16//1
f 61//1 62//1 54//1
f 63//1 59//1 60//1
f 64//1 59//1 63//1
f 61//1 65//1 62//1
f 66//1 59//1 64//1
f 66//1 67//1 59//1
f 61//1 68//1 65//1
f 69//1 67//1 66//1
f 70//1 68//1 61//1
f 70//1 71//1 68//1
f 72//1 67//1 69//1
f 72//1 73//1 67//1
f 70//1 74//1 71//1
f 75//1 73//1 72//1
f 76//1 74//1 70//1
f 76//1 77//1 74//1
f 75//1 78//1 73//1
f 79//1 78//1 75//1
f 76//1 80//1 77//1
f 81//1 78//1 79//1
f 82//1 80//1 76//1
f 81//1 83//1 78//1
f 82//1 84//1 80//1
f 85//1 84//1 82//1
f 86//1 83//1 81//1
f 85//1 87//1 84//1
f 86//1 88//1 83//1
f 89//1 87//1 85//1
f 89//1 90//1 87//1
f 91//1 88//1 86//1
f 91//1 92//1 88//1
f 93//1 90//1 89//1
f 93//1 94//1 90//1
f 91//1 95//1 92//1
f 96//1 94//1 93//1
f 96//1 97//1 94//1
f 98//1 95//1 91//1
f 99//1 97//1 96//1
f 98//1 100//1 95//1
f 101//1 97//1 99//1
f 101//1 102//1 97//1
f 103//1 102//1 101//1
f 98//1 104//1 100//1
f 104//1 102//1 103//1
f 98//1 102//1 104//1
f 98//1 105//1 102//1
f 106//1 105//1 98//1
f 107//1 105//1 106//1
f 108//1 105//1 107//1
f 108//1 109//1 105//1
f 110//1 109//1 108//1
f 111//1 109//1 110//1
f 111//1 112//1 109//1
f 113//1 112//1 111//1
f 113//1 114//1 112//1
f 115//1 114//1 113//1
f 116//1 114//1 115//1
f 116//1 117//1 114//1
f 118//1 117//1 116//1
f 118//1 119//1 117//1
f 118//1 120//1 119//1
f 121//1 120//1 118//1
f 121//1 122//1 120//1
f 123//1 122//1 121//1
f 123//1 124//1 122//1
f 125//1 124//1 123//1
f 126//1 124//1 125//1
