# Blender v2.81 (sub 16) OBJ File: ''
# www.blender.org
mtllib Y.mtl
o Y
v 0.001709 0.000000 -0.005475
v 0.003407 0.000000 -0.008213
v 0.003352 0.000000 -0.008213
v 0.003559 0.000000 -0.008213
v 0.003789 0.000000 -0.008213
v 0.004078 0.000000 -0.008213
v 0.004405 0.000000 -0.008213
v 0.004752 0.000000 -0.008213
v 0.005099 0.000000 -0.008213
v 0.005426 0.000000 -0.008213
v 0.005715 0.000000 -0.008213
v 0.005945 0.000000 -0.008213
v 0.006097 0.000000 -0.008213
v 0.006152 0.000000 -0.008213
v 0.006774 0.000000 -0.008213
v 0.007296 0.000000 -0.008211
v 0.007725 0.000000 -0.008206
v 0.008071 0.000000 -0.008201
v 0.008341 0.000000 -0.008191
v -0.007459 0.000000 -0.008193
v -0.006789 0.000000 -0.008191
v -0.007135 0.000000 -0.008193
v -0.007759 0.000000 -0.008190
v -0.006424 0.000000 -0.008190
v 0.008545 0.000000 -0.008179
v -0.008028 0.000000 -0.008190
v -0.006044 0.000000 -0.008188
v -0.008267 0.000000 -0.008187
v -0.003219 0.000000 -0.008151
v -0.008470 0.000000 -0.008182
v -0.008635 0.000000 -0.008179
v -0.008756 0.000000 -0.008174
v 0.008690 0.000000 -0.008160
v -0.008831 0.000000 -0.008168
v -0.008856 0.000000 -0.008163
v -0.008828 0.000000 -0.008113
v 0.008784 0.000000 -0.008136
v -0.003188 0.000000 -0.008098
v 0.008837 0.000000 -0.008108
v -0.008743 0.000000 -0.007981
v 0.008856 0.000000 -0.008072
v -0.003102 0.000000 -0.007954
v 0.008850 0.000000 -0.008027
v 0.008829 0.000000 -0.007976
v -0.008606 0.000000 -0.007772
v 0.008783 0.000000 -0.007903
v -0.002972 0.000000 -0.007737
v 0.008683 0.000000 -0.007753
v -0.008421 0.000000 -0.007491
v 0.008535 0.000000 -0.007529
v -0.002809 0.000000 -0.007464
v 0.008342 0.000000 -0.007238
v -0.008193 0.000000 -0.007145
v -0.002625 0.000000 -0.007154
v 0.008109 0.000000 -0.006886
v -0.002429 0.000000 -0.006826
v -0.007924 0.000000 -0.006739
v 0.007837 0.000000 -0.006479
v -0.002233 0.000000 -0.006497
v -0.007618 0.000000 -0.006280
v -0.002048 0.000000 -0.006187
v 0.007532 0.000000 -0.006022
v -0.007281 0.000000 -0.005774
v -0.001886 0.000000 -0.005914
v 0.007198 0.000000 -0.005521
v -0.001756 0.000000 -0.005697
v -0.006914 0.000000 -0.005224
v -0.001670 0.000000 -0.005552
v -0.001639 0.000000 -0.005499
v 0.006838 0.000000 -0.004983
v -0.001424 0.000000 -0.005142
v 0.001485 0.000000 -0.005106
v -0.006524 0.000000 -0.004639
v -0.001217 0.000000 -0.004797
v 0.001270 0.000000 -0.004752
v 0.006456 0.000000 -0.004411
v -0.001020 0.000000 -0.004469
v 0.001065 0.000000 -0.004417
v -0.006112 0.000000 -0.004025
v -0.000834 0.000000 -0.004162
v 0.000872 0.000000 -0.004104
v 0.006056 0.000000 -0.003815
v -0.000662 0.000000 -0.003877
v 0.000693 0.000000 -0.003817
v -0.005683 0.000000 -0.003385
v -0.000505 0.000000 -0.003618
v 0.000530 0.000000 -0.003559
v 0.005642 0.000000 -0.003198
v -0.000365 0.000000 -0.003389
v 0.000385 0.000000 -0.003333
v -0.000245 0.000000 -0.003193
v -0.005621 0.000000 -0.003292
v 0.000261 0.000000 -0.003143
v -0.005448 0.000000 -0.003035
v 0.002593 -0.000000 0.001343
v -0.000146 0.000000 -0.003033
v 0.000159 0.000000 -0.002991
v -0.005188 0.000000 -0.002646
v -0.000070 0.000000 -0.002912
v 0.000080 0.000000 -0.002881
v -0.000019 0.000000 -0.002833
v 0.000028 0.000000 -0.002816
v 0.000004 0.000000 -0.002800
v -0.004861 0.000000 -0.002159
v -0.004490 0.000000 -0.001606
v -0.004097 0.000000 -0.001021
v -0.003704 0.000000 -0.000435
v -0.003333 -0.000000 0.000117
v -0.003006 -0.000000 0.000604
v -0.002745 -0.000000 0.000993
v -0.002572 -0.000000 0.001250
v -0.002510 -0.000000 0.001343
v -0.002510 -0.000000 0.004777
v 0.002593 -0.000000 0.004777
v -0.002510 -0.000000 0.008213
v 0.002593 -0.000000 0.008213
v 0.000041 -0.000000 0.008213
vn 0.0000 1.0000 0.0000
vn 0.0000 0.0000 1.0000
usemtl SVGMat.081
s off
f 1//1 2//1 3//1
f 1//1 4//1 2//1
f 1//1 5//1 4//1
f 1//1 6//1 5//1
f 1//1 7//1 6//1
f 1//1 8//1 7//1
f 1//1 9//1 8//1
f 1//1 10//1 9//1
f 1//1 11//1 10//1
f 1//1 12//1 11//1
f 1//1 13//1 12//1
f 1//1 14//1 13//1
f 1//1 15//1 14//1
f 1//1 16//1 15//1
f 1//1 17//1 16//1
f 1//1 18//1 17//1
f 1//1 19//1 18//1
f 20//1 21//1 22//1
f 23//1 21//1 20//1
f 23//1 24//1 21//1
f 1//1 25//1 19//1
f 26//1 24//1 23//1
f 26//1 27//1 24//1
f 28//1 27//1 26//1
f 28//1 29//1 27//1
f 30//1 29//1 28//1
f 31//1 29//1 30//1
f 32//1 29//1 31//1
f 1//1 33//1 25//1
f 34//1 29//1 32//1
f 35//1 29//1 34//1
f 36//1 29//1 35//1
f 1//1 37//1 33//1
f 36//1 38//1 29//1
f 1//1 39//1 37//1
f 40//1 38//1 36//1
f 1//1 41//1 39//1
f 40//1 42//1 38//1
f 1//1 43//1 41//1
f 1//1 44//1 43//1
f 45//1 42//1 40//1
f 1//1 46//1 44//1
f 45//1 47//1 42//1
f 1//1 48//1 46//1
f 49//1 47//1 45//1
f 1//1 50//1 48//1
f 49//1 51//1 47//1
f 1//1 52//1 50//1
f 53//1 51//1 49//1
f 53//1 54//1 51//1
f 1//1 55//1 52//1
f 53//1 56//1 54//1
f 57//1 56//1 53//1
f 1//1 58//1 55//1
f 57//1 59//1 56//1
f 60//1 59//1 57//1
f 60//1 61//1 59//1
f 1//1 62//1 58//1
f 63//1 61//1 60//1
f 63//1 64//1 61//1
f 1//1 65//1 62//1
f 63//1 66//1 64//1
f 67//1 66//1 63//1
f 67//1 68//1 66//1
f 67//1 69//1 68//1
f 1//1 70//1 65//1
f 67//1 71//1 69//1
f 72//1 70//1 1//1
f 73//1 71//1 67//1
f 73//1 74//1 71//1
f 75//1 70//1 72//1
f 75//1 76//1 70//1
f 73//1 77//1 74//1
f 78//1 76//1 75//1
f 79//1 77//1 73//1
f 79//1 80//1 77//1
f 81//1 76//1 78//1
f 81//1 82//1 76//1
f 79//1 83//1 80//1
f 84//1 82//1 81//1
f 85//1 83//1 79//1
f 85//1 86//1 83//1
f 87//1 82//1 84//1
f 87//1 88//1 82//1
f 85//1 89//1 86//1
f 90//1 88//1 87//1
f 85//1 91//1 89//1
f 92//1 91//1 85//1
f 93//1 88//1 90//1
f 94//1 91//1 92//1
f 93//1 95//1 88//1
f 94//1 96//1 91//1
f 97//1 95//1 93//1
f 98//1 96//1 94//1
f 98//1 99//1 96//1
f 100//1 95//1 97//1
f 98//1 101//1 99//1
f 102//1 95//1 100//1
f 98//1 103//1 101//1
f 103//1 95//1 102//1
f 98//1 95//1 103//1
f 104//1 95//1 98//1
f 105//1 95//1 104//1
f 106//1 95//1 105//1
f 107//1 95//1 106//1
f 108//1 95//1 107//1
f 109//1 95//1 108//1
f 110//1 95//1 109//1
f 111//1 95//1 110//1
f 112//1 95//1 111//1
f 113//1 95//1 112//1
f 113//1 114//1 95//1
f 115//1 114//1 113//1
f 115//1 116//1 114//1
f 117//2 116//2 115//2
